<svg xmlns="http://www.w3.org/2000/svg" width="465.3" height="463.3" viewBox="173 -171.3 465.3 463.3" enable-background="new 173 -171.3 465.3 463.3"><style type="text/css">.st0{fill:#FFFFFF;}</style><path class="st0" d="M575.7-171.3h-340.1c-34.6 0-62.6 28-62.6 62.6v338.1c0 34.6 28 62.6 62.6 62.6h340.1c34.6 0 62.6-28 62.6-62.6v-338.1c0-34.6-28-62.6-62.6-62.6zm-343.2 30h346.7c12.7.1 19.5 15.1 11.4 24.9l-150.9 182.6c-7.5 9.1-21.1 14.6-36.4 14.6h-.3c-15.4-.1-29.1-5.6-36.5-14.9l-147-179.4c-9-11-1.4-27.6 12.8-27.8h.2zm-18.4 68.7l119.5 145.8c1 1.2 1 2.9 0 4l-119.5 142.2c-3.8 4.5-11.1 1.8-11.1-4v-284c0-5.9 7.4-8.5 11.1-4zm24.1 333.8c-15.3-.7-3.2-20.1-1.6-22.1l117.6-139.8c1.1-1.4 3.1-1.6 4.6-.7 12.3 7.8 27.7 12.2 44 12.2h.5c19.2 0 37.1-6 50.3-16.4 1.6-1.2 3.8-1 5 .6l106.8 140c1.7 2.2 3.6 4.3 5.4 6.4 6 6.7 8.5 20.6-4.5 20.6 0 0-325.6-.7-328.1-.8zm370.1-44.9v.4c-.4 7.5-12.2 7.5-16.8 1.5l-113.6-147.3c-.9-1.2-.9-2.8.1-3.9l116.3-140.8c4.7-5.7 14-2.4 14 5v285.1z" id="Layer_1_1_"/></svg>