<svg xmlns="http://www.w3.org/2000/svg" width="120.3" height="36.3" viewBox="-245 378.7 120.3 36.3" enable-background="new -245 378.7 120.3 36.3"><style type="text/css">.st0{stroke:#000000;stroke-width:0.3;stroke-miterlimit:10;} .st1{fill:none;}</style><path d="M-218.8 383.9c.2.5.2.9.2 1.4v1.4c0 .5 0 1-.1 1.6 0 .5 0 1 .1 1.6.1.5.3 1.1.5 1.6s.4 1.1.4 1.7c.1.6.1 1.2 0 1.8-.1.6-.1 1.2 0 1.7 0 .1 0 .2.1.3.1.1.1.2.1.4.1.3.1.5.1.8l-.1.9v4.4c0 .4-.1.6-.2.8-.1.1-.3.1-.5.1-.3 0-.5 0-.7-.1 0-.1-.1-.3-.1-.5v-1.7l-.3-2.1c-.2-.7-.3-1.5-.4-2.1 0-.1 0-.2-.1-.3-.1-.1-.1-.2-.1-.4 0-1.2 0-2.5.1-3.9s.1-2.8.1-4.1l-1 1.2c-.3.4-.6.9-.9 1.4-.3 0-.5-.1-.7-.3-.2-.2-.4-.3-.5-.4-.2-.4-.3-.4-.4-.4-.1 0-.2 0-.3-.1-.2-.1-.5-.2-.7-.4s-.4-.3-.7-.3c-.1.1-.2.2-.2.4v.5c0 .1 0 .2.1.3s.1.2.1.3c0 .2.1.4 0 .6v2c.1.3.2.7.2 1.2.1.5.1.9.1 1.2v2.8c0 .5 0 1 .1 1.5 0 .5 0 .9-.1 1.3 0 .2 0 .4-.1.5-.1.2-.1.3-.1.4 0 .3 0 .5.1.7 0 .2 0 .4-.1.7-.2.1-.4.1-.7.1s-.5 0-.7-.1c-.1-.2-.1-.4-.1-.6l.1-.6v-3.5c0-.5 0-1.1.1-1.6.1-.6 0-1.1-.1-1.6 0-.2 0-.3-.1-.4-.1-.1-.1-.3-.1-.4-.1-.7-.1-1.5-.1-2.3l.1-2.4v-3c0-1-.1-1.9-.1-2.7 0 .1.1.1.1.1l.1-.1s0-.1.1-.1c0-.1.1-.1.1-.1.2-.2.4-.2.6-.2.2.1.3.2.5.4l.3.6c.1.3.1.5.2.7v1.1c0 .2.1.4.3.6s.3.4.4.6l.5.5c.2.2.4.3.7.3.3-.1.5-.3.7-.7.2-.4.4-.7.5-1.1.1-.2.2-.3.3-.4.1-.1.2-.2.2-.3v-.8c.1-.2.2-.3.4-.5.1-.2.3-.3.3-.5.1-.1.1-.2.1-.3 0-.1 0-.2.1-.2 0-.1 0-.1.1-.2h.1c.2-.2.3-.4.4-.5 0-.3.3-.3.6-.2zm3.1 19.5v-.2c.2-.6.4-1.3.5-1.8.2-.6.3-1.2.4-2v-1.6c0-.3 0-.5.1-.8.1-.3.1-.6.1-1 0-.3 0-.6-.1-.9-.1-.3 0-.6.1-.9 0-.2 0-.3.1-.4s.1-.2.1-.3v-.7c.1-.2.2-.4.3-.5.1-.2.1-.4.1-.5v-.9c0-.4.1-.7.2-1.1.1-.4.2-.7.2-1.1v-1.1c0-.2 0-.4.1-.7 0-.2.1-.4.2-.7.1-.2.1-.4.1-.7v-.7c0-.1 0-.2-.1-.3-.1-.1-.2-.2-.3-.4.2-.2.6-.4 1.2-.5s1.1-.1 1.6 0c.3.4.5.8.6 1.3s.2 1 .3 1.6c.1.5.2 1 .3 1.6.1.6.2 1.1.2 1.7v1.1c0 .3.1.6.2.9.1.3.2.6.2.9v1.3c0 .2 0 .4.1.5.1.2.1.4.1.5v.7c0 .2.1.4.2.5.1.2.2.4.2.5.1.5.2.9.2 1.4s.1 1 .2 1.4l.3.9c.1.3.1.6.1.7v2c0 .2.1.3.2.4.1.1.1.3 0 .4-.3 0-.6 0-.7-.2-.2-.2-.3-.4-.4-.6-.1-.3-.2-.5-.2-.8l-.1-.9-.2-.5c0-.1-.1-.3-.2-.5 0-.1 0-.2.1-.4s.1-.3.1-.5c0-.3-.1-.5-.2-.7-.1-.2-.2-.4-.2-.6-.1-.4-.2-.9-.2-1.4s-.1-1-.2-1.5l-.1-.3c-.1-.1-.1-.3-.1-.4l-.1-.3-.1-.1s-.2-.1-.4-.1h-.6c-.2 0-.5 0-.7.1-.2.1-.4.1-.5.2-.1 0-.2.2-.2.3l-.1.6v.8c0 .3 0 .5-.1.7 0 .1 0 .2-.1.4-.1.1-.1.3-.1.3v.7c0 .5-.1 1-.3 1.5-.2.5-.3 1.1-.4 1.6 0 .1-.1.4-.2.6-.1.3-.2.6-.2.8l-.3.8c-.1.2-.2.4-.4.4s-.3-.1-.4-.3c-.3.2-.4 0-.5-.2zm9-20.2c.2-.1.4-.2.6-.2h1.8c.4 0 .7.1 1 .2.1 0 .2 0 .4.1l.3.1.3.2h.2c.3.1.5.2.6.4l.3.5c.1.2.1.4.2.7 0 .3.1.5.2.8 0 .3.1.6.2.9.1.3.2.6.2.9v1.5l.1 1.5c0 .5 0 1-.1 1.4-.1.4-.2.8-.4 1.1-.2.3-.4.6-.6.8-.2.1-.4.2-.5.3-.2.1-.2.2-.2.3v.4l.3.4c.1.1.2.3.4.4.1.1.2.2.2.3.1.2.2.3.2.5s.1.4.2.5l.3.8c.1.2.2.5.2.9.3.3.5.6.6 1.1l.3 1.3c.1.2.2.4.4.6.2.2.3.4.3.5v.6c0 .3 0 .6.1.9.1.3 0 .6-.1.9-.2.2-.4.2-.7.1-.3-.1-.5-.2-.7-.3.1-.3.1-.5.1-.7 0-.2-.1-.4-.2-.6l-.3-.5c-.1-.1-.2-.3-.2-.4v-.5c0-.1 0-.2-.1-.4s-.1-.3-.2-.4v-.5l-.3-.6-.4-.5-.4-.5c-.1-.2-.3-.4-.3-.6-.1-.2-.2-.5-.2-.7 0-.3-.1-.5-.1-.7 0-.2-.1-.5-.2-.7-.1-.2-.2-.4-.4-.6-.1.6-.2 1.2-.2 1.8s.1 1.2.2 1.7l.2 1.8v1.9c0 .2 0 .4-.1.6-.1.3-.1.5-.1.6-.1.2-.3.3-.6.4-.3.1-.5 0-.6-.2-.1-.3-.1-.6-.1-.9l.1-.9c-.1-.1-.1-.2-.1-.3v-.3c-.1-.5-.2-1.1-.2-1.6v-1.6c-.1-.2-.2-.4-.2-.5-.1-.2-.1-.4-.1-.5v-1.3c0-.1 0-.2-.1-.3-.1-.2-.1-.3-.1-.4-.1-.5-.1-.9-.1-1.4 0-.4.1-.9.1-1.4 0-.1 0-.2-.1-.4s-.1-.3-.1-.4c-.1-.2-.1-.3-.1-.5 0-.1.1-.3.1-.5 0-.1 0-.2-.1-.4l-.1-.3c0-.2-.1-.4 0-.6 0-.2 0-.4.1-.6l.1-.6c0-.2 0-.4-.1-.6 0-.1 0-.2-.1-.4-.2-.4-.3-.6-.3-.8v-1.3c-.1-.2-.1-.4-.1-.5v-.8c0-.3 0-.6-.2-1 0-.1 0-.1-.1 0-.1 0-.2.1-.3 0zm11 .6c0-.1 0-.2.1-.2l.1-.1c.5-.2.8-.1 1.1.1.2.3.4.6.4 1.1 0 .3 0 .6.1.9 0 .3 0 .6-.1.9 0 .1 0 .2-.1.3-.1.1-.2.3-.3.6 0 .4 0 .8.1 1.2.1.4.1.9.1 1.5v2.6c0 .1 0 .2.1.4.1.1.1.3.1.4.1.7.1 1.3 0 1.9-.1.6-.1 1.1 0 1.6 0 .1 0 .2.1.4l.1.4v2.1c0 .1 0 .2.1.3.1.1.1.2.1.4v.7c0 .2 0 .4.1.5.1.2.1.3.1.5s0 .4-.1.7l-.3.6c-.1.2-.3.3-.4.3-.2.1-.4 0-.6-.1-.2-.1-.3-.3-.4-.5-.1-.2-.1-.4-.1-.7v-1.4c0-.2 0-.4-.1-.6-.1-.3-.1-.5-.1-.8-.1-.5-.1-1.1-.1-1.7l.1-1.7c0-.4 0-.7-.1-1-.1-.3-.1-.5-.1-.8v-1.4c0-.1 0-.2-.1-.4s-.1-.3-.1-.5c0-.4-.1-.8 0-1.3v-4.4l-.1-.9c-.1-.3-.1-.7-.1-1s0-.5.1-.7c0-.2.1-.3.3-.2zm9.2-.2c-.1.3-.1.5-.1.8.1.3.1.5.1.6-.2.2-.5.4-.7.4-.3.1-.5.1-.8.1h-.9l-.9.1c-.3.1-.6.3-.7.8s-.2.9-.1 1.5l.3 1.5c.2.5.4.8.7.9.2.1.5.2.7.2h.8l.9-.1c.3 0 .6 0 .9.1.3.2.5.4.7.8.2.3.3.7.4 1.2.1.5.1.9.1 1.5v1.6c0 .7 0 1.4.1 2.1 0 .7 0 1.4-.1 1.9 0 .2 0 .3-.1.4-.1.1-.1.3-.1.5s0 .4.1.7c0 .3 0 .5-.1.7 0 .1 0 .2-.1.3l-.3.4c-.2.4-.4.8-.6 1-.3.2-.7.4-1.3.4h-1.6c-.6 0-1.1 0-1.5-.2 0-.3-.1-.5-.2-.7-.1-.2-.2-.4-.3-.7.4-.1.8-.1 1.1 0 .4.1.7.2 1 .3s.7.1 1 .1.6-.1.9-.4l.3-.2.2-.2.1-.1v-1.4c0-.2 0-.4-.1-.6-.1-.2 0-.5.1-.8 0-.2 0-.3.1-.5.1-.1.1-.3.1-.4v-3.3l-.3-.8c-.1-.2-.2-.4-.2-.6-.1-.2-.2-.4-.2-.7 0-.3-.1-.5-.2-.5-.2-.1-.4-.1-.7-.1-.3 0-.5-.1-.5-.2-.1 0-.3.1-.4 0-.1 0-.2 0-.3-.1-.1 0-.2-.1-.4-.1-.1 0-.3-.1-.5-.1-.2-.1-.4-.1-.6-.1h-.5c-.3-.2-.4-.5-.5-1l-.1-1.5-.1-.6-.1-.6v-2.2c-.1-.3 0-.5.1-.7.1-.2.3-.4.5-.5.2-.2.5-.3.7-.4.3-.1.6-.2 1-.3.3-.1.5-.2.7-.2.3-.1.6-.1.9-.1s.5-.1.7-.2c.2 0 .3 0 .4.1.1 0 .3.1.5.2zm3.1 19.8v-.2c.2-.6.4-1.3.5-1.8.2-.6.3-1.2.4-2v-1.6c0-.3 0-.5.1-.8.1-.3.1-.6.1-1 0-.3 0-.6-.1-.9-.1-.3 0-.6.1-.9 0-.2 0-.3.1-.4.1-.1.1-.2.1-.3v-.7c.1-.2.2-.4.3-.5.1-.2.1-.4.1-.5v-.9c0-.4.1-.7.2-1.1.1-.4.2-.7.2-1.1v-1.1c0-.2 0-.4.1-.7 0-.2.1-.4.2-.7-.1-.2 0-.4 0-.7v-.7c0-.1 0-.2-.1-.3-.1-.1-.2-.2-.3-.4.3-.3.7-.5 1.3-.6.6-.1 1.1-.1 1.6 0 .3.4.5.8.6 1.3.1.5.2 1 .3 1.6.1.5.2 1 .3 1.6.1.6.2 1.1.2 1.7v1.1c0 .3.1.6.2.9.1.3.2.6.2.9v1.3c0 .2 0 .4.1.5.1.2.1.4.1.5v.8c0 .2.1.4.2.5.1.2.2.4.2.5.1.5.2.9.2 1.4s.1 1 .2 1.4l.3.9c.1.3.1.6.1.7v2c0 .2.1.3.2.4.1.1.1.3 0 .4-.3 0-.6 0-.7-.2-.2-.2-.3-.4-.4-.6-.1-.3-.2-.5-.2-.8l-.1-.9-.2-.5c0-.1-.1-.3-.2-.5 0-.1 0-.2.1-.4s.1-.3.1-.5c0-.3-.1-.5-.2-.7-.1-.2-.2-.4-.2-.6-.1-.4-.2-.9-.2-1.4s-.1-1-.2-1.5l-.1-.3c-.1-.1-.1-.3-.1-.4l-.1-.3-.1-.1s-.2-.1-.4-.1h-.6c-.2 0-.5 0-.7.1s-.4.1-.5.2c-.1 0-.2.2-.2.3l-.1.6v.8c0 .3 0 .5-.1.7 0 .1 0 .2-.1.4-.1.1-.1.3-.1.3v.7c0 .5-.1 1-.3 1.5s-.3 1.1-.4 1.6c0 .1-.1.4-.2.6-.1.3-.2.6-.2.8l-.3.8c-.1.2-.2.4-.4.4s-.3-.1-.4-.3c-.3.2-.4 0-.5-.2zm15.9-10.2c.3.1.7.2 1 .4.3.2.6.4.9.7.2.1.4.2.5.4.2.2.3.3.4.3.1.1.2.2.4.2s.3.1.4.2c.2.1.4.3.5.6.1.2.1.5.1.8 0 .3 0 .6-.1.9s-.1.6-.2 1c-.1.6-.1 1.1-.1 1.5 0 .5-.1.9-.3 1.2-.1.2-.2.4-.4.5-.1.1-.3.3-.4.5-.4.5-.8.9-1.3 1.2-.5.3-1.1.6-1.8.8h-.9c-.3 0-.6-.1-.7-.3-.1-.4-.1-.7-.1-1 .1-.3.1-.6.1-1-.1-.3-.2-.6-.3-.8-.1-.3-.1-.5-.1-.8-.1-.5-.1-1.1 0-1.5.1-.5.1-.9 0-1.4 0-.3 0-.5-.1-.7l-.3-.6c0-.3 0-.7.1-1 .1-.3.1-.6.1-1s-.1-.8-.2-1.2-.2-.9-.2-1.3c-.1-.6-.2-1.3-.2-1.8v-4.2c0-.4 0-.8-.1-1.1-.1-.4-.1-.7-.3-1 .4-.1.7-.1 1.1-.1.4.1.7.1 1.1.1.3 0 .6 0 .8-.1.3-.1.5 0 .8.1.1 0 .2 0 .3.1l.4.3c.1.1.2.2.3.4.1.1.2.2.2.3.2.3.3.6.5.8.2.3.3.5.4.8 0 .1 0 .2.1.4s.1.3.1.4c0 .5 0 1-.1 1.5s-.1 1-.1 1.2c0 .2 0 .3-.1.4s-.1.2-.1.3v.8c-.1.2-.2.3-.4.5l-.4.6c-.2.2-.7.5-1.3.7zm6.4-9.4c0-.1 0-.2.1-.2 0 0 0-.1.1-.1.5-.2.8-.1 1.1.1.2.3.4.6.4 1.1 0 .3 0 .6.1.9 0 .3 0 .6-.1.9 0 .1 0 .2-.1.3s-.2.3-.3.6c0 .4 0 .8.1 1.2.1.4.1.9.1 1.5v2.6c0 .1 0 .2.1.4.1.1.1.3.1.4.1.7.1 1.3 0 1.9-.1.6-.1 1.1 0 1.6 0 .1 0 .2.1.4l.1.4v2.1c0 .1 0 .2.1.3.1.1.1.2.1.4v.7c0 .2 0 .4.1.5.1.2.1.3.1.5s0 .4-.1.7l-.3.6c-.1.2-.3.3-.4.3-.2.1-.4 0-.6-.1-.2-.1-.3-.3-.4-.5-.1-.2-.1-.4-.1-.7v-1.4c0-.2 0-.4-.1-.6-.1-.3-.1-.5-.1-.8-.1-.9-.1-1.4-.1-2l.1-1.7c0-.4 0-.7-.1-1-.1-.3-.1-.5-.1-.8v-1.4c0-.1 0-.2-.1-.4s-.1-.3-.1-.5c0-.4-.1-.8 0-1.3v-4.4l-.1-.9c-.1-.3-.1-.7-.1-1 0-.3 0-.5.1-.7l.3.1zm12.9-.7c.1.3.1.5.1.7-.1.2-.1.5-.1.9l-.3 1.4c-.1.5-.2.9-.2 1.3-.1.3-.1.6-.1.9 0 .3 0 .6-.1 1 0 .3 0 .6-.1.8-.1.3-.1.5-.1.7v1.3c0 .2 0 .4-.1.6-.1.2-.1.5-.1.7v1.7l-.3 1.5-.3 1.4c0 .3 0 .6-.1.8v.8c0 .3 0 .7.1 1.1s0 .7-.1 1.1c0 .6-.1 1-.2 1.4-.2.4-.4.8-.7 1.1 0-.3-.1-.5-.2-.6-.1-.1-.2-.3-.3-.5v-.6c0-.2-.1-.4-.2-.7-.2-.8-.4-1.7-.6-2.6-.3-.9-.5-1.8-.6-2.7-.2-.7-.3-1.4-.5-2.2-.1-.7-.3-1.5-.5-2.2l-.3-1c-.1-.4-.2-.7-.3-1-.2-.4-.3-.7-.4-1.1s-.2-.7-.3-1c-.1-.4-.2-.7-.4-1-.1-.3-.3-.6-.4-1-.1-.2-.1-.4-.2-.7l-.3-.8c-.1-.3-.2-.5-.4-.7-.2-.2-.3-.4-.3-.7.5 0 1 0 1.5.1l1.5.2c0 .4.1.7.2 1 .1.3.2.6.3 1 0 .3 0 .6-.1.8-.1.3 0 .5.1.8 0 .1 0 .2.1.3.1.1.1.2.1.3v.7c0 .2.1.4.2.7 0 .1.1.2.2.4v.6c.1.1.2.2.2.4v.4c.2.5.4 1.1.5 1.6.2.5.3 1 .4 1.5.1.7.1 1.5.1 2.2s.1 1.5.2 2.3c.2-.3.3-.7.3-1 0-.4.1-.7 0-1.1v-2.4c0-.1 0-.2.1-.4.1-.1.1-.3.1-.4.1-.1.1-.2.1-.3-.1-.1-.1-.2-.1-.3 0-.3.1-.5.2-.7.1-.2.2-.4.2-.5.1-.2.1-.4.1-.7 0-.2-.1-.5-.1-.6s0-.2.1-.4l.1-.5v-1.5c0-.5.1-1 .2-1.5.2-.6.3-1.1.3-1.6v-1.3c.1-.1.2-.1.4-.2.2 0 .4-.1.5-.1h.5c.2 0 .3.1.4.1zm2.5.7c0-.1 0-.2.1-.2 0 0 0-.1.1-.1.5-.2.8-.1 1.1.1.2.3.4.6.4 1.1 0 .3 0 .6.1.9 0 .3 0 .6-.1.9 0 .1 0 .2-.1.3-.1.1-.2.3-.3.6 0 .4 0 .8.1 1.2s.1.9.1 1.5v2.6c0 .1 0 .2.1.4.1.1.1.3.1.4.1.7.1 1.3 0 1.9-.1.6-.1 1.1 0 1.6 0 .1 0 .2.1.4l.1.4v2.1c0 .1 0 .2.1.3s.1.2.1.4v.7c0 .2 0 .4.1.5.1.2.1.3.1.5s0 .4-.1.7l-.3.6c-.1.2-.3.3-.4.3-.2.1-.4 0-.6-.1s-.3-.3-.4-.5c-.1-.2-.1-.4-.1-.7v-1.4c0-.2 0-.4-.1-.6-.1-.3-.1-.5-.1-.8-.1-.5-.1-1.1-.1-1.7l.1-1.7c0-.4 0-.7-.1-1-.1-.3-.1-.5-.1-.8v-1.4c0-.1 0-.2-.1-.4s-.1-.3-.1-.5c0-.4-.1-.8 0-1.3v-4.4l-.1-.9c-.1-.3-.1-.7-.1-1s0-.5.1-.7c0-.2.2-.3.3-.2z"/><path class="st0" d="M-210.3 408h-.3c-.1-.3-.2-.6-.4-.8s-.4-.3-.7-.3c-.4 0-.8.2-1 .7s-.4 1-.4 1.6c0 1.2.2 2 .6 2.5s1.1.8 1.9.8v-2.5h-.9v-.3h1.2v3.1c-.9 0-1.5-.1-1.9-.4-.2-.1-.3-.2-.5-.4s-.3-.4-.4-.7c-.2-.6-.3-1.3-.3-2.2 0-.4.1-.8.2-1.2.1-.3.3-.6.4-.8.4-.4.7-.6 1.1-.6.4 0 .7.1 1 .4.3.5.4.8.4 1.1zm4.4 4.9h-.4l-1.7-2.7-.7.1v2.6h-.3v-6.3c2 0 3 .6 3 1.8 0 1-.5 1.5-1.6 1.8l1.7 2.7zm-2.9-3c1.6 0 2.3-.5 2.3-1.5 0-.3-.1-.5-.2-.7l-.4-.4c-.4-.2-1-.4-1.7-.4v3zm6.9-2.8v5.8h-.3v-3h-2.5v3h-.3v-4.1c0-.6.2-1.2.6-1.6s.9-.6 1.5-.6c.4 0 .8.2 1 .5zm-.3 2.5v-2.4c-.2-.2-.4-.3-.7-.3-.5 0-1 .2-1.3.6-.3.4-.5.8-.5 1.3v.8h2.5zm2 .6v2.7h-.3v-6.3c1 0 1.8.2 2.4.5.6.3.8.8.8 1.3 0 .7-.3 1.1-.8 1.4-.2.1-.3.2-.5.2-.1 0-.3.1-.6.1-.3.1-.6.1-1 .1zm0-.3c1.7 0 2.5-.5 2.5-1.5 0-.4-.2-.7-.5-1-.2-.2-.4-.3-.8-.4-.3-.1-.8-.1-1.3-.2l.1 3.1zm6.9 3h-.3v-3h-2.5v3h-.3v-6.3h.3v3h2.5v-3h.3v6.3zm1.7 0h-.3v-6.3h.3v6.3zm4.4-4.9h-.3c-.1-.3-.2-.6-.4-.8-.2-.2-.4-.3-.7-.3-.4 0-.8.2-1 .7s-.4 1-.4 1.6c0 1.6.4 2.7 1.3 3.1.4.2.9.3 1.6.3v.3c-.9 0-1.5-.1-1.9-.4-.2-.1-.3-.2-.5-.4s-.3-.4-.4-.7c-.2-.6-.3-1.3-.3-2.2 0-.4.1-.8.2-1.2.1-.3.3-.6.4-.8.4-.4.7-.6 1.1-.6s.7.1 1 .4c.1.4.3.7.3 1zm5.9 1.9c0 .4-.1.8-.2 1.2-.1.4-.3.7-.4.9-.2.2-.4.4-.7.5-.5.3-1.1.4-1.9.4v-6.3c.8 0 1.5.1 1.9.4.4.2.7.5.9 1 .3.4.4 1.1.4 1.9zm-.3-.1c0-1.9-.8-2.8-2.5-2.8v5.6c1 0 1.6-.3 2-.8.3-.5.5-1.2.5-2zm1.4 3.1v-6.3h3.2v.3h-2.9v2.3h2.9v.3h-2.9v3h2.9v.3h-3.2v.1zm6.4-1c.3-.2.4-.5.4-.9s-.1-.6-.3-.8c-.2-.2-.4-.3-.7-.4-.3-.1-.6-.2-.8-.3-.3-.1-.5-.3-.7-.5-.2-.2-.3-.5-.3-.8 0-.6.2-1 .5-1.3.3-.3.7-.4 1.1-.4s.9 0 1.4.1v.3c-.5-.1-.9-.1-1.3-.1s-.7.1-1 .3c-.3.2-.4.5-.4 1 0 .4.2.6.6.8.2.1.4.2.6.2.2.1.4.2.6.2l.6.3c.2.1.3.3.4.5.1.2.2.5.2.8 0 .3-.1.5-.2.8-.1.2-.3.4-.5.5-.2.1-.4.2-.7.3-.4.1-.9.2-1.4.2h-.2v-.3c.8.2 1.6 0 2.1-.5zm2 1h-.3v-6.3h.3v6.3zm4.4-4.9h-.3c-.1-.3-.2-.6-.4-.8-.2-.2-.4-.3-.7-.3-.4 0-.8.2-1 .7s-.4 1-.4 1.6c0 1.2.2 2 .6 2.5s1.1.8 1.9.8v-2.5h-.9v-.3h1.2v3.1c-.9 0-1.5-.1-1.9-.4-.2-.1-.3-.2-.5-.4s-.3-.4-.4-.7c-.2-.6-.3-1.3-.3-2.2 0-.4.1-.8.2-1.2.1-.3.3-.6.4-.8.4-.4.7-.6 1.1-.6s.7.1 1 .4c.2.5.4.8.4 1.1zm1.5-.8v5.7h-.3v-6.3h.5l2.4 5.5v-5.5h.3v6.3h-.3l-2.6-5.7zm4.2 5.7v-6.3h3.2v.3h-2.9v2.3h2.9v.3h-2.9v3h2.9v.3h-3.2v.1zm7.5 0h-.4l-1.7-2.7-.7.1v2.6h-.3v-6.3c2 0 3 .6 3 1.8 0 1-.5 1.5-1.6 1.8l1.7 2.7zm-2.8-3c1.6 0 2.3-.5 2.3-1.5 0-.3-.1-.5-.2-.7l-.4-.4c-.4-.2-1-.4-1.7-.4v3z"/><path d="M-223.5 410c0-.1.1-.1 0 0zm2.7-1.6c-.1 0-.3.1-.5.1 0 .1-.1.1-.1.1v-.2.1s-.1 0 0-.1h-.2s0 .1-.1.1v-.1c-.1-.1-.1.2-.2.2h-.1c0 .1 0-.1.1 0v.1h-.1l-.1-.1s0 .1-.1.1v-.2.1s0 .1-.1 0v-.1h-.2v.1s0 .1-.1 0v-.1s0 .1-.1.1c0 .1-.1 0-.1 0v.2c0-.1-.1.1-.1.1 0-.1 0-.2.1-.2v.2-.1s0 .1-.1.1c0 0-.1 0-.1-.1v-.1h-.1v.1l-.1-.1v.1s0-.1-.1 0v-.1h-.1c0 .1 0-.1.1 0v.1h-.1c-.1 0-.1.1-.1.1v-.1h-.1v-.1h-.2c-.1 0-.1.1-.1.2v-.1s-.1-.1 0-.1v.1h-.1v.1h-.1v-.1h-.1s-.1 0 0 .1v-.1.1h-.1v-.4.1c0-.1-.1-.1-.1 0v.1l-.2.2-.1.1c0-.1 0-.2-.1-.2v.1s-.1-.1-.1 0v-.1.1s0 .1-.1.1h-.1v.1c0-.1-.1-.1-.1-.1v-.1c0 .1-.1.1-.1.1l-.1-.1-.1.1v-.1c0-.1-.1-.1-.1-.1v.2l-.1.1v-.2s-.1.2 0 .2v.2-.1l-.1-.1v-.2s0-.1.1-.1v-.1s0 .1-.1.1v-.1.1.1s0 .1-.1.1c0 .1-.1.1 0 .2v-.4.1.1s-.1 0-.1.1c0 0 .1.1 0 .1v.2-.1-.1h-.1v.1c0-.1-.1-.1-.2 0v.1s-.1-.1 0-.1v-.1l-.1.1v-.1l-.1.2c-.1 0 0-.1 0-.1 0-.1.1.1 0 .1 0-.1-.1 0-.1 0l.1.1v-.2.1.1.1.1c.1.1.1-.1.1-.1v.3-.1h.1v.1s.1-.1.1 0l.1-.1c-.1.1.1.1 0 .1 0 0 0-.1.1-.1v.4-.1-.1h.1v-.1c.1 0 0 .1 0 .1v-.1c.1.1.1-.1.1 0v.1s.1 0 .1-.1c0 .1 0 .1.1.1v-.1h.1v-.1c.1.1.1-.1.1 0v.1h.1s0-.1.1 0v.1-.1s0 .1.1 0v-.1h.1v.1h.1v.1h.3v.3-.1l.1.1v-.1c.1-.2.2.1.3 0v.2-.1s0-.1.1-.1v.1c.1 0 .1-.1.2 0h.1v.1h.1v-.1c0 .1.1 0 .1 0l.1-.1.1-.1.1.1v-.2.1s.1 0 .1.1c.1 0 .1.2.2.1l.1-.1h.2c.1-.1.1 0 .1 0h.1s0-.1.1-.1v.1s0-.1.1 0h.2s.1 0 .1.1l.2-.1v.1-.1l.3.1v.1-.1l.3.1.1-.1c.1 0 .2-.1.2 0v.1h.1c0-.1.1 0 .1 0v-.1.1s.1 0 .1-.1v.1h.1c0-.1 0-.1.1-.1v.1-.1s.1-.1.1 0c0 0 0 .1.1.1v-.1.1h.1c0-.1.1.1.1-.1v.2-.1-.1c.1.1.3 0 .5.2.1 0 .2-.1.2-.1h.1l.2-.3c.1.1.2.1.3.1h.1c.1 0 .1-.1.2-.2v.1-.1s.1 0 0 .1v-.1.1s.1 0 .2.1c.1-.1.3-.1.4 0l.1-.1v.1l.1-.1h.1s.1 0 .1.1c0-.1.1 0 .1 0s1.7.3 2.2-.4c0-.1.1-.1 0-.2 0 0 0 .1.1 0v-.3.1s0 .2-.1.1v-.3.1c0-.1-.1.1-.1-.1v-.1h-.1s-.1 0-.1-.1l-.1.1v-.1h-.1v-.1c-.2-.1-.2-.3-.4-.3v-.1c0 .4 0 .1-.1.2v.1c-.1-.2-.3-.1-.4-.1 0 0 0 .1-.1.1v-.1.1l-.5-.2c-.3 0-.5-.1-.8 0v.1c-.1-.2-.1 0-.2-.1h-.4v-.1h-.1v.2l-.1-.1s-.1.1-.2 0c0-.1-.1-.1-.1-.1h-.3v.1c0-.1-.1 0-.1 0v.1-.1l-.3.1-.1-.1c-.1 0 0 .1 0 .2v-.1h-.2v.1c-.1.1-.1-.1-.1 0v-.1s0 .1-.1 0v-.1s-.1 0-.1.1l-.1-.1v.1c-.2-.2-.3-.2-.4-.3zm73.8 2c.1 0 .3-.1.5-.1 0-.1.1-.1.1-.1v.2-.1s.1 0 0 .1h.2s0-.1.1-.1v.1c.1.1.1-.2.2-.2h.1c0-.1 0 .1-.1 0v-.1h.1l.1.1s0-.1.1-.1v.2-.1s0-.1.1 0v.1h.2v-.1s0-.1.1 0v.1s0-.1.1-.1c0-.1.1 0 .1 0v-.2c0 .1.1-.1.1-.1 0 .1 0 .2-.1.2v-.2.1s0-.1.1-.1c0 0 .1 0 .1.1v.1h.1v-.1l.1.1v-.1s0 .1.1 0v.1h.1c0-.1 0 .1-.1 0v-.1h.1c.1 0 .1-.1.1-.1v.1h.1v.1h.2c.1 0 .1-.1.1-.2v.1s.1.1 0 .1v-.1h.1v-.1h.1v.1h.1s.1 0 0-.1v.1-.1h.1v.4-.1c0 .1.1.1.1 0v-.1l.2-.2.1-.1c0 .1 0 .2.1.2v-.1s.1.1.1 0v.1-.1s0-.1.1-.1h.1v-.1c0 .1.1.1.1.1v.1c0-.1.1-.1.1-.1l.1.1.1-.1v.1c0 .1.1.1.1.1v-.2l.1-.1v.2s.1-.2 0-.2v-.2.1l.1.1v.2s0 .1-.1.1v.1s0-.1.1-.1v.1-.1-.1s0-.1.1-.1c0-.1.1-.1 0-.2v.4-.1-.1s.1 0 .1-.1c0 0-.1-.1 0-.1v-.2.1.1h.1v-.1c0 .1.1.1.2 0v-.1s.1.1 0 .1v.1l.1-.1v.1l.1-.2c.1 0 0 .1 0 .1 0 .1-.1-.1 0-.1 0 .1.1 0 .1 0l-.1-.1v.2-.1-.1-.1-.1c-.1-.1-.1.1-.1.1v-.3.1h-.1v-.1s-.1.1-.1 0l-.1.1c.1-.1-.1-.1 0-.1 0 0 0 .1-.1.1v-.4.1.1h-.1v.1c-.1 0 0-.1 0-.1v.1c-.1-.1-.1.1-.1 0v-.1s-.1 0-.1.1c0-.1 0-.1-.1-.1v.1h-.1v.1c-.1-.1-.1.1-.1 0v-.1h-.1s0 .1-.1 0v-.1.1s0-.1-.1 0v.1h-.1v-.1h-.1v-.1h-.3v-.3.1l-.1-.1v.1c-.1.2-.2-.1-.3 0v-.2.1s0 .1-.1.1v-.1c-.1 0-.1.1-.2 0h-.1v-.1h-.1v.1c0-.1-.1 0-.1 0l-.1.1-.1.1-.1-.1v.2-.1s-.1 0-.1-.1c-.1 0-.1-.2-.2-.1l-.5.2h-.2c-.1.1-.1 0-.1 0h-.1s0 .1-.1.1v-.1s0 .1-.1 0h-.2s-.1 0-.1-.1l-.2.1v-.1.1l-.3-.1v-.1.1l-.3-.1-.1.1c-.1 0-.2.1-.2 0v-.1h-.1c0 .1-.1 0-.1 0v.1-.1s-.1 0-.1.1v-.1h-.1c0 .1 0 .1-.1.1v-.1.1s-.1.1-.1 0c0 0 0-.1-.1-.1v.1-.1h-.1c0 .1-.1-.1-.1.1v-.2.1.1c-.1-.1-.3 0-.5-.2-.1 0-.2.1-.2.1h-.1l.1.1c-.1-.1-.2-.1-.3-.1h-.1c-.1 0-.1.1-.2.2v-.1.1s-.1 0 0-.1v.1-.1s-.1 0-.2-.1c-.1.1-.3.1-.4 0l-.1.1v-.1l-.1.1h-.1s-.1 0-.1-.1c0 .1-.1 0-.1 0s-1.7-.3-2.2.4c0 .1-.1.1 0 .2 0 0 0-.1-.1 0v.3-.1s0-.2.1-.1v.3-.1c0 .1.1-.1.1.1v.1h.1s.1 0 .1.1l.1-.1v.1h.1v.1c.2.1.2.3.4.3v.1c.1-.1.1.1.2.1v-.1c.1.2.3.1.4.1 0 0 0-.1.1-.1v.1-.1l.5.2c.3 0 .5.1.8 0v-.1c.1.2.1 0 .2.1h.4v.1h.1v-.2l.1.1s.1-.1.2 0c0 .1.1.1.1.1h.3v-.1c0 .1.1 0 .1 0v-.1.1l.3-.1.1.1c.1 0 0-.1 0-.2v.1h.2v-.1c.1-.1.1.1.1 0v.1s0-.1.1 0v.1s.1 0 .1-.1l.1.1v-.1c.2 0 .2 0 .4.1-.1-.1-.1 0 0 0-.1-.1-.1 0 0 0zm-92.4-19.9zm-5.1 5.3c0-.1-.3.1-.4.2.2 0 .4 0 .7-.2l-.4.4c0 .4.5-.4.3 0-.3.2-.5.4-.4.2.1 0 .2-.1.3-.2-.1-.1-.4 0-.6.1l.7-.6-.2.1zm15.6-12.2v.6c0 .2 0 .4-.1.6v-.6c.1-.1.1-.3.1-.6z"/><path class="st1" d="M-230.7 384.2l.3-.1m.1 3l.3-.4"/><path d="M-238.8 404.9l-.6-.6.6.6zm9.9-3.6c.2-.6.2-1.3.1-1.6-.1-.5-.2-.9-.2-1.4.1-1.2.2-2.4.1-3.5l.1-2.1v-4.8c-.1-1-.2-1.8-.2-2.7v-1.7.2c.1-1 .2-2 .2-2.9l-.4.2c-.5.7-.1.5.3 0l-1.9 1.9c.1-.1.2-.2.2-.3.2-.3.4-.5.6-.6.2-.4.2-.4 0-.3-.3.4-.8.8-1.2 1.2v-.4l-.4.6c-.2.1 0-.2-.1-.2-.4.5-.8.9-1.1 1.2-.1 0-.2.1-.6.5v.1l-.8.7c-.4.4-.9.7-1.3 1 0 .1-.1.2-.2.2-.1.1-.3.2-.3.2-.2.1-.3.2-.5.2-.2.8-1.1 1.2-1.6 1.9l-1.2 1.5-.1.1c-.2.2-.4.4-.7.6-1.1.8-1.8 1.6-2.3 2.5l-.1.2-.4.7h-.1l-.6 1.2-.4.3c.1.1.2 0 .3-.1-.1.3-.3.6-.4.8.2.1.4.2.7.3l-.4.4 1.3 1.3-1.2-.6c-.3.5-.7 1.2.5 2.6l.6.6c.1.4.4.7.6 1.1.6.3 1.3.8 2 1.4l.1.2c.1.1.3.2.5.3l.6.6c.8 1 1.7 1.9 2.5 2.8l.7.7c.4.4.8.8 1.2 1.1l2.3 2.2c1.2 1.2 2.5 2.4 3.6 3.3-.1-1.7-.2-3.3-.3-4.8v-.1c.1-.1.2-.2.3-.5s.2-.7.2-1.3c0-.8 0-1.7.1-2.6v-1.7c-.2-1.1-.4-2.1-.7-2.7zm-14.2-6.7c-.1 0-.2.1-.2 0h.2zm14.2-10v.2c-.1 0 0-.1 0-.2zm0-.3v.2-.2zm92.5 1.7l-.1-.2.1.2zm4.4 6.2h-.1.1zm0 0h-.1.1zm-4.4-6.3l-.1-.1c0 .1 0 .1.1.1zm0 0l-.1-.1c0 .1 0 .1.1.1z"/><path class="st1" d="M-138.5 384.4l-.5-.6"/><path d="M-135.9 385.4s-.1-.3-.2-.5 0-.2.5.4c-.4-.4-.9-.9-.5-.8-.3-.3-.3-.3-.4-.2 0 .1 0 .2-.2.1.2.1.3.3.4.4.2.2.3.4.4.6zm-1.4-1.6c-.3-.3-.7-.8-.8-.9.2.2.3.4.4.5l.4.4zm-.3-1l.5.7s-.1-.1-.1-.3c-.1-.1-.1-.3-.1-.3l-.3-.1zm-1.9-2l1.2 1.2-1.2-1.3c-.6-.4-.2.1.3.7-.2-.3-.3-.5-.3-.6zm1.3 1.9l.3.2c0-.1-.5-.6-1-1.1.4.4.7.7.7.9zm-.6-.9l-.4-.5c.1.1.2.3.4.5zm-1.8-2.5l-.2-.2.1.4c.3.4.1-.1.1-.2zm-1.1-.1c-.1.1-.1.5 0 1 0 .4.1.9.1 1.1.2-.4.1-1.1.2-1.8-.1.6-.2-.1-.3-.3zm-.3 2v-1.8c-.1 0-.1.2-.1.6.1.4.1.8.1 1.2zm.1 3.1c0 .2.1.1.1.5.1-.2.1-.8.1-1.2 0 0 0 .2-.1.4 0 .1-.1.3-.1.3zm5.5 1.7l-.1-.2.1.2zm11.4 11.4l-5.5-5.5c-.1-.3-.5-.6-.6-1l-.2.2-1-1c-.3-.5-.8-1.1-1.3-1.8l-1.3-1.5-1.5-1.5c-.2-.2-.3-.2-.4-.3-.1 0-.3-.1-.4-.2-.1-.2-.3-.4-.4-.7-.3-.3-.8-.7-.9-1-.4-.6-1-1.3-1.6-1.9v2.7c0 .9 0 1.8-.1 2.5 0 .3 0 .7-.1 1.1v1c0 .6 0 1.2-.1 1.9-.2 1.1-.1 2.9-.1 4.5l.1.6c0 .6-.1 1.5-.1 1.7l.2 6.1.1 2.5v2.7c0 1 0 2 .1 2.9v.6c-.1.2-.1.4-.1.4.1.2.1.5.2.4v1.2c.2-.2.3-.4.5-.7.2-.1 0 .2.1.1.4-.5.9-1 1.3-1.4.1 0 .3-.2.7-.6v-.1l1-.9c.3-.2.5-.4.8-.7l.4-.3c.1-.1.2-.2.3-.2.4-.3.8-.5 1.1-.6.3-.9 1.3-1.5 2-2.3.8-.9 1.6-2.1 2.4-2.6 1.2-.9 2.1-1.9 2.7-2.9.1-.1.1-.2.2-.2.7-1.1 1.3-2.2 1.9-3.2-.2.1-.3 0-.4 0zm-11.6-11.6l.1.1v.1c0-.1 0-.1-.1-.2zm10 14.9s0 .1-.1.1l-.1.1c.1 0 .2-.1.2-.2z"/></svg>