<?xml version="1.0" encoding="utf-8"?>
<!-- Generator: Adobe Illustrator 19.1.0, SVG Export Plug-In . SVG Version: 6.00 Build 0)  -->
<!DOCTYPE svg PUBLIC "-//W3C//DTD SVG 1.1//EN" "http://www.w3.org/Graphics/SVG/1.1/DTD/svg11.dtd">
<svg version="1.1" id="Layer_1" xmlns="http://www.w3.org/2000/svg" xmlns:xlink="http://www.w3.org/1999/xlink" x="0px" y="0px"
	 width="83.7px" height="55.1px" viewBox="-263 369.9 83.7 55.1" style="enable-background:new -263 369.9 83.7 55.1;"
	 xml:space="preserve">
<path d="M-211.8,395.3l-0.1,0.1c0.1,0.3,0.2,0.6,0.1,1c-0.1,0.4-0.1,0.7-0.2,0.9c-0.1,0.5-0.2,1.1-0.4,1.7c-0.2,0.7-0.3,1.4-0.5,2.1
	s-0.4,1.4-0.6,2.2c-0.2,0.7-0.4,1.4-0.6,2.1c-0.1,0.3-0.2,0.7-0.4,1.1s-0.3,0.8-0.5,1.3l0.1,0.1c0.2-0.2,0.3-0.3,0.5-0.3
	c0.2-0.1,0.4-0.1,0.6-0.1c0.3,0,0.7,0,1.1,0.1c0.4,0.1,0.7,0.2,1,0.4c0.3,0.2,0.6,0.5,0.8,0.8s0.3,0.6,0.4,1c0,0.1,0,0.3-0.1,0.6
	c-0.1,0.4-0.1,0.7-0.2,1c-0.1,0.2-0.2,0.5-0.3,0.8c-0.1,0.4-0.3,0.7-0.4,0.9c-0.1,0.1-0.2,0.3-0.4,0.6c-0.2,0.3-0.3,0.6-0.6,0.9
	c-0.2,0.3-0.4,0.6-0.6,0.9c-0.2,0.2-0.3,0.4-0.4,0.4c-0.1,0-0.1,0-0.1-0.1c0,0,0-0.1-0.1-0.1s-0.2,0.1-0.3,0.2s-0.3,0.2-0.4,0.3h0.1
	v-0.1c-0.1,0-0.2-0.1-0.3-0.1s-0.2-0.1-0.3,0c-0.1,0-0.1,0-0.1,0.1c0,0,0,0-0.1,0.1c-0.1,0-0.2,0-0.2-0.1c-0.1-0.1-0.1-0.1-0.2-0.2
	c0,0-0.1-0.1-0.2-0.2c-0.1-0.1-0.2-0.2-0.3-0.4c-0.1-0.1-0.2-0.3-0.3-0.5s-0.1-0.3-0.1-0.4s0-0.3,0.1-0.5s0.2-0.4,0.2-0.4
	c0.1,0.1,0.2,0.2,0.2,0.2c0,0.1,0.1,0.2,0.1,0.2c0,0.1,0.1,0.1,0.1,0.1s0.1,0,0.2,0c0.1,0,0.2-0.1,0.3-0.3c0.1-0.2,0.3-0.4,0.4-0.6
	c0.1-0.2,0.3-0.5,0.4-0.7c0.1-0.2,0.2-0.4,0.3-0.6c0.2-0.4,0.3-0.8,0.5-1.3c0.1-0.5,0.3-0.9,0.4-1.2l-0.1-0.4
	c-0.1,0-0.2,0.1-0.2,0.2c-0.1,0.1-0.1,0.3-0.3,0.3c-0.3,0.1-0.4,0.3-0.6,0.4c-0.1,0.2-0.2,0.3-0.3,0.5c-0.1,0-0.1,0-0.1,0h-0.1
	c0,0.1,0,0.2-0.1,0.4c-0.1,0.2-0.2,0.4-0.4,0.6c-0.1,0.2-0.3,0.4-0.4,0.6c-0.1,0.2-0.2,0.4-0.3,0.5c0.1,0.1,0.2,0.1,0.2,0
	c-0.1,0.1-0.2,0.2-0.4,0.4c-0.1,0.2-0.2,0.2-0.3,0.3c-0.1,0-0.3,0-0.5,0s-0.4,0-0.4,0c-0.1,0-0.2-0.1-0.4-0.3
	c-0.1-0.2-0.3-0.4-0.4-0.6c-0.1-0.2-0.3-0.5-0.5-0.9c0-0.1,0-0.4,0.1-0.7c0.1-0.3,0.2-0.7,0.3-1.1s0.2-0.7,0.3-1s0.1-0.5,0.1-0.5
	c0.3-0.9,0.6-1.9,0.9-2.9c0.3-1.1,0.6-2.1,0.9-3.2c0.3-1.1,0.6-2.1,0.9-3.1c0.3-1,0.6-1.9,0.8-2.7c0.1-0.3,0.2-0.6,0.3-1
	s0.2-0.7,0.4-1c0.1-0.1,0.2-0.1,0.4-0.1c0.1,0,0.2,0,0.3,0s0.1,0,0.2,0.1c0.1,0.1,0.2,0.2,0.3,0.3c0.1,0.1,0.2,0.3,0.4,0.5
	C-211.8,395.2-211.8,395.3-211.8,395.3z"/>
<path d="M-202.7,411.2c-0.1,0.1-0.1,0.2-0.1,0.3c0,0.2,0,0.3,0,0.5s0,0.3-0.1,0.5c0,0.2-0.1,0.3-0.3,0.4h0.1c0,0,0.1,0,0.1,0.1
	s-0.1,0.1-0.1,0.2c-0.1,0.1-0.1,0.1-0.2,0.2c-0.1,0.1-0.1,0.3-0.1,0.5c-0.2,0.1-0.5,0.3-0.7,0.6c-0.3,0.3-0.5,0.5-0.7,0.7
	c0,0,0,0.1,0,0.2s-0.1,0.1-0.2,0.2c-0.2,0.1-0.4,0.2-0.6,0.2c-0.2,0.1-0.4,0.1-0.5,0.1c-0.5,0-0.9-0.1-1.2-0.3
	c-0.3-0.2-0.6-0.5-0.9-0.9c-0.2-0.3-0.4-0.7-0.6-1.1c-0.1-0.4-0.2-0.8-0.2-1s0-0.4,0-0.8s0.1-0.7,0.2-1c0.1-0.3,0.1-0.5,0.2-0.7
	c0.1-0.2,0.1-0.3,0.1-0.4c0.3-1.2,0.6-2.1,0.9-2.9c0-0.1,0-0.2,0-0.4c0.1,0,0.1-0.1,0.1-0.2s0.1-0.2,0.2-0.3c0.1,0,0.2,0,0.3-0.1
	c0.1,0,0.2-0.1,0.3-0.1c0.3,0,0.7,0.1,1.1,0.4c0.4,0.3,0.6,0.6,0.6,1c0,0.1,0,0.1-0.1,0.2c0,0.1-0.1,0.2-0.1,0.3
	c-0.1,0.3-0.2,0.8-0.3,1.5c-0.1,0.6-0.2,1.1-0.4,1.4c-0.1,0.1-0.1,0.3-0.1,0.5s-0.1,0.4-0.1,0.5c-0.2,0.6-0.3,1-0.4,1.2
	c-0.1,0.3-0.1,0.6,0,0.9c0.6-0.3,1.3-0.7,1.9-1.1C-203.7,412.1-203.2,411.6-202.7,411.2z M-203.7,401.5c-0.1,0.2-0.1,0.3-0.1,0.5
	s0.1,0.4,0.1,0.6s0,0.3-0.1,0.4s-0.3,0.2-0.6,0.2c-0.2,0-0.4,0-0.6-0.1c-0.2-0.1-0.4-0.2-0.5-0.2v-0.1c0,0,0-0.1-0.1-0.1
	c-0.2-0.1-0.4-0.3-0.5-0.6c-0.1-0.3-0.2-0.5-0.3-0.8c-0.1-0.1-0.1-0.3-0.1-0.4c0-0.2,0-0.3-0.1-0.5c0.3,0,0.6,0,0.7,0
	c0.2,0,0.3,0,0.5-0.1c0.1,0,0.3-0.1,0.4-0.1c0.1,0,0.3-0.1,0.4-0.1c0.1,0.1,0.2,0.2,0.3,0.3c0.1,0.1,0.2,0.2,0.2,0.3
	c0.1,0.1,0.1,0.2,0.1,0.4C-203.9,401.2-203.9,401.3-203.7,401.5z"/>
<path d="M-191,403.9c-0.1,0.1-0.1,0.1-0.1,0.1s-0.1,0.1-0.2,0.2c0,0,0,0,0.1,0c0,0,0,0,0.1,0c0,0.1,0,0.1,0,0.1l-0.1,0.1
	c0,0,0.1,0.1,0.3,0.1c-0.1,0.2-0.3,0.3-0.5,0.5s-0.2,0.4-0.2,0.6c-0.1,0.1-0.2,0.3-0.4,0.4c-0.1,0.2-0.3,0.3-0.4,0.4
	c0.1,0.1,0.2,0.1,0.2,0c-0.2,0.3-0.4,0.7-0.7,1.2c-0.3,0.4-0.5,0.8-0.7,1c-0.2,0.3-0.3,0.6-0.6,0.9c-0.2,0.4-0.4,0.7-0.6,1.1
	c-0.2,0.4-0.4,0.7-0.6,1c-0.2,0.3-0.3,0.6-0.4,0.7c-0.1,0.1-0.2,0.2-0.3,0.4c-0.1,0.2-0.2,0.4-0.3,0.6s-0.2,0.4-0.3,0.6
	s-0.2,0.4-0.2,0.6c-0.1,0.2-0.2,0.4-0.3,0.6s-0.2,0.4-0.2,0.7c0,0-0.1,0-0.1,0.1c-0.1,0-0.1,0.1-0.2,0.1l-0.4,0.1
	c-0.2,0-0.5,0-0.7-0.2s-0.5-0.4-0.7-0.7c-0.2-0.3-0.4-0.5-0.5-0.8s-0.2-0.4-0.2-0.5c0,0,0-0.2,0-0.6c0-0.3,0-0.8-0.1-1.2
	c0-0.5-0.1-1-0.1-1.5s-0.1-1-0.1-1.4c0-0.5,0-1-0.1-1.5c0-0.5-0.1-1.1-0.2-1.7c0-0.1-0.1-0.1-0.1-0.2c-0.1-0.1-0.1-0.2-0.1-0.3
	l-0.1-0.5h0.4c0.1,0,0.1,0,0.1,0h0.1c0.1,0,0.1,0,0.1,0s0,0,0.1,0c0,0,0.1,0,0.2,0.1c0.1,0.1,0.2,0.1,0.4,0.2
	c0.1,0.1,0.3,0.2,0.4,0.3c0.1,0.1,0.2,0.2,0.3,0.3c0.1,0.2,0.2,0.4,0.3,0.7c0.1,0.3,0.1,0.5,0.2,0.8c0,0.4,0,0.9,0.1,1.4
	s0.2,1.1,0.4,1.9c0.5-0.7,1-1.5,1.5-2.2s1-1.3,1.5-1.9c0.1-0.1,0.2-0.2,0.4-0.4c0.2-0.2,0.4-0.4,0.6-0.6c0.2-0.2,0.4-0.4,0.6-0.5
	c0.2-0.2,0.4-0.3,0.5-0.4s0.1-0.1,0.1-0.2s0.1-0.1,0.1-0.2c0.2-0.1,0.4-0.2,0.6-0.3c0.2-0.1,0.4-0.2,0.4-0.2
	c0.2-0.1,0.3-0.1,0.3-0.1C-191.2,403.8-191.2,403.8-191,403.9z M-192,406.4l-0.2,0.2l-0.1-0.1L-192,406.4L-192,406.4z"/>
<path d="M-184.8,410.9c-0.1,0.1-0.1,0.2-0.1,0.3c0,0.2,0,0.3,0,0.5s0,0.3-0.1,0.5c0,0.2-0.1,0.3-0.3,0.4h0.1c0.1,0,0.1,0,0.1,0.1
	s-0.1,0.1-0.1,0.2c-0.1,0.1-0.1,0.1-0.2,0.2c-0.1,0.1-0.1,0.3-0.1,0.5c-0.2,0.1-0.5,0.3-0.7,0.6c-0.3,0.3-0.5,0.5-0.7,0.7
	c0,0,0,0.1,0,0.2s-0.1,0.1-0.2,0.2c-0.2,0.1-0.4,0.2-0.6,0.2c-0.2,0.1-0.4,0.1-0.5,0.1c-0.5,0-0.9-0.1-1.2-0.3
	c-0.3-0.2-0.6-0.5-0.9-0.9c-0.2-0.3-0.4-0.7-0.6-1.1c-0.1-0.4-0.2-0.8-0.2-1s0-0.4,0-0.8s0.1-0.7,0.2-1c0.1-0.3,0.1-0.5,0.2-0.7
	c0.1-0.2,0.1-0.3,0.1-0.4c0.3-1.2,0.6-2.1,0.9-2.9c0-0.1,0-0.2,0-0.4c0.1,0,0.1-0.1,0.1-0.2s0.1-0.2,0.2-0.3c0.1,0,0.2,0,0.3-0.1
	c0.1,0,0.2-0.1,0.3-0.1c0.3,0,0.7,0.1,1.1,0.4c0.4,0.3,0.6,0.6,0.6,1c0,0.1,0,0.1-0.1,0.2c0,0.1-0.1,0.2-0.1,0.3
	c-0.1,0.3-0.2,0.8-0.3,1.5c-0.1,0.6-0.2,1.1-0.4,1.4c-0.1,0.1-0.1,0.3-0.1,0.5s-0.1,0.4-0.1,0.5c-0.2,0.6-0.3,1-0.4,1.2
	c-0.1,0.3-0.1,0.6,0,0.9c0.6-0.3,1.3-0.7,1.9-1.1C-185.7,411.8-185.2,411.3-184.8,410.9z M-185.7,401.1c-0.1,0.2-0.1,0.3-0.1,0.5
	s0.1,0.4,0.1,0.6s0,0.3-0.1,0.4s-0.3,0.2-0.6,0.2c-0.2,0-0.4,0-0.6-0.1c-0.2-0.1-0.4-0.2-0.5-0.2v-0.1c0,0,0-0.1-0.1-0.1
	c-0.2-0.1-0.4-0.3-0.5-0.6c-0.1-0.3-0.2-0.5-0.3-0.8c-0.1-0.1-0.1-0.3-0.1-0.4c0-0.2,0-0.3-0.1-0.5c0.3,0,0.6,0,0.7,0
	c0.2,0,0.3,0,0.5-0.1c0.1,0,0.3-0.1,0.4-0.1c0.1,0,0.3-0.1,0.4-0.1c0.1,0.1,0.2,0.2,0.3,0.3c0.1,0.1,0.2,0.2,0.2,0.3
	c0.1,0.1,0.1,0.2,0.1,0.4C-186,400.8-185.9,401-185.7,401.1z"/>
<path d="M-212.7,379.5c0,0,0.2,0.1,0.6,0.2l0.1,0.1l-0.1,0.3c0,0,0,0.1,0.1,0.3l-0.2,1l0.1,0.1v0.3l-0.2,0.4l0.1,0.2
	c-0.1,0.8-0.4,2.2-0.9,4.4c-0.1,0.6-0.2,1.1-0.4,1.5l0.1,0.1c-0.2,0.5-0.3,0.8-0.4,1v0.1h0.1v0.2c-0.1,0.1-0.2,0.3-0.2,0.6l0.1,0.1
	l-0.6,2h-0.2v0.2c0.1,0,0.1,0,0.2,0.1c-0.2,0.6-0.3,0.9-0.4,1.1c0,0.1,0.1,0.1,0.1,0.2c-0.2,0.6-0.3,1-0.5,1.4
	c0,0.2,0.1,0.4,0.1,0.5h-0.1v-0.2h-0.1c-0.1,0-0.1,0-0.1,0.1s0.1,0.2,0.2,0.2c0,0.1-0.2,0.5-0.4,1.1l0.1,0.3c0,0.2-0.1,0.3-0.3,0.4
	c0,0.2,0.1,0.3,0.2,0.3v0.1h-0.2c-0.2,0-0.3-0.9-0.3-2.6v-0.3c0-0.2,0-0.5,0.1-0.8l-0.1-0.1c0.1-1.4,0.3-2.3,0.4-2.5
	c0,0,0-0.1-0.1-0.2c0.5-2.8,1.1-5.4,1.7-7.8v-0.1h-0.1c-0.4,0.9-0.6,1.5-0.8,1.7c0,0.1-0.5,1.1-1.5,3c-0.5,0.9-0.8,1.5-0.9,1.9
	c-0.1,0-0.2,0-0.3,0.1l0.1,0.1v0.1c-0.5,0.5-0.7,0.9-0.7,1c-0.2,0.3-0.4,0.6-0.7,1.1c-0.1,0-0.4,0.4-0.9,1.2
	c-0.7,0.8-1.4,1.4-1.9,1.7c-0.3,0.1-0.6,0.2-0.9,0.2c-0.8-0.3-1.2-0.7-1.2-1.1c-0.3-0.4-0.4-0.7-0.4-1c0-1.7,1.3-4.3,3.7-7.8
	c1.1-1.5,2.3-2.7,3.7-3.7c1.1-0.8,1.8-1.3,2.2-1.5c0.7,0,1-0.2,1-0.6c0.3-0.4,0.6-0.6,1.1-0.5C-213,379.6-212.9,379.5-212.7,379.5z
	 M-222.2,393.1c0.3,0,0.9-0.7,1.8-2.2l0.7-0.8c0.1,0,0.1-0.2,0.2-0.6h0.1c0,0,0,0.1,0.1,0.1c0.2-0.4,0.6-1,1.2-1.9
	c0.4-0.8,0.7-1.3,0.8-1.3h0.1l0.1,0.1v-0.1l-0.1-0.4c0.4-0.7,0.7-1.1,0.7-1.2c0.2,0,0.3,0,0.3-0.1c0,0,0-0.1-0.1-0.3
	c0.2-0.5,0.4-0.8,0.7-1c0-0.2,0.1-0.3,0.1-0.3s0,0.1,0.1,0.1l0.1-0.2c-0.1-0.1-0.1-0.2-0.1-0.2c-1.5,1.3-2.6,2.4-3.1,3.3
	c-1.4,1.8-2.5,3.8-3.3,6C-222.1,392.7-222.2,393.1-222.2,393.1z M-217.2,387.8c0,0,0,0.1-0.1,0.2h0.1c0.1,0,0.1,0,0.1-0.1v-0.1
	H-217.2z M-215.8,395v0.2h0.2V395H-215.8z M-215.1,382.6v0.2h0.1c0,0,0-0.1,0.1-0.2H-215.1z M-215,391.8v0.2h0.1L-215,391.8
	L-215,391.8z"/>
<path d="M-203,379.3c0.7,0.1,1,0.2,1,0.5s-0.2,0.6-0.5,1.1v0.1h-0.2c-0.3,0-0.8,0.6-1.4,1.7c-0.1,0-0.5,0.4-1.3,1.3
	c0,0.2-0.2,0.4-0.6,0.8c0,0.2-0.2,0.6-0.6,1.4c-0.7,1.9-1.2,3.6-1.5,5.1c-0.2,0.4-0.3,1.4-0.3,2.9c-0.4,1.4-0.8,2.1-1.4,2.1
	c-0.6-0.4-0.8-0.8-0.8-1.2c-0.6-0.2-0.8-0.6-0.8-1.1c0.3-0.5,0.5-1.1,0.7-1.8c0.3-0.4,0.4-0.7,0.4-1c0-0.1,0-0.7-0.1-1.8
	c0-0.1,0.1-0.2,0.1-0.2c-0.1,0-0.2-0.3-0.2-0.8v-0.1c0-0.1,0-0.1,0.1-0.1c-0.1-0.2-0.2-1-0.1-2.5v-0.4c0-0.1,0-0.2-0.1-0.3
	c0-0.1,0.1-0.2,0.1-0.3v-1.4c0.1-0.8,0.2-1.2,0.2-1.4l-0.1-0.5c0-0.2,0.2-0.4,0.4-0.6c0.4,0.3,1,0.7,1.7,1.2l0.2,0.5v0.4
	c-0.3,0.9-0.5,1.3-0.5,1.4c0,0.4,0.1,0.6,0.1,0.6c-0.1,0.4-0.2,0.7-0.2,1.1v0.2c1-1.7,1.5-2.7,1.8-2.9
	C-205.6,380.8-204.2,379.6-203,379.3z"/>
<path d="M-201,382.7l0.2,0.1h0.1c0.2,0,0.4,0,0.6,0l0.1,0.1h0.1c0.6,0.2,0.9,0.7,0.8,1.6l0,0v0.1c-0.1,0.5-0.3,1-0.8,1.7l-1,2.9
	c-0.3,0.8-0.6,1.5-1,2.1c0,0-0.1,0.2-0.2,0.4v0.1l-0.3,0.6c0,0.1,0,0.1,0,0.2c-0.2,0.1-0.3,0.2-0.3,0.3v0.1h0.1v0.1
	c0,0.2-0.1,0.3-0.3,0.5v0.1h0.1v0.1l-0.2,0.2v0.2l0.2,0.1c0.2,0,1.1-0.5,2.5-1.6c0.5-0.3,0.5-0.3,1-0.5h0.1c-0.2,0.4,0,0.5-0.3,0.6
	c0,0-0.2,0.2-0.5,0.6c-0.1,0-0.2,0.1-0.4,0.4c-0.1,0-0.3,0.2-0.4,0.6c0,0-0.3,0.2-0.7,0.6c-0.2,0-0.3,0.1-0.4,0.2v0.1v0.1h-0.1v-0.1
	l0,0h-0.1v0.1c-0.1,0.3-0.1,0.5-0.2,0.5h-0.1v-0.1l0.1-0.2c0-0.1,0-0.2,0-0.2c-0.2,0-0.3,0.1-0.3,0.2c0,0.2,0.1,0.3,0,0.4
	s-0.2,0.1-0.2,0.1V396c0-0.1,0.1-0.1,0.1-0.2h-0.1c-0.1,0-0.1,0-0.1,0.1s0,0.2,0,0.2c-0.2,0-0.4-0.2-0.5-0.4c0,0.1-0.1,0.1-0.2,0.2
	c-0.5-0.4-0.8-0.9-0.9-1.4l0.1-0.5c0.4-2.6,0.6-3.9,0.7-3.9V390c0.2-1.1,0.5-2.2,1-3.2c0.2-0.7,0.5-1.2,0.6-1.6
	C-201.5,383.7-201.1,382.8-201,382.7z M-201.6,387.4v0.1l0,0V387.4L-201.6,387.4z M-197.8,375.3L-197.8,375.3h0.1
	c0.7,0.3,1.1,0.7,1,1.1c-0.1,0.5-0.2,0.7-0.4,0.8c-0.2,0-0.6,0.4-1.1,1.2c0,0-0.4,0.3-1,1c-0.2,0-0.4,0.1-0.4,0.4l-0.2,0.2v-0.1
	c0.5-1.4,0.9-2.6,1.2-3.6V376l-0.1-0.2v-0.2C-198.2,375.5-198,375.4-197.8,375.3z M-200.3,393.7L-200.3,393.7c0,0.1-0.1,0.2-0.2,0.3
	v-0.1C-200.5,393.8-200.4,393.7-200.3,393.7z M-199.1,379.1L-199.1,379.1L-199.1,379.1l0.1-0.1C-199.1,379-199.1,379-199.1,379.1z"
	/>
<path d="M-190.9,380.8h0.2v0.1l-0.1,0.1l0.1,0.2l-0.1,0.2c0.1,0.1,0.1,0.2,0.1,0.3c0,0.1,0,0.1,0,0.2l0,0c-0.1,0.5-0.3,1.4-0.8,2.6
	c-0.1,1-0.2,1.6-0.5,1.7h-0.1c-0.2-0.1-0.2-0.2-0.2-0.4c0-0.2,0-0.6,0.1-1.2l-0.1-0.2c0,0,0,0,0.1,0c0-0.7-0.1-1-0.3-1
	c-0.9,0.2-1.7,0.7-2.6,1.6c0,0-0.3,0.2-0.7,0.6c0.2,0.1,1.1,0.7,2.9,1.8c0.7,0.6,1.1,1,1.1,1.3c0.2,0.1,0.2,0.2,0.2,0.4v0.1
	c0,0.4-0.1,0.9-0.4,1.7c0,0.1-0.1,0.4-0.3,0.9c0,0-0.2,0.3-0.6,0.8c-0.9,0.8-1.7,1.4-2.2,1.6c0,0.1,0,0.1-0.1,0.1h-0.1
	c-0.7,0.5-1.1,0.8-1.4,0.8c0,0-0.1,0.1-0.2,0.2h-0.1c-0.2,0.2-0.3,0.3-0.3,0.3s-0.1,0-0.1-0.1l-0.6,0.4c-0.1,0.1-0.3,0.2-0.6,0.4
	h-0.1c-0.2-0.2-0.3-0.4-0.3-0.8c-0.1,0-0.1-0.1-0.1-0.2v-0.1c0-0.2,0-0.3,0-0.4v-0.2c0-0.4,0.4-1.2,1.3-2.4c0.8-0.9,1.6-1.5,2.3-1.8
	c0.2-0.1,0.4-0.2,0.7-0.3l0,0c0.3,0,0.6-0.1,0.9-0.3v0.1c-0.6,0.5-1,0.8-1.1,0.9c-0.4,0.4-0.8,1-1.3,1.9v0.2
	c0.9-0.6,1.8-1.5,2.6-2.5c0.3-0.4,0.4-0.8,0.4-1.1c0-0.3-0.8-0.8-2.3-1.4c-0.9-0.4-1.4-0.8-1.4-1c-0.1,0-0.1,0-0.1-0.1
	c0-0.4,0.1-0.7,0.3-1.1l-0.1-0.1l0.1-0.2c-0.1-0.2-0.1-0.4-0.1-0.4c0.1-0.6,0.9-1.7,2.4-3.2c0.8-0.5,1.4-0.8,1.9-0.8h0.1
	c0.5,0,0.8,0.2,1,0.6c0,0,0.1,0.1,0.2,0.2c0.1-0.3,0.2-0.6,0.2-0.8C-191,381-190.9,380.9-190.9,380.8z M-194.9,383.2L-194.9,383.2
	l0.2-0.1V383C-194.8,383.1-194.9,383.1-194.9,383.2z"/>
<path d="M-179.9,380.2c0,0,0.2,0.1,0.6,0.2l0.1,0.1l-0.1,0.3c0,0,0,0.1,0.1,0.3l-0.2,1l0.1,0.1v0.3l-0.2,0.4l0.1,0.2
	c-0.1,0.8-0.4,2.2-0.9,4.4c-0.1,0.6-0.2,1.1-0.4,1.5l0.1,0.1c-0.2,0.5-0.3,0.8-0.4,1v0.1h0.1v0.2c-0.1,0.1-0.2,0.3-0.2,0.6l0.1,0.1
	l-0.6,2h-0.2v0.2c0.1,0,0.1,0,0.2,0.1c-0.2,0.6-0.3,0.9-0.4,1.1c0,0.1,0.1,0.1,0.1,0.2c-0.2,0.6-0.3,1-0.5,1.4
	c0,0.2,0.1,0.4,0.1,0.5h-0.1v-0.2h-0.1c-0.1,0-0.1,0-0.1,0.1s0.1,0.2,0.2,0.2c0,0.1-0.2,0.5-0.4,1.1l0.1,0.3c0,0.2-0.1,0.3-0.3,0.4
	c0,0.2,0.1,0.3,0.2,0.3v0.1h-0.2c-0.2,0-0.3-0.9-0.3-2.6V396c0-0.2,0-0.5,0.1-0.8l-0.1-0.1c0.1-1.4,0.3-2.3,0.4-2.5
	c0,0,0-0.1-0.1-0.2c0.5-2.8,1.1-5.4,1.7-7.8v-0.1h-0.1c-0.4,0.9-0.6,1.5-0.8,1.7c0,0.1-0.5,1.1-1.5,3c-0.5,0.9-0.8,1.5-0.9,1.9
	c-0.1,0-0.2,0-0.3,0.1l0.1,0.1v0.1c-0.5,0.5-0.7,0.9-0.7,1c-0.2,0.3-0.4,0.6-0.7,1.1c-0.1,0-0.4,0.4-0.9,1.2
	c-0.7,0.8-1.4,1.4-1.9,1.7c-0.3,0.1-0.6,0.2-0.9,0.2c-0.8-0.3-1.2-0.7-1.2-1.1c-0.3-0.4-0.4-0.7-0.4-1c0-1.7,1.3-4.3,3.7-7.8
	c1.1-1.5,2.3-2.7,3.7-3.7c1.1-0.8,1.8-1.3,2.2-1.5c0.7,0,1-0.2,1-0.6c0.3-0.4,0.6-0.6,1.1-0.5C-180.1,380.3-180,380.2-179.9,380.2z
	 M-189.4,393.8c0.3,0,0.9-0.7,1.8-2.2l0.7-0.8c0.1,0,0.1-0.2,0.2-0.6h0.1c0,0,0,0.1,0.1,0.1c0.2-0.4,0.6-1,1.2-1.9
	c0.4-0.8,0.7-1.3,0.8-1.3h0.1l0.1,0.1v-0.1l-0.1-0.4c0.4-0.7,0.7-1.1,0.7-1.2c0.2,0,0.3,0,0.3-0.1c0,0,0-0.1-0.1-0.3
	c0.2-0.5,0.4-0.8,0.7-1c0-0.2,0.1-0.3,0.1-0.3s0,0.1,0.1,0.1l0.1-0.2c-0.1-0.1-0.1-0.2-0.1-0.2c-1.5,1.3-2.6,2.4-3.1,3.3
	c-1.4,1.8-2.5,3.8-3.3,6C-189.3,393.4-189.4,393.8-189.4,393.8z M-184.4,388.5c0,0,0,0.1-0.1,0.2h0.1c0.1,0,0.1,0,0.1-0.1v-0.1
	H-184.4z M-183,395.7v0.2h0.2v-0.2H-183z M-182.2,383.3v0.2h0.1c0,0,0-0.1,0.1-0.2H-182.2z M-182.1,392.4v0.2h0.1L-182.1,392.4
	L-182.1,392.4z"/>
<path d="M-208.1,416.8c-1.8,2.1-1.9,2.1-4.1,3.9c-1.1,0.9-2.3,1.8-3.6,2.6c-0.7,0.4-1.3,0.7-2.1,1c-0.1,0-0.2,0.1-0.3,0.1
	s-0.2,0.1-0.3,0.1c-0.2,0.1-0.4,0.1-0.6,0.2h-0.2h-0.1h-0.1l-0.3,0.1c-0.1,0-0.2,0-0.3,0s-0.2,0-0.3,0c-0.4,0-0.9,0-1.4,0
	c-0.5-0.1-0.9-0.2-1.4-0.3c-0.4-0.2-0.9-0.4-1.3-0.6c-0.4-0.3-0.7-0.5-1.1-0.9c-0.3-0.3-0.6-0.6-0.8-1c-0.2-0.3-0.5-0.7-0.7-1
	s-0.4-0.7-0.5-1.1c-0.2-0.4-0.3-0.7-0.4-1.1c-0.5-1.4-0.8-2.9-1.1-4.3c-0.2-1.4-0.4-2.8-0.5-4.3c-0.1-1.4-0.1-2.8-0.2-4.2
	c0-1.4,0-2.8,0.1-4.2c0.1-2.8,0.3-5.6,0.6-8.3c0.3-2.8,0.6-5.5,1-8.3c0.1-0.7,0.2-1.4,0.3-2.1l0.2-1l0.2-1c0.2-1.3,0.4-2.7,0.5-4
	c0-0.2,0-0.3,0-0.4s0-0.3,0-0.4c0-0.2,0-0.4,0-0.5s0-0.3,0-0.3c0-0.1,0-0.2,0-0.3c0-0.2,0-0.3,0-0.6c0-0.1,0-0.1,0-0.2s0-0.2,0-0.3
	l0,0c0,0-0.1-0.1-0.1,0l-0.1,0.1c-1.9,2.3-3.6,4.8-5.2,7.5c-1.6,2.7-2.9,5.5-4.2,8.3c-1.2,2.9-2.3,5.7-3.3,8.6
	c-0.5,1.4-1,2.8-1.5,4.2c-0.2,0.7-0.5,1.4-0.7,2.1c-0.1,0.3-0.3,0.7-0.4,1c-0.1,0.2-0.1,0.3-0.2,0.5c0,0.1-0.1,0.2-0.1,0.3
	c0,0.1-0.1,0.1-0.1,0.2l-0.1,0.2c-0.2,0.5-0.4,0.9-0.7,1.3c-0.2,0.4-0.5,0.8-0.8,1.1c-0.1,0.1-0.1,0.1-0.2,0.2l-0.1,0.1l-0.1,0.1
	c-0.2,0.1-0.3,0.2-0.5,0.3c-0.3,0.2-0.7,0.3-1.1,0.4c-0.4,0.1-0.8,0-1.2-0.1h-0.1c0,0-0.1,0-0.1-0.1c0,0-0.1,0-0.1-0.1l-0.1-0.1
	c-0.1,0-0.2-0.1-0.3-0.1l-0.1-0.1l-0.1-0.1c-0.3-0.2-0.6-0.5-0.8-0.9c-0.1-0.1-0.1-0.2-0.2-0.3l-0.1-0.1c0,0-0.1-0.1-0.1-0.2
	c-0.1-0.2-0.2-0.4-0.3-0.7l-0.1-0.2c0-0.1,0-0.1-0.1-0.2c0-0.1-0.1-0.2-0.1-0.4c0-0.1-0.1-0.3-0.1-0.4s-0.1-0.3-0.1-0.4s0-0.1,0-0.2
	s0-0.1,0-0.2s0-0.3-0.1-0.4c0-0.1,0-0.1,0-0.2V405c0-0.1,0-0.2,0-0.2c-0.1-0.6-0.1-1.3-0.1-1.9c0-1.3,0-2.6,0.1-4l0,0c0,0,0,0-0.1,0
	l0,0c0,0,0.1-0.7,0.1-1.6c0.1-0.8,0.1-1.8,0.2-2.5c0,0,0.1,0,0.1-0.1c0,0,0.1-0.4,0.1-0.9c0.1-0.5,0.1-1.2,0.2-1.9c0,0,0,0,0.1,0
	l0,0l0,0c0.3-2.8,0.8-5.5,1.1-8.2c0,0,0,0,0.1,0l0,0l0,0c0-0.2,0.1-0.4,0.1-0.6c0-0.1,0-0.2,0.1-0.3c0-0.1,0-0.2,0.1-0.3
	c0-0.1,0-0.2,0.1-0.3c0-0.1,0-0.1,0-0.2s0-0.1,0-0.2v-0.1v-0.1c0-0.1,0-0.2,0-0.3c0-0.1,0-0.1,0-0.2c0,0,0,0,0-0.1
	c0,0,0-0.1,0.1-0.1c0,0,0,0.1-0.1,0l0,0c0,0,0-0.1-0.1-0.1c0,0,0,0,0-0.1c0,0,0,0-0.1,0c0,0-0.1,0-0.1,0.1c-0.1,0.1-0.1,0.1-0.2,0.2
	c-0.1,0.1-0.1,0.2-0.2,0.3c0,0.1-0.1,0.1-0.1,0.2l0,0l0,0c-0.1,0.1-0.1,0.2-0.2,0.4c-0.1,0.2-0.3,0.5-0.4,0.8
	c-0.3,0.5-0.6,1.1-0.9,1.7c-0.6,1.2-1.2,2.5-1.7,3.6s-1,2.2-1.3,3c-0.2,0.4-0.3,0.7-0.4,0.9c0,0.1-0.1,0.2-0.1,0.2v0.1l0,0
	c-0.5,1.3-0.9,2.2-1.3,3.1c-0.4,0.9-0.7,1.7-1.2,2.8l0,0l0,0l0,0l0,0l0,0l0,0l0,0l0,0l0,0l0,0l0,0l0,0l0,0l0,0l0,0
	c0.1-0.6,0.5-1.7-0.4,0.2c-0.5,1.3-1.3,2.9-2,4.6c-0.8,1.7-1.5,3.5-2.2,5c-0.7,1.5-1.2,2.7-1.5,3.3c-0.3,0.6-0.4,0.6-0.1-0.4
	c0.2-0.7,0.9-3,1.7-5.2c0.8-2.3,1.5-4.6,1.7-5.2l0,0c0.2-0.6,0.7-2,1-3.1c0.3-1.1,0.6-2.1,0.5-2.2l0,0c0.3-0.6,0.5-1.3,0.7-1.7
	c0.2-0.5,0.3-0.8,0.3-0.8c-0.1,0-0.8,1.5-1.6,3.4c-0.4,1-0.8,2-1.2,3s-0.7,1.8-1,2.5l0,0c-0.2,0.5-0.3,0.6-0.3,0.4s0.2-1.1,0.5-1.9
	l0,0c0,0,0.1-0.3,0.2-0.7c0.1-0.5,0.3-1.1,0.6-2c0.5-1.7,1.3-4,2.3-6.5c0.5-1.3,1.1-2.6,1.7-3.9s1.2-2.7,1.9-4.1
	c0.3-0.7,0.7-1.4,1-2.1c0.1-0.2,0.2-0.4,0.3-0.5l0.1-0.3l0.1-0.2l0.1-0.2c0.4-0.7,0.8-1.3,1.2-1.9s0.8-1.2,1.3-1.6
	c0.2-0.2,0.4-0.4,0.7-0.6c0.2-0.2,0.4-0.3,0.6-0.4c0.2-0.1,0.4-0.2,0.6-0.2c0.2,0,0.4-0.1,0.6-0.1c0.1,0,0.2,0,0.4,0
	c0.1,0,0.3,0,0.4,0.1c0.1,0,0.3,0.1,0.4,0.1c0.1,0.1,0.2,0.1,0.3,0.2c0.2,0.1,0.3,0.3,0.5,0.4c0.1,0.2,0.3,0.3,0.4,0.5
	c0.2,0.4,0.4,0.9,0.6,1.5c0.1,0.6,0.2,1.3,0.2,2.1c0,0.7,0,1.5-0.1,2.3v0.3v0.1v0.1v0.2v0.2c0,0.1,0,0.2,0,0.3l-0.1,0.3
	c-0.1,0.4-0.1,0.7-0.2,1.1c-0.1,0.7-0.2,1.5-0.4,2.2c-0.5,2.9-0.9,5.8-1.2,8.5c-0.1,0.7-0.2,1.7-0.3,2.7s-0.2,2-0.2,2.7
	c0,0.9-0.1,1.9,0,2.8c0,0.5,0,0.9,0.1,1.4v0.2l0,0v0.1v0.1c0,0.1,0,0.2,0.1,0.3c0,0,0,0.1,0.1,0.1h0.1h0.1l0.1-0.1
	c0.1-0.1,0.1-0.2,0.2-0.2v-0.1l0,0l0,0l0,0l0,0c0.1-0.2,0.2-0.4,0.3-0.7c0.2-0.5,0.4-0.9,0.5-1.4c0.3-0.9,0.7-1.9,1-2.9
	c0.7-2,1.4-3.9,2.1-5.9c0.7-2,1.5-4,2.4-5.9c0.9-2,1.8-3.9,2.8-5.8s2.1-3.8,3.4-5.6c0.6-0.9,1.2-1.8,1.9-2.7c0.3-0.4,0.7-0.9,1-1.3
	c0.2-0.2,0.3-0.4,0.5-0.6c0.1-0.1,0.2-0.2,0.3-0.3l0.3-0.3l0,0l0.1-0.1l0.1-0.1c0-0.1,0.1-0.1,0.1-0.1c0.1-0.1,0.2-0.2,0.3-0.3
	c0.2-0.2,0.4-0.4,0.6-0.5c0.1-0.1,0.2-0.2,0.4-0.3c0.1-0.1,0.3-0.2,0.4-0.2c0,0,0.1,0,0.1-0.1c0,0,0.1,0,0.1-0.1l0.1-0.1h0.1
	c0,0,0.1,0,0.2,0c0.1,0,0.1,0,0.2,0c0.1,0,0.1,0,0.2,0c0.1,0,0.1,0,0.2,0c0.3,0,0.6,0,0.8,0.1c0.3,0.1,0.6,0.2,0.8,0.4
	c0.1,0,0.1,0.1,0.2,0.1l0.1,0.1l0.1,0.1l0,0l0.1,0.1l0.1,0.1l0.1,0.1v0.1c0,0,0,0,0,0.1l0.1,0.1c0,0,0,0.1,0.1,0.1
	c0.2,0.3,0.2,0.6,0.3,0.9v0.1v0.1c0,0.1,0,0.1,0,0.2s0,0.3,0.1,0.4c0.1,0.5,0.1,1,0.1,1.5s0,0.9,0,1.4c-0.1,0.9-0.2,1.8-0.3,2.6
	c-0.1,0.9-0.3,1.7-0.4,2.6c-0.1,0.4-0.2,0.9-0.2,1.3c-0.1,0.4-0.1,0.8-0.2,1.2c-0.3,1.5-0.5,2.9-0.7,4.4c0,0,0,0,0-0.1
	c0.1-0.9,0.2-1.7,0.4-2.5c-0.2,1-0.3,2.1-0.4,3.1c0-0.2,0.1-0.4,0.1-0.6c-0.2,1.2-0.3,2.4-0.4,3.6c-0.3,2.4-0.4,4.4-0.5,5.1
	c-0.3,2-0.5,4.4-0.6,7.1c-0.1,1.4-0.1,2.8,0,4.3c0,1.5,0.2,3.1,0.4,4.8l0,0c-0.1,0,0,1.4,0.3,2.7c0.2,1,0.5,2,0.9,3
	c0.2,0.5,0.4,1,0.7,1.5l0.1,0.1l0.1,0.1l0.1,0.2c0.1,0.1,0.2,0.2,0.2,0.3c0.2,0.2,0.3,0.4,0.5,0.6s0.4,0.3,0.6,0.5
	c0.1,0.1,0.2,0.1,0.3,0.2l0,0l0.2,0.1c0.1,0,0.1,0,0.2,0.1c0.4,0.2,0.9,0.3,1.4,0.3c0.1,0,0.1,0,0.2,0c0.1,0,0.1,0,0.2,0
	c0.1,0,0.2,0,0.4,0c0.1,0,0.1,0,0.2,0c0.1,0,0.1,0,0.2,0h0.1h0.1c0.1,0,0.1,0,0.2,0c0.5-0.1,0.9-0.3,1.4-0.5l-0.2,0.1l-0.1,0.1h-0.1
	l-0.2,0.1c-0.1,0-0.1,0.1-0.2,0.1h-0.1h-0.1l-0.2,0.1l-0.2,0.1c-0.1,0-0.1,0-0.2,0.1h-0.1h-0.1l0,0h-0.1h-0.2l0,0
	c-0.1,0-0.3,0-0.4,0c-0.3,0-0.6,0-0.9-0.1c-0.3-0.1-0.3,0-0.1,0h0.1c0.1,0,0.1,0,0.2,0h0.1h0.1c0.1,0,0.1,0,0.2,0c0.1,0,0.1,0,0.2,0
	c0.1,0,0.1,0,0.2,0c0.1,0,0.2,0,0.3,0s0.1,0,0.1,0s-0.1,0-0.2,0c-0.3,0-0.6,0-1,0c-0.3,0-0.7-0.1-1-0.3c-0.3-0.1-0.6-0.3-0.9-0.6
	c-0.3-0.2-0.6-0.5-0.8-0.8c-0.5-0.6-0.9-1.3-1.2-2.1c-0.1-0.2-0.1-0.4-0.2-0.5c-0.1-0.2-0.1-0.4-0.2-0.5c-0.1-0.2-0.1-0.3-0.2-0.5
	c0-0.2-0.1-0.3-0.1-0.4c0,0,0,0-0.1,0c0,0,0,0,0,0.1c0.3,1,0.6,1.8,1,2.6c0.4,0.8,0.8,1.5,1.4,2c0.3,0.3,0.6,0.5,0.9,0.7
	c0.3,0.2,0.7,0.3,1.1,0.4c0.4,0.1,0.8,0.1,1.3,0.1c0.4,0,0.9-0.1,1.4-0.3c0.5-0.1,0.9-0.3,1.3-0.5c0.2-0.1,0.4-0.2,0.5-0.2
	s0.2-0.1,0.2-0.1c0.1,0,0.2-0.1,0.2-0.1c0.1-0.1,0.3-0.2,0.4-0.2c0.1,0,0.1-0.1,0.2-0.1c0.1,0,0.1-0.1,0.2-0.1
	c0.1-0.1,0.2-0.1,0.3-0.2s0.2-0.1,0.2-0.1c0.1-0.1,0.3-0.1,0.3-0.2c0.1,0,0.1-0.1,0.1,0c0,0,0,0-0.1,0.1s-0.2,0.1-0.3,0.2
	c-0.6,0.4-1.1,0.8-1.8,1.1c-0.6,0.3-1.3,0.6-2,0.8c-0.7,0.2-1.5,0.3-2.2,0.2c-0.4,0-0.7-0.1-1.1-0.3c-0.3-0.1-0.7-0.3-1-0.6
	c-0.6-0.5-1.1-1-1.5-1.7c-0.2-0.3-0.4-0.7-0.5-1c-0.2-0.3-0.3-0.7-0.4-1c-0.1-0.3-0.2-0.7-0.4-1.1c-0.1-0.4-0.2-0.7-0.3-1.1
	c-0.2-0.6-0.3-1.3-0.4-1.9c0.1,0.6,0.1,0.8,0.2,1c0,0.2,0,0.2,0,0.2l0,0c0-0.2-0.1-0.3-0.1-0.5c-0.1-0.5-0.2-0.9-0.2-1.4l0,0
	c0-0.6-0.1-0.9-0.1-1.4c-0.1-0.9-0.4-3.1-0.5-4c0-0.5,0,1,0,2c0,0.4,0.2,0.8,0.1,1.2c-0.3,1.6,0.7,4.7,0.8,6.3
	c-0.1-0.1-1.1-3.5-1.3-4.2c-0.3-1.1-0.6-4.8-0.4-2.2c0.1,0.9,0,1.9,0.1,2.9c0.2,1,0.4,2.1,0.7,3.1c0,0.1,0,0.1,0.1,0.2
	c0.4,0.9,0.6,1.6,0.7,1.8c0.3,0.5,0.7,1.2,0.8,1.5c0.7,1.1,0.4,0.8-0.3-0.3c0,0,0-0.1-0.1-0.1c0,0,0,0.1,0.1,0.1
	c0.3,0.5,0.6,1.1,1,1.5l0.2,0.2l0.2,0.2l0.1,0.1l0.1,0.1l0.2,0.2l0.2,0.2l0.1,0.1l0.1,0.1c0.1,0.1,0.1,0.1,0.2,0.2l0.2,0.1
	c0.3,0.2,0.6,0.4,0.9,0.5c0.2,0.1,0.3,0.1,0.5,0.2c0.1,0,0.2,0,0.2,0.1h0.1l0,0h0.1c0.1,0,0.2,0.1,0.4,0.1h0.1c0.1,0,0.1,0,0.2,0
	h0.1c0.1,0,0.2,0,0.2,0c0.3,0,0.7,0,1,0c0.2,0,0.4,0,0.5-0.1c0.2,0,0.3,0,0.4-0.1c0.2,0,0.4-0.1,0.5-0.1s1.4-0.4,2.7-1.2
	c1.7-1,3.6-2.5,4.9-3.7C-209.2,417.8-209.2,417.7-208.1,416.8z"/>
</svg>
