<?xml version="1.0" encoding="utf-8"?>
<!-- Generator: Adobe Illustrator 19.1.0, SVG Export Plug-In . SVG Version: 6.00 Build 0)  -->
<!DOCTYPE svg PUBLIC "-//W3C//DTD SVG 1.1//EN" "http://www.w3.org/Graphics/SVG/1.1/DTD/svg11.dtd">
<svg version="1.1" id="Layer_1" xmlns="http://www.w3.org/2000/svg" xmlns:xlink="http://www.w3.org/1999/xlink" x="0px" y="0px"
	 width="465.3px" height="463.3px" viewBox="173 -171.3 465.3 463.3" style="enable-background:new 173 -171.3 465.3 463.3;"
	 xml:space="preserve">
<style type="text/css">
	.st0{fill:#FFFFFF;}
</style>
<g id="Layer_1_1_">
	<path class="st0" d="M575.7-171.3H235.6c-34.6,0-62.6,28-62.6,62.6v338.1c0,34.6,28,62.6,62.6,62.6h340.1c34.6,0,62.6-28,62.6-62.6
		v-338.1C638.3-143.3,610.3-171.3,575.7-171.3z M232.5-141.3h346.4c0.1,0,0.2,0,0.3,0c12.7,0.1,19.5,15.1,11.4,24.9L439.7,66.2
		c-7.5,9.1-21.1,14.6-36.4,14.6H403c-15.4-0.1-29.1-5.6-36.5-14.9l-147-179.4c-9-11-1.4-27.6,12.8-27.8
		C232.3-141.3,232.4-141.3,232.5-141.3z M214.1-72.6L333.6,73.2c1,1.2,1,2.9,0,4L214.1,219.4c-3.8,4.5-11.1,1.8-11.1-4v-284
		C203-74.5,210.4-77.1,214.1-72.6z M238.2,261.2c-15.3-0.7-3.2-20.1-1.6-22.1L354.2,99.3c1.1-1.4,3.1-1.6,4.6-0.7
		c12.3,7.8,27.7,12.2,44,12.2h0.5c19.2,0,37.1-6,50.3-16.4c1.6-1.2,3.8-1,5,0.6l106.8,140c1.7,2.2,3.6,4.3,5.4,6.4
		c6,6.7,8.5,20.6-4.5,20.6C566.3,262,240.7,261.3,238.2,261.2z M608.3,216.3c0,0.1,0,0.3,0,0.4c-0.4,7.5-12.2,7.5-16.8,1.5
		L477.9,70.9c-0.9-1.2-0.9-2.8,0.1-3.9L594.3-73.8c4.7-5.7,14-2.4,14,5V216.3z"/>
</g>
<g id="Layer_2">
</g>
</svg>
