<?xml version="1.0" encoding="utf-8"?>
<!-- Generator: Adobe Illustrator 19.1.0, SVG Export Plug-In . SVG Version: 6.00 Build 0)  -->
<!DOCTYPE svg PUBLIC "-//W3C//DTD SVG 1.1//EN" "http://www.w3.org/Graphics/SVG/1.1/DTD/svg11.dtd">
<svg version="1.1" id="Layer_1" xmlns="http://www.w3.org/2000/svg" xmlns:xlink="http://www.w3.org/1999/xlink" x="0px" y="0px"
	 width="83.7px" height="55.1px" viewBox="-234.5 379.9 83.7 55.1" style="enable-background:new -234.5 379.9 83.7 55.1;"
	 xml:space="preserve">
<g>
	<path d="M-183.9,405.3c0,0-0.1,0.1-0.1,0.1c0.1,0.3,0.2,0.6,0.1,1c-0.1,0.4-0.1,0.7-0.2,0.9c-0.1,0.5-0.2,1.1-0.4,1.7
		c-0.2,0.7-0.3,1.4-0.5,2.1c-0.2,0.7-0.4,1.4-0.6,2.2c-0.2,0.7-0.4,1.4-0.6,2.1c-0.1,0.3-0.2,0.7-0.4,1.1c-0.2,0.4-0.3,0.8-0.5,1.3
		l0.1,0.1c0.2-0.2,0.3-0.3,0.5-0.3c0.2-0.1,0.4-0.1,0.6-0.1c0.3,0,0.7,0,1.1,0.1c0.4,0.1,0.7,0.2,1,0.4c0.3,0.2,0.6,0.5,0.8,0.8
		c0.2,0.3,0.3,0.6,0.4,1c0,0.1,0,0.3-0.1,0.6c-0.1,0.4-0.1,0.7-0.2,1c-0.1,0.2-0.2,0.5-0.3,0.8c-0.1,0.4-0.3,0.7-0.4,0.9
		c-0.1,0.1-0.2,0.3-0.4,0.6c-0.2,0.3-0.3,0.6-0.6,0.9c-0.2,0.3-0.4,0.6-0.6,0.9c-0.2,0.2-0.3,0.4-0.4,0.4c-0.1,0-0.1,0-0.1-0.1
		c0,0,0-0.1-0.1-0.1c-0.1,0-0.2,0.1-0.3,0.2c-0.1,0.1-0.3,0.2-0.4,0.3l0.1,0v-0.1c-0.1,0-0.2-0.1-0.3-0.1c-0.1,0-0.2-0.1-0.3,0
		c-0.1,0-0.1,0-0.1,0.1c0,0,0,0-0.1,0.1c-0.1,0-0.2,0-0.2-0.1c-0.1-0.1-0.1-0.1-0.2-0.2c0,0-0.1-0.1-0.2-0.2
		c-0.1-0.1-0.2-0.2-0.3-0.4c-0.1-0.1-0.2-0.3-0.3-0.5c-0.1-0.2-0.1-0.3-0.1-0.4c0-0.1,0-0.3,0.1-0.5c0.1-0.2,0.2-0.4,0.2-0.4
		c0.1,0.1,0.2,0.2,0.2,0.2c0,0.1,0.1,0.2,0.1,0.2c0,0.1,0.1,0.1,0.1,0.1c0,0,0.1,0,0.2,0c0.1,0,0.2-0.1,0.3-0.3
		c0.1-0.2,0.3-0.4,0.4-0.6c0.1-0.2,0.3-0.5,0.4-0.7c0.1-0.2,0.2-0.4,0.3-0.6c0.2-0.4,0.3-0.8,0.5-1.3c0.1-0.5,0.3-0.9,0.4-1.2
		l-0.1-0.4c-0.1,0-0.2,0.1-0.2,0.2c-0.1,0.1-0.1,0.3-0.3,0.3c-0.3,0.1-0.4,0.3-0.6,0.4c-0.1,0.2-0.2,0.3-0.3,0.5c-0.1,0-0.1,0-0.1,0
		c0,0-0.1,0-0.1,0c0,0.1,0,0.2-0.1,0.4c-0.1,0.2-0.2,0.4-0.4,0.6c-0.1,0.2-0.3,0.4-0.4,0.6c-0.1,0.2-0.2,0.4-0.3,0.5
		c0.1,0.1,0.2,0.1,0.2,0c-0.1,0.1-0.2,0.2-0.4,0.4c-0.1,0.2-0.2,0.2-0.3,0.3c-0.1,0-0.3,0-0.5,0c-0.2,0-0.4,0-0.4,0
		c-0.1,0-0.2-0.1-0.4-0.3c-0.1-0.2-0.3-0.4-0.4-0.6c-0.1-0.2-0.3-0.5-0.5-0.9c0-0.1,0-0.4,0.1-0.7c0.1-0.3,0.2-0.7,0.3-1.1
		c0.1-0.4,0.2-0.7,0.3-1c0.1-0.3,0.1-0.5,0.1-0.5c0.3-0.9,0.6-1.9,0.9-2.9c0.3-1.1,0.6-2.1,0.9-3.2c0.3-1.1,0.6-2.1,0.9-3.1
		c0.3-1,0.6-1.9,0.8-2.7c0.1-0.3,0.2-0.6,0.3-1c0.1-0.4,0.2-0.7,0.4-1c0.1-0.1,0.2-0.1,0.4-0.1c0.1,0,0.2,0,0.3,0
		c0.1,0,0.1,0,0.2,0.1c0.1,0.1,0.2,0.2,0.3,0.3c0.1,0.1,0.2,0.3,0.4,0.5C-183.9,405.2-183.9,405.3-183.9,405.3z"/>
	<path d="M-174.8,421.2c-0.1,0.1-0.1,0.2-0.1,0.3c0,0.2,0,0.3,0,0.5c0,0.2,0,0.3-0.1,0.5c0,0.2-0.1,0.3-0.3,0.4c0,0,0.1,0,0.1,0
		s0.1,0,0.1,0.1c0,0.1-0.1,0.1-0.1,0.2c-0.1,0.1-0.1,0.1-0.2,0.2c-0.1,0.1-0.1,0.3-0.1,0.5c-0.2,0.1-0.5,0.3-0.7,0.6
		c-0.3,0.3-0.5,0.5-0.7,0.7c0,0,0,0.1,0,0.2s-0.1,0.1-0.2,0.2c-0.2,0.1-0.4,0.2-0.6,0.2c-0.2,0.1-0.4,0.1-0.5,0.1
		c-0.5,0-0.9-0.1-1.2-0.3c-0.3-0.2-0.6-0.5-0.9-0.9c-0.2-0.3-0.4-0.7-0.6-1.1c-0.1-0.4-0.2-0.8-0.2-1c0-0.2,0-0.4,0-0.8
		c0-0.4,0.1-0.7,0.2-1c0.1-0.3,0.1-0.5,0.2-0.7c0.1-0.2,0.1-0.3,0.1-0.4c0.3-1.2,0.6-2.1,0.9-2.9c0-0.1,0-0.2,0-0.4
		c0.1,0,0.1-0.1,0.1-0.2c0-0.1,0.1-0.2,0.2-0.3c0.1,0,0.2,0,0.3-0.1c0.1,0,0.2-0.1,0.3-0.1c0.3,0,0.7,0.1,1.1,0.4
		c0.4,0.3,0.6,0.6,0.6,1c0,0.1,0,0.1-0.1,0.2c0,0.1-0.1,0.2-0.1,0.3c-0.1,0.3-0.2,0.8-0.3,1.5c-0.1,0.6-0.2,1.1-0.4,1.4
		c-0.1,0.1-0.1,0.3-0.1,0.5c0,0.2-0.1,0.4-0.1,0.5c-0.2,0.6-0.3,1-0.4,1.2c-0.1,0.3-0.1,0.6,0,0.9c0.6-0.3,1.3-0.7,1.9-1.1
		C-175.8,422.1-175.3,421.6-174.8,421.2z M-175.8,411.5c-0.1,0.2-0.1,0.3-0.1,0.5c0,0.2,0.1,0.4,0.1,0.6c0,0.2,0,0.3-0.1,0.4
		c-0.1,0.1-0.3,0.2-0.6,0.2c-0.2,0-0.4,0-0.6-0.1c-0.2-0.1-0.4-0.2-0.5-0.2c0,0,0-0.1,0-0.1c0,0,0-0.1-0.1-0.1
		c-0.2-0.1-0.4-0.3-0.5-0.6c-0.1-0.3-0.2-0.5-0.3-0.8c-0.1-0.1-0.1-0.3-0.1-0.4c0-0.2,0-0.3-0.1-0.5c0.3,0,0.6,0,0.7,0
		c0.2,0,0.3,0,0.5-0.1c0.1,0,0.3-0.1,0.4-0.1c0.1,0,0.3-0.1,0.4-0.1c0.1,0.1,0.2,0.2,0.3,0.3c0.1,0.1,0.2,0.2,0.2,0.3
		c0.1,0.1,0.1,0.2,0.1,0.4C-176,411.2-176,411.3-175.8,411.5z"/>
	<path d="M-163.1,413.9c-0.1,0.1-0.1,0.1-0.1,0.1c0,0-0.1,0.1-0.2,0.2c0,0,0,0,0.1,0c0,0,0,0,0.1,0c0,0.1,0,0.1,0,0.1
		c0,0-0.1,0.1-0.1,0.1c0,0,0.1,0.1,0.3,0.1c-0.1,0.2-0.3,0.3-0.5,0.5c-0.2,0.2-0.2,0.4-0.2,0.6c-0.1,0.1-0.2,0.3-0.4,0.4
		c-0.1,0.2-0.3,0.3-0.4,0.4c0.1,0.1,0.2,0.1,0.2,0c-0.2,0.3-0.4,0.7-0.7,1.2c-0.3,0.4-0.5,0.8-0.7,1c-0.2,0.3-0.3,0.6-0.6,0.9
		c-0.2,0.4-0.4,0.7-0.6,1.1c-0.2,0.4-0.4,0.7-0.6,1c-0.2,0.3-0.3,0.6-0.4,0.7c-0.1,0.1-0.2,0.2-0.3,0.4c-0.1,0.2-0.2,0.4-0.3,0.6
		c-0.1,0.2-0.2,0.4-0.3,0.6c-0.1,0.2-0.2,0.4-0.2,0.6c-0.1,0.2-0.2,0.4-0.3,0.6c-0.1,0.2-0.2,0.4-0.2,0.7c0,0-0.1,0-0.1,0.1
		c-0.1,0-0.1,0.1-0.2,0.1l-0.4,0.1c-0.2,0-0.5,0-0.7-0.2c-0.2-0.2-0.5-0.4-0.7-0.7c-0.2-0.3-0.4-0.5-0.5-0.8
		c-0.1-0.3-0.2-0.4-0.2-0.5c0,0,0-0.2,0-0.6c0-0.3,0-0.8-0.1-1.2c0-0.5-0.1-1-0.1-1.5c0-0.5-0.1-1-0.1-1.4c0-0.5,0-1-0.1-1.5
		c0-0.5-0.1-1.1-0.2-1.7c0-0.1-0.1-0.1-0.1-0.2c-0.1-0.1-0.1-0.2-0.1-0.3l-0.1-0.5l0.4,0c0.1,0,0.1,0,0.1,0c0,0,0.1,0,0.1,0
		c0.1,0,0.1,0,0.1,0c0,0,0,0,0.1,0c0,0,0.1,0,0.2,0.1c0.1,0.1,0.2,0.1,0.4,0.2c0.1,0.1,0.3,0.2,0.4,0.3c0.1,0.1,0.2,0.2,0.3,0.3
		c0.1,0.2,0.2,0.4,0.3,0.7c0.1,0.3,0.1,0.5,0.2,0.8c0,0.4,0,0.9,0.1,1.4c0.1,0.5,0.2,1.1,0.4,1.9c0.5-0.7,1-1.5,1.5-2.2
		c0.5-0.7,1-1.3,1.5-1.9c0.1-0.1,0.2-0.2,0.4-0.4c0.2-0.2,0.4-0.4,0.6-0.6c0.2-0.2,0.4-0.4,0.6-0.5c0.2-0.2,0.4-0.3,0.5-0.4
		c0.1-0.1,0.1-0.1,0.1-0.2c0-0.1,0.1-0.1,0.1-0.2c0.2-0.1,0.4-0.2,0.6-0.3c0.2-0.1,0.4-0.2,0.4-0.2c0.2-0.1,0.3-0.1,0.3-0.1
		C-163.3,413.8-163.3,413.8-163.1,413.9z M-164.1,416.4l-0.2,0.2l-0.1-0.1L-164.1,416.4L-164.1,416.4z"/>
	<path d="M-156.9,420.9c-0.1,0.1-0.1,0.2-0.1,0.3c0,0.2,0,0.3,0,0.5c0,0.2,0,0.3-0.1,0.5c0,0.2-0.1,0.3-0.3,0.4c0,0,0.1,0,0.1,0
		c0.1,0,0.1,0,0.1,0.1c0,0.1-0.1,0.1-0.1,0.2c-0.1,0.1-0.1,0.1-0.2,0.2c-0.1,0.1-0.1,0.3-0.1,0.5c-0.2,0.1-0.5,0.3-0.7,0.6
		c-0.3,0.3-0.5,0.5-0.7,0.7c0,0,0,0.1,0,0.2s-0.1,0.1-0.2,0.2c-0.2,0.1-0.4,0.2-0.6,0.2c-0.2,0.1-0.4,0.1-0.5,0.1
		c-0.5,0-0.9-0.1-1.2-0.3c-0.3-0.2-0.6-0.5-0.9-0.9c-0.2-0.3-0.4-0.7-0.6-1.1c-0.1-0.4-0.2-0.8-0.2-1c0-0.2,0-0.4,0-0.8
		c0-0.4,0.1-0.7,0.2-1c0.1-0.3,0.1-0.5,0.2-0.7c0.1-0.2,0.1-0.3,0.1-0.4c0.3-1.2,0.6-2.1,0.9-2.9c0-0.1,0-0.2,0-0.4
		c0.1,0,0.1-0.1,0.1-0.2c0-0.1,0.1-0.2,0.2-0.3c0.1,0,0.2,0,0.3-0.1c0.1,0,0.2-0.1,0.3-0.1c0.3,0,0.7,0.1,1.1,0.4
		c0.4,0.3,0.6,0.6,0.6,1c0,0.1,0,0.1-0.1,0.2c0,0.1-0.1,0.2-0.1,0.3c-0.1,0.3-0.2,0.8-0.3,1.5c-0.1,0.6-0.2,1.1-0.4,1.4
		c-0.1,0.1-0.1,0.3-0.1,0.5c0,0.2-0.1,0.4-0.1,0.5c-0.2,0.6-0.3,1-0.4,1.2c-0.1,0.3-0.1,0.6,0,0.9c0.6-0.3,1.3-0.7,1.9-1.1
		C-157.8,421.8-157.3,421.3-156.9,420.9z M-157.8,411.1c-0.1,0.2-0.1,0.3-0.1,0.5c0,0.2,0.1,0.4,0.1,0.6c0,0.2,0,0.3-0.1,0.4
		c-0.1,0.1-0.3,0.2-0.6,0.2c-0.2,0-0.4,0-0.6-0.1c-0.2-0.1-0.4-0.2-0.5-0.2c0,0,0-0.1,0-0.1s0-0.1-0.1-0.1c-0.2-0.1-0.4-0.3-0.5-0.6
		c-0.1-0.3-0.2-0.5-0.3-0.8c-0.1-0.1-0.1-0.3-0.1-0.4c0-0.2,0-0.3-0.1-0.5c0.3,0,0.6,0,0.7,0c0.2,0,0.3,0,0.5-0.1
		c0.1,0,0.3-0.1,0.4-0.1c0.1,0,0.3-0.1,0.4-0.1c0.1,0.1,0.2,0.2,0.3,0.3c0.1,0.1,0.2,0.2,0.2,0.3c0.1,0.1,0.1,0.2,0.1,0.4
		C-158.1,410.8-158,411-157.8,411.1z"/>
	<path d="M-184.3,389.5c0,0,0.2,0.1,0.6,0.2l0.1,0.1l-0.1,0.3c0,0,0,0.1,0.1,0.3l-0.2,1l0.1,0.1l0,0.3l-0.2,0.4l0.1,0.2
		c-0.1,0.8-0.4,2.2-0.9,4.4c-0.1,0.6-0.2,1.1-0.4,1.5l0.1,0.1c-0.2,0.5-0.3,0.8-0.4,1l0,0.1l0.1,0l0,0.2c-0.1,0.1-0.2,0.3-0.2,0.6
		l0.1,0.1l-0.6,2l-0.2,0l0,0.2c0.1,0,0.1,0,0.2,0.1c-0.2,0.6-0.3,0.9-0.4,1.1c0,0.1,0.1,0.1,0.1,0.2c-0.2,0.6-0.3,1-0.5,1.4
		c0,0.2,0.1,0.4,0.1,0.5l-0.1,0l0-0.2l-0.1,0c-0.1,0-0.1,0-0.1,0.1c0,0.1,0.1,0.2,0.2,0.2c0,0.1-0.2,0.5-0.4,1.1l0.1,0.3
		c0,0.2-0.1,0.3-0.3,0.4c0,0.2,0.1,0.3,0.2,0.3l0,0.1l-0.2,0c-0.2,0-0.3-0.9-0.3-2.6l0-0.3c0-0.2,0-0.5,0.1-0.8l-0.1-0.1
		c0.1-1.4,0.3-2.3,0.4-2.5c0,0,0-0.1-0.1-0.2c0.5-2.8,1.1-5.4,1.7-7.8l0-0.1l-0.1,0c-0.4,0.9-0.6,1.5-0.8,1.7c0,0.1-0.5,1.1-1.5,3
		c-0.5,0.9-0.8,1.5-0.9,1.9c-0.1,0-0.2,0-0.3,0.1l0.1,0.1l0,0.1c-0.5,0.5-0.7,0.9-0.7,1c-0.2,0.3-0.4,0.6-0.7,1.1
		c-0.1,0-0.4,0.4-0.9,1.2c-0.7,0.8-1.4,1.4-1.9,1.7c-0.3,0.1-0.6,0.2-0.9,0.2c-0.8-0.3-1.2-0.7-1.2-1.1c-0.3-0.4-0.4-0.7-0.4-1
		c0-1.7,1.3-4.3,3.7-7.8c1.1-1.5,2.3-2.7,3.7-3.7c1.1-0.8,1.8-1.3,2.2-1.5c0.7,0,1-0.2,1-0.6c0.3-0.4,0.6-0.6,1.1-0.5
		C-184.6,389.6-184.5,389.5-184.3,389.5z M-193.8,403.1c0.3,0,0.9-0.7,1.8-2.2l0.7-0.8c0.1,0,0.1-0.2,0.2-0.6l0.1,0
		c0,0,0,0.1,0.1,0.1c0.2-0.4,0.6-1,1.2-1.9c0.4-0.8,0.7-1.3,0.8-1.3l0.1,0l0.1,0.1l0-0.1l-0.1-0.4c0.4-0.7,0.7-1.1,0.7-1.2
		c0.2,0,0.3,0,0.3-0.1c0,0,0-0.1-0.1-0.3c0.2-0.5,0.4-0.8,0.7-1c0-0.2,0.1-0.3,0.1-0.3c0,0,0,0.1,0.1,0.1l0.1-0.2
		c-0.1-0.1-0.1-0.2-0.1-0.2c-1.5,1.3-2.6,2.4-3.1,3.3c-1.4,1.8-2.5,3.8-3.3,6C-193.7,402.7-193.8,403.1-193.8,403.1z M-188.8,397.8
		c0,0,0,0.1-0.1,0.2l0.1,0c0.1,0,0.1,0,0.1-0.1l0-0.1L-188.8,397.8z M-187.4,405l0,0.2l0.2,0l0-0.2L-187.4,405z M-186.7,392.6l0,0.2
		l0.1,0c0,0,0-0.1,0.1-0.2L-186.7,392.6z M-186.6,401.8l0,0.2l0.1,0L-186.6,401.8L-186.6,401.8z"/>
	<path d="M-174.6,389.3c0.7,0.1,1,0.2,1,0.5c0,0.3-0.2,0.6-0.5,1.1l0,0.1l-0.2,0c-0.3,0-0.8,0.6-1.4,1.7c-0.1,0-0.5,0.4-1.3,1.3
		c0,0.2-0.2,0.4-0.6,0.8c0,0.2-0.2,0.6-0.6,1.4c-0.7,1.9-1.2,3.6-1.5,5.1c-0.2,0.4-0.3,1.4-0.3,2.9c-0.4,1.4-0.8,2.1-1.4,2.1
		c-0.6-0.4-0.8-0.8-0.8-1.2c-0.6-0.2-0.8-0.6-0.8-1.1c0.3-0.5,0.5-1.1,0.7-1.8c0.3-0.4,0.4-0.7,0.4-1c0-0.1,0-0.7-0.1-1.8
		c0-0.1,0.1-0.2,0.1-0.2c-0.1,0-0.2-0.3-0.2-0.8l0-0.1c0-0.1,0-0.1,0.1-0.1c-0.1-0.2-0.2-1-0.1-2.5l0-0.4c0-0.1,0-0.2-0.1-0.3
		c0-0.1,0.1-0.2,0.1-0.3l0-1.4c0.1-0.8,0.2-1.2,0.2-1.4l-0.1-0.5c0-0.2,0.2-0.4,0.4-0.6c0.4,0.3,1,0.7,1.7,1.2l0.2,0.5l0,0.4
		c-0.3,0.9-0.5,1.3-0.5,1.4c0,0.4,0.1,0.6,0.1,0.6c-0.1,0.4-0.2,0.7-0.2,1.1l0,0.2c1-1.7,1.5-2.7,1.8-2.9
		C-177.2,390.8-175.8,389.6-174.6,389.3z"/>
	<path d="M-172.6,392.7l0.2,0.1l0.1,0c0.2,0,0.4,0,0.6,0l0.1,0.1l0.1,0c0.6,0.2,0.9,0.7,0.8,1.6l0,0l0,0.1c-0.1,0.5-0.3,1-0.8,1.7
		l-1,2.9c-0.3,0.8-0.6,1.5-1,2.1c0,0-0.1,0.2-0.2,0.4l0,0.1l-0.3,0.6c0,0.1,0,0.1,0,0.2c-0.2,0.1-0.3,0.2-0.3,0.3l0,0.1l0.1,0l0,0.1
		c0,0.2-0.1,0.3-0.3,0.5l0,0.1l0.1,0l0,0.1l-0.2,0.2l0,0.2l0.2,0.1c0.2,0,1.1-0.5,2.5-1.6c0.5-0.3,0.5-0.3,1-0.5l0.1,0
		c-0.2,0.4,0,0.5-0.3,0.6c0,0-0.2,0.2-0.5,0.6c-0.1,0-0.2,0.1-0.4,0.4c-0.1,0-0.3,0.2-0.4,0.6c0,0-0.3,0.2-0.7,0.6
		c-0.2,0-0.3,0.1-0.4,0.2l0,0.1l0,0.1l-0.1,0l0-0.1l0,0l-0.1,0l0,0.1c-0.1,0.3-0.1,0.5-0.2,0.5l-0.1,0l0-0.1l0.1-0.2
		c0-0.1,0-0.2,0-0.2c-0.2,0-0.3,0.1-0.3,0.2c0,0.2,0.1,0.3,0,0.4c-0.1,0.1-0.2,0.1-0.2,0.1l0-0.1c0-0.1,0.1-0.1,0.1-0.2l-0.1,0
		c-0.1,0-0.1,0-0.1,0.1c0,0.1,0,0.2,0,0.2c-0.2,0-0.4-0.2-0.5-0.4c0,0.1-0.1,0.1-0.2,0.2c-0.5-0.4-0.8-0.9-0.9-1.4l0.1-0.5
		c0.4-2.6,0.6-3.9,0.7-3.9c0,0,0-0.1,0-0.1c0.2-1.1,0.5-2.2,1-3.2c0.2-0.7,0.5-1.2,0.6-1.6C-173.1,393.7-172.7,392.8-172.6,392.7z
		 M-173.2,397.4l0,0.1l0,0L-173.2,397.4L-173.2,397.4z M-169.4,385.3C-169.4,385.3-169.4,385.3-169.4,385.3l0.1,0
		c0.7,0.3,1.1,0.7,1,1.1c-0.1,0.5-0.2,0.7-0.4,0.8c-0.2,0-0.6,0.4-1.1,1.2c0,0-0.4,0.3-1,1c-0.2,0-0.4,0.1-0.4,0.4l-0.2,0.2
		c0,0,0-0.1,0-0.1c0.5-1.4,0.9-2.6,1.2-3.6l0-0.3l-0.1-0.2l0-0.2C-169.8,385.5-169.6,385.4-169.4,385.3z M-171.9,403.7L-171.9,403.7
		c0,0.1-0.1,0.2-0.2,0.3l0-0.1C-172.1,403.8-172,403.7-171.9,403.7z M-170.7,389.1L-170.7,389.1L-170.7,389.1l0.1-0.1
		C-170.7,389-170.7,389-170.7,389.1z"/>
	<path d="M-162.5,390.8l0.2,0l0,0.1l-0.1,0.1l0.1,0.2l-0.1,0.2c0.1,0.1,0.1,0.2,0.1,0.3c0,0.1,0,0.1,0,0.2c0,0,0,0,0,0
		c-0.1,0.5-0.3,1.4-0.8,2.6c-0.1,1-0.2,1.6-0.5,1.7l-0.1,0c-0.2-0.1-0.2-0.2-0.2-0.4c0-0.2,0-0.6,0.1-1.2l-0.1-0.2c0,0,0,0,0.1,0
		c0-0.7-0.1-1-0.3-1c-0.9,0.2-1.7,0.7-2.6,1.6c0,0-0.3,0.2-0.7,0.6c0.2,0.1,1.1,0.7,2.9,1.8c0.7,0.6,1.1,1,1.1,1.3
		c0.2,0.1,0.2,0.2,0.2,0.4l0,0.1c0,0.4-0.1,0.9-0.4,1.7c0,0.1-0.1,0.4-0.3,0.9c0,0-0.2,0.3-0.6,0.8c-0.9,0.8-1.7,1.4-2.2,1.6
		c0,0.1,0,0.1-0.1,0.1l-0.1,0c-0.7,0.5-1.1,0.8-1.4,0.8c0,0-0.1,0.1-0.2,0.2l-0.1,0c-0.2,0.2-0.3,0.3-0.3,0.3c0,0-0.1,0-0.1-0.1
		l-0.6,0.4c-0.1,0.1-0.3,0.2-0.6,0.4l-0.1,0c-0.2-0.2-0.3-0.4-0.3-0.8c-0.1,0-0.1-0.1-0.1-0.2c0,0,0-0.1,0-0.1c0-0.2,0-0.3,0-0.4
		l0-0.2c0-0.4,0.4-1.2,1.3-2.4c0.8-0.9,1.6-1.5,2.3-1.8c0.2-0.1,0.4-0.2,0.7-0.3l0,0c0.3,0,0.6-0.1,0.9-0.3l0,0.1
		c-0.6,0.5-1,0.8-1.1,0.9c-0.4,0.4-0.8,1-1.3,1.9l0,0.2c0.9-0.6,1.8-1.5,2.6-2.5c0.3-0.4,0.4-0.8,0.4-1.1c0-0.3-0.8-0.8-2.3-1.4
		c-0.9-0.4-1.4-0.8-1.4-1c-0.1,0-0.1,0-0.1-0.1c0-0.4,0.1-0.7,0.3-1.1l-0.1-0.1l0.1-0.2c-0.1-0.2-0.1-0.4-0.1-0.4
		c0.1-0.6,0.9-1.7,2.4-3.2c0.8-0.5,1.4-0.8,1.9-0.8l0.1,0c0.5,0,0.8,0.2,1,0.6c0,0,0.1,0.1,0.2,0.2c0.1-0.3,0.2-0.6,0.2-0.8
		C-162.6,391-162.5,390.9-162.5,390.8z M-166.5,393.2L-166.5,393.2l0.2-0.1l0-0.1C-166.4,393.1-166.5,393.1-166.5,393.2z"/>
	<path d="M-151.5,390.2c0,0,0.2,0.1,0.6,0.2l0.1,0.1l-0.1,0.3c0,0,0,0.1,0.1,0.3l-0.2,1l0.1,0.1l0,0.3l-0.2,0.4l0.1,0.2
		c-0.1,0.8-0.4,2.2-0.9,4.4c-0.1,0.6-0.2,1.1-0.4,1.5l0.1,0.1c-0.2,0.5-0.3,0.8-0.4,1l0,0.1l0.1,0l0,0.2c-0.1,0.1-0.2,0.3-0.2,0.6
		l0.1,0.1l-0.6,2l-0.2,0l0,0.2c0.1,0,0.1,0,0.2,0.1c-0.2,0.6-0.3,0.9-0.4,1.1c0,0.1,0.1,0.1,0.1,0.2c-0.2,0.6-0.3,1-0.5,1.4
		c0,0.2,0.1,0.4,0.1,0.5l-0.1,0l0-0.2l-0.1,0c-0.1,0-0.1,0-0.1,0.1c0,0.1,0.1,0.2,0.2,0.2c0,0.1-0.2,0.5-0.4,1.1l0.1,0.3
		c0,0.2-0.1,0.3-0.3,0.4c0,0.2,0.1,0.3,0.2,0.3l0,0.1l-0.2,0c-0.2,0-0.3-0.9-0.3-2.6l0-0.3c0-0.2,0-0.5,0.1-0.8l-0.1-0.1
		c0.1-1.4,0.3-2.3,0.4-2.5c0,0,0-0.1-0.1-0.2c0.5-2.8,1.1-5.4,1.7-7.8l0-0.1l-0.1,0c-0.4,0.9-0.6,1.5-0.8,1.7c0,0.1-0.5,1.1-1.5,3
		c-0.5,0.9-0.8,1.5-0.9,1.9c-0.1,0-0.2,0-0.3,0.1l0.1,0.1l0,0.1c-0.5,0.5-0.7,0.9-0.7,1c-0.2,0.3-0.4,0.6-0.7,1.1
		c-0.1,0-0.4,0.4-0.9,1.2c-0.7,0.8-1.4,1.4-1.9,1.7c-0.3,0.1-0.6,0.2-0.9,0.2c-0.8-0.3-1.2-0.7-1.2-1.1c-0.3-0.4-0.4-0.7-0.4-1
		c0-1.7,1.3-4.3,3.7-7.8c1.1-1.5,2.3-2.7,3.7-3.7c1.1-0.8,1.8-1.3,2.2-1.5c0.7,0,1-0.2,1-0.6c0.3-0.4,0.6-0.6,1.1-0.5
		C-151.7,390.3-151.6,390.2-151.5,390.2z M-161,403.8c0.3,0,0.9-0.7,1.8-2.2l0.7-0.8c0.1,0,0.1-0.2,0.2-0.6l0.1,0c0,0,0,0.1,0.1,0.1
		c0.2-0.4,0.6-1,1.2-1.9c0.4-0.8,0.7-1.3,0.8-1.3l0.1,0l0.1,0.1l0-0.1l-0.1-0.4c0.4-0.7,0.7-1.1,0.7-1.2c0.2,0,0.3,0,0.3-0.1
		c0,0,0-0.1-0.1-0.3c0.2-0.5,0.4-0.8,0.7-1c0-0.2,0.1-0.3,0.1-0.3c0,0,0,0.1,0.1,0.1l0.1-0.2c-0.1-0.1-0.1-0.2-0.1-0.2
		c-1.5,1.3-2.6,2.4-3.1,3.3c-1.4,1.8-2.5,3.8-3.3,6C-160.9,403.4-161,403.8-161,403.8z M-156,398.5c0,0,0,0.1-0.1,0.2l0.1,0
		c0.1,0,0.1,0,0.1-0.1l0-0.1L-156,398.5z M-154.6,405.7l0,0.2l0.2,0l0-0.2L-154.6,405.7z M-153.8,393.3l0,0.2l0.1,0
		c0,0,0-0.1,0.1-0.2L-153.8,393.3z M-153.7,402.4l0,0.2l0.1,0L-153.7,402.4L-153.7,402.4z"/>
	<path d="M-179.7,426.8c-1.8,2.1-1.9,2.1-4.1,3.9c-1.1,0.9-2.3,1.8-3.6,2.6c-0.7,0.4-1.3,0.7-2.1,1c-0.1,0-0.2,0.1-0.3,0.1
		c-0.1,0-0.2,0.1-0.3,0.1c-0.2,0.1-0.4,0.1-0.6,0.2l-0.2,0l-0.1,0l-0.1,0l-0.3,0.1c-0.1,0-0.2,0-0.3,0c-0.1,0-0.2,0-0.3,0
		c-0.4,0-0.9,0-1.4,0c-0.5-0.1-0.9-0.2-1.4-0.3c-0.4-0.2-0.9-0.4-1.3-0.6c-0.4-0.3-0.7-0.5-1.1-0.9c-0.3-0.3-0.6-0.6-0.8-1
		c-0.2-0.3-0.5-0.7-0.7-1c-0.2-0.3-0.4-0.7-0.5-1.1c-0.2-0.4-0.3-0.7-0.4-1.1c-0.5-1.4-0.8-2.9-1.1-4.3c-0.2-1.4-0.4-2.8-0.5-4.3
		c-0.1-1.4-0.1-2.8-0.2-4.2c0-1.4,0-2.8,0.1-4.2c0.1-2.8,0.3-5.6,0.6-8.3c0.3-2.8,0.6-5.5,1-8.3c0.1-0.7,0.2-1.4,0.3-2.1l0.2-1
		l0.2-1c0.2-1.3,0.4-2.7,0.5-4c0-0.2,0-0.3,0-0.4c0-0.1,0-0.3,0-0.4c0-0.2,0-0.4,0-0.5c0-0.1,0-0.3,0-0.3c0-0.1,0-0.2,0-0.3
		c0-0.2,0-0.3,0-0.6c0-0.1,0-0.1,0-0.2s0-0.2,0-0.3c0,0,0,0,0,0c0,0-0.1-0.1-0.1,0c0,0-0.1,0.1-0.1,0.1c-1.9,2.3-3.6,4.8-5.2,7.5
		c-1.6,2.7-2.9,5.5-4.2,8.3c-1.2,2.9-2.3,5.7-3.3,8.6c-0.5,1.4-1,2.8-1.5,4.2c-0.2,0.7-0.5,1.4-0.7,2.1c-0.1,0.3-0.3,0.7-0.4,1
		c-0.1,0.2-0.1,0.3-0.2,0.5c0,0.1-0.1,0.2-0.1,0.3c0,0.1-0.1,0.1-0.1,0.2l-0.1,0.2c-0.2,0.5-0.4,0.9-0.7,1.3
		c-0.2,0.4-0.5,0.8-0.8,1.1c-0.1,0.1-0.1,0.1-0.2,0.2c0,0-0.1,0.1-0.1,0.1c0,0-0.1,0.1-0.1,0.1c-0.2,0.1-0.3,0.2-0.5,0.3
		c-0.3,0.2-0.7,0.3-1.1,0.4c-0.4,0.1-0.8,0-1.2-0.1c0,0-0.1,0-0.1,0c0,0-0.1,0-0.1-0.1c0,0-0.1,0-0.1-0.1l-0.1-0.1
		c-0.1,0-0.2-0.1-0.3-0.1c0,0-0.1-0.1-0.1-0.1c0,0-0.1-0.1-0.1-0.1c-0.3-0.2-0.6-0.5-0.8-0.9c-0.1-0.1-0.1-0.2-0.2-0.3
		c0,0-0.1-0.1-0.1-0.1c0,0-0.1-0.1-0.1-0.2c-0.1-0.2-0.2-0.4-0.3-0.7l-0.1-0.2c0-0.1,0-0.1-0.1-0.2c0-0.1-0.1-0.2-0.1-0.4
		c0-0.1-0.1-0.3-0.1-0.4c0-0.1-0.1-0.3-0.1-0.4c0-0.1,0-0.1,0-0.2c0-0.1,0-0.1,0-0.2c0-0.1,0-0.3-0.1-0.4c0-0.1,0-0.1,0-0.2l0-0.1
		c0-0.1,0-0.2,0-0.2c-0.1-0.6-0.1-1.3-0.1-1.9c0-1.3,0-2.6,0.1-4c0,0,0,0,0,0c0,0,0,0-0.1,0c0,0,0,0,0,0c0,0,0.1-0.7,0.1-1.6
		c0.1-0.8,0.1-1.8,0.2-2.5c0,0,0.1,0,0.1-0.1c0,0,0.1-0.4,0.1-0.9c0.1-0.5,0.1-1.2,0.2-1.9c0,0,0,0,0.1,0c0,0,0,0,0,0c0,0,0,0,0,0
		c0.3-2.8,0.8-5.5,1.1-8.2c0,0,0,0,0.1,0c0,0,0,0,0,0c0,0,0,0,0,0c0-0.2,0.1-0.4,0.1-0.6c0-0.1,0-0.2,0.1-0.3c0-0.1,0-0.2,0.1-0.3
		c0-0.1,0-0.2,0.1-0.3c0-0.1,0-0.1,0-0.2c0-0.1,0-0.1,0-0.2c0,0,0-0.1,0-0.1c0,0,0-0.1,0-0.1c0-0.1,0-0.2,0-0.3c0-0.1,0-0.1,0-0.2
		c0,0,0,0,0-0.1c0,0,0-0.1,0.1-0.1c0,0,0,0.1-0.1,0c0,0,0,0,0,0c0,0,0-0.1-0.1-0.1c0,0,0,0,0-0.1c0,0,0,0-0.1,0c0,0-0.1,0-0.1,0.1
		c-0.1,0.1-0.1,0.1-0.2,0.2c-0.1,0.1-0.1,0.2-0.2,0.3c0,0.1-0.1,0.1-0.1,0.2c0,0,0,0,0,0s0,0,0,0c-0.1,0.1-0.1,0.2-0.2,0.4
		c-0.1,0.2-0.3,0.5-0.4,0.8c-0.3,0.5-0.6,1.1-0.9,1.7c-0.6,1.2-1.2,2.5-1.7,3.6s-1,2.2-1.3,3c-0.2,0.4-0.3,0.7-0.4,0.9
		c0,0.1-0.1,0.2-0.1,0.2c0,0,0,0.1,0,0.1l0,0c-0.5,1.3-0.9,2.2-1.3,3.1c-0.4,0.9-0.7,1.7-1.2,2.8l0,0c0,0,0,0,0,0c0,0,0,0,0,0
		c0,0,0,0,0,0l0,0c0,0,0,0,0,0c0,0,0,0,0,0c0,0,0,0,0,0l0,0c0,0,0,0,0,0c0,0,0,0,0,0l0,0c0,0,0,0,0,0c0,0,0,0,0,0c0,0,0,0,0,0
		c0.1-0.6,0.5-1.7-0.4,0.2c-0.5,1.3-1.3,2.9-2,4.6c-0.8,1.7-1.5,3.5-2.2,5s-1.2,2.7-1.5,3.3c-0.3,0.6-0.4,0.6-0.1-0.4
		c0.2-0.7,0.9-3,1.7-5.2c0.8-2.3,1.5-4.6,1.7-5.2c0,0,0,0,0,0c0.2-0.6,0.7-2,1-3.1c0.3-1.1,0.6-2.1,0.5-2.2v0
		c0.3-0.6,0.5-1.3,0.7-1.7c0.2-0.5,0.3-0.8,0.3-0.8c-0.1,0-0.8,1.5-1.6,3.4c-0.4,1-0.8,2-1.2,3c-0.4,1-0.7,1.8-1,2.5c0,0,0,0,0,0
		c-0.2,0.5-0.3,0.6-0.3,0.4c0-0.2,0.2-1.1,0.5-1.9c0,0,0,0,0,0c0,0,0.1-0.3,0.2-0.7c0.1-0.5,0.3-1.1,0.6-2c0.5-1.7,1.3-4,2.3-6.5
		c0.5-1.3,1.1-2.6,1.7-3.9c0.6-1.3,1.2-2.7,1.9-4.1c0.3-0.7,0.7-1.4,1-2.1c0.1-0.2,0.2-0.4,0.3-0.5l0.1-0.3l0.1-0.2l0.1-0.2
		c0.4-0.7,0.8-1.3,1.2-1.9c0.4-0.6,0.8-1.2,1.3-1.6c0.2-0.2,0.4-0.4,0.7-0.6c0.2-0.2,0.4-0.3,0.6-0.4c0.2-0.1,0.4-0.2,0.6-0.2
		c0.2,0,0.4-0.1,0.6-0.1c0.1,0,0.2,0,0.4,0c0.1,0,0.3,0,0.4,0.1c0.1,0,0.3,0.1,0.4,0.1c0.1,0.1,0.2,0.1,0.3,0.2
		c0.2,0.1,0.3,0.3,0.5,0.4c0.1,0.2,0.3,0.3,0.4,0.5c0.2,0.4,0.4,0.9,0.6,1.5c0.1,0.6,0.2,1.3,0.2,2.1c0,0.7,0,1.5-0.1,2.3l0,0.3
		l0,0.1l0,0.1l0,0.2l0,0.2c0,0.1,0,0.2,0,0.3l-0.1,0.3c-0.1,0.4-0.1,0.7-0.2,1.1c-0.1,0.7-0.2,1.5-0.4,2.2c-0.5,2.9-0.9,5.8-1.2,8.5
		c-0.1,0.7-0.2,1.7-0.3,2.7c-0.1,1-0.2,2-0.2,2.7c0,0.9-0.1,1.9,0,2.8c0,0.5,0,0.9,0.1,1.4l0,0.2l0,0l0,0.1c0,0,0,0.1,0,0.1
		c0,0.1,0,0.2,0.1,0.3c0,0,0,0.1,0.1,0.1c0,0,0.1,0,0.1,0c0,0,0.1,0,0.1,0c0,0,0.1-0.1,0.1-0.1c0.1-0.1,0.1-0.2,0.2-0.2l0-0.1l0,0
		l0,0l0,0l0,0c0.1-0.2,0.2-0.4,0.3-0.7c0.2-0.5,0.4-0.9,0.5-1.4c0.3-0.9,0.7-1.9,1-2.9c0.7-2,1.4-3.9,2.1-5.9c0.7-2,1.5-4,2.4-5.9
		c0.9-2,1.8-3.9,2.8-5.8c1-1.9,2.1-3.8,3.4-5.6c0.6-0.9,1.2-1.8,1.9-2.7c0.3-0.4,0.7-0.9,1-1.3c0.2-0.2,0.3-0.4,0.5-0.6
		c0.1-0.1,0.2-0.2,0.3-0.3l0.3-0.3l0,0l0.1-0.1l0.1-0.1c0-0.1,0.1-0.1,0.1-0.1c0.1-0.1,0.2-0.2,0.3-0.3c0.2-0.2,0.4-0.4,0.6-0.5
		c0.1-0.1,0.2-0.2,0.4-0.3c0.1-0.1,0.3-0.2,0.4-0.2c0,0,0.1,0,0.1-0.1c0,0,0.1,0,0.1-0.1l0.1-0.1c0,0,0.1,0,0.1,0c0,0,0.1,0,0.2,0
		c0.1,0,0.1,0,0.2,0c0.1,0,0.1,0,0.2,0c0.1,0,0.1,0,0.2,0c0.3,0,0.6,0,0.8,0.1c0.3,0.1,0.6,0.2,0.8,0.4c0.1,0,0.1,0.1,0.2,0.1
		c0,0,0.1,0.1,0.1,0.1l0.1,0.1l0,0l0.1,0.1c0,0,0.1,0.1,0.1,0.1c0,0,0.1,0.1,0.1,0.1l0,0.1c0,0,0,0,0,0.1l0.1,0.1c0,0,0,0.1,0.1,0.1
		c0.2,0.3,0.2,0.6,0.3,0.9c0,0,0,0.1,0,0.1l0,0.1c0,0.1,0,0.1,0,0.2c0,0.1,0,0.3,0.1,0.4c0.1,0.5,0.1,1,0.1,1.5c0,0.5,0,0.9,0,1.4
		c-0.1,0.9-0.2,1.8-0.3,2.6c-0.1,0.9-0.3,1.7-0.4,2.6c-0.1,0.4-0.2,0.9-0.2,1.3c-0.1,0.4-0.1,0.8-0.2,1.2c-0.3,1.5-0.5,2.9-0.7,4.4
		c0,0,0,0,0-0.1c0.1-0.9,0.2-1.7,0.4-2.5c-0.2,1-0.3,2.1-0.4,3.1c0-0.2,0.1-0.4,0.1-0.6c-0.2,1.2-0.3,2.4-0.4,3.6
		c-0.3,2.4-0.4,4.4-0.5,5.1c-0.3,2-0.5,4.4-0.6,7.1c-0.1,1.4-0.1,2.8,0,4.3c0,1.5,0.2,3.1,0.4,4.8l0,0c-0.1,0,0,1.4,0.3,2.7
		c0.2,1,0.5,2,0.9,3c0.2,0.5,0.4,1,0.7,1.5l0.1,0.1l0.1,0.1l0.1,0.2c0.1,0.1,0.2,0.2,0.2,0.3c0.2,0.2,0.3,0.4,0.5,0.6
		c0.2,0.2,0.4,0.3,0.6,0.5c0.1,0.1,0.2,0.1,0.3,0.2c0,0,0,0,0,0l0.2,0.1c0.1,0,0.1,0,0.2,0.1c0.4,0.2,0.9,0.3,1.4,0.3
		c0.1,0,0.1,0,0.2,0c0.1,0,0.1,0,0.2,0c0.1,0,0.2,0,0.4,0c0.1,0,0.1,0,0.2,0c0.1,0,0.1,0,0.2,0l0.1,0c0,0,0.1,0,0.1,0
		c0.1,0,0.1,0,0.2,0c0.5-0.1,0.9-0.3,1.4-0.5l-0.2,0.1l-0.1,0.1l-0.1,0l-0.2,0.1c-0.1,0-0.1,0.1-0.2,0.1l-0.1,0c0,0-0.1,0-0.1,0
		l-0.2,0.1l-0.2,0.1c-0.1,0-0.1,0-0.2,0.1l-0.1,0l-0.1,0c0,0,0,0,0,0l-0.1,0l-0.2,0h0c-0.1,0-0.3,0-0.4,0c-0.3,0-0.6,0-0.9-0.1
		c-0.3-0.1-0.3,0-0.1,0c0,0,0.1,0,0.1,0c0.1,0,0.1,0,0.2,0c0,0,0.1,0,0.1,0c0,0,0.1,0,0.1,0c0.1,0,0.1,0,0.2,0c0.1,0,0.1,0,0.2,0
		c0.1,0,0.1,0,0.2,0c0.1,0,0.2,0,0.3,0c0.1,0,0.1,0,0.1,0c0,0-0.1,0-0.2,0c-0.3,0-0.6,0-1,0c-0.3,0-0.7-0.1-1-0.3
		c-0.3-0.1-0.6-0.3-0.9-0.6c-0.3-0.2-0.6-0.5-0.8-0.8c-0.5-0.6-0.9-1.3-1.2-2.1c-0.1-0.2-0.1-0.4-0.2-0.5c-0.1-0.2-0.1-0.4-0.2-0.5
		c-0.1-0.2-0.1-0.3-0.2-0.5c0-0.2-0.1-0.3-0.1-0.4c0,0,0,0-0.1,0c0,0,0,0,0,0.1c0.3,1,0.6,1.8,1,2.6c0.4,0.8,0.8,1.5,1.4,2
		c0.3,0.3,0.6,0.5,0.9,0.7c0.3,0.2,0.7,0.3,1.1,0.4c0.4,0.1,0.8,0.1,1.3,0.1c0.4,0,0.9-0.1,1.4-0.3c0.5-0.1,0.9-0.3,1.3-0.5
		c0.2-0.1,0.4-0.2,0.5-0.2c0.1,0,0.2-0.1,0.2-0.1c0.1,0,0.2-0.1,0.2-0.1c0.1-0.1,0.3-0.2,0.4-0.2c0.1,0,0.1-0.1,0.2-0.1
		c0.1,0,0.1-0.1,0.2-0.1c0.1-0.1,0.2-0.1,0.3-0.2c0.1-0.1,0.2-0.1,0.2-0.1c0.1-0.1,0.3-0.1,0.3-0.2c0.1,0,0.1-0.1,0.1,0
		c0,0,0,0-0.1,0.1c-0.1,0.1-0.2,0.1-0.3,0.2c-0.6,0.4-1.1,0.8-1.8,1.1c-0.6,0.3-1.3,0.6-2,0.8c-0.7,0.2-1.5,0.3-2.2,0.2
		c-0.4,0-0.7-0.1-1.1-0.3c-0.3-0.1-0.7-0.3-1-0.6c-0.6-0.5-1.1-1-1.5-1.7c-0.2-0.3-0.4-0.7-0.5-1c-0.2-0.3-0.3-0.7-0.4-1
		c-0.1-0.3-0.2-0.7-0.4-1.1c-0.1-0.4-0.2-0.7-0.3-1.1c-0.2-0.6-0.3-1.3-0.4-1.9c0.1,0.6,0.1,0.8,0.2,1c0,0.2,0,0.2,0,0.2
		c0,0,0,0,0,0c0-0.2-0.1-0.3-0.1-0.5c-0.1-0.5-0.2-0.9-0.2-1.4c0,0,0,0,0,0c0-0.6-0.1-0.9-0.1-1.4c-0.1-0.9-0.4-3.1-0.5-4
		c0-0.5,0,1,0,2c0,0.4,0.2,0.8,0.1,1.2c-0.3,1.6,0.7,4.7,0.8,6.3c-0.1-0.1-1.1-3.5-1.3-4.2c-0.3-1.1-0.6-4.8-0.4-2.2
		c0.1,0.9,0,1.9,0.1,2.9c0.2,1,0.4,2.1,0.7,3.1c0,0.1,0,0.1,0.1,0.2c0.4,0.9,0.6,1.6,0.7,1.8c0.3,0.5,0.7,1.2,0.8,1.5
		c0.7,1.1,0.4,0.8-0.3-0.3c0,0,0-0.1-0.1-0.1c0,0,0,0.1,0.1,0.1c0.3,0.5,0.6,1.1,1,1.5l0.2,0.2l0.2,0.2l0.1,0.1l0.1,0.1l0.2,0.2
		l0.2,0.2l0.1,0.1l0.1,0.1c0.1,0.1,0.1,0.1,0.2,0.2l0.2,0.1c0.3,0.2,0.6,0.4,0.9,0.5c0.2,0.1,0.3,0.1,0.5,0.2c0.1,0,0.2,0,0.2,0.1
		l0.1,0c0,0,0,0,0,0l0.1,0c0.1,0,0.2,0.1,0.4,0.1c0,0,0.1,0,0.1,0c0.1,0,0.1,0,0.2,0l0.1,0c0.1,0,0.2,0,0.2,0c0.3,0,0.7,0,1,0
		c0.2,0,0.4,0,0.5-0.1c0.2,0,0.3,0,0.4-0.1c0.2,0,0.4-0.1,0.5-0.1c0.1,0,1.4-0.4,2.7-1.2c1.7-1,3.6-2.5,4.9-3.7
		C-180.8,427.8-180.8,427.7-179.7,426.8z"/>
</g>
</svg>
