<svg xmlns="http://www.w3.org/2000/svg" width="83.7" height="55.1" viewBox="-263 369.9 83.7 55.1" enable-background="new -263 369.9 83.7 55.1"><path d="M-211.8 395.3l-.1.1c.1.3.2.6.1 1s-.1.7-.2.9c-.1.5-.2 1.1-.4 1.7l-.5 2.1s-.4 1.4-.6 2.2l-.6 2.1c-.1.3-.2.7-.4 1.1s-.3.8-.5 1.3l.1.1c.2-.2.3-.3.5-.3.2-.1.4-.1.6-.1.3 0 .7 0 1.1.1.4.1.7.2 1 .4.3.2.6.5.8.8s.3.6.4 1c0 .1 0 .3-.1.6-.1.4-.1.7-.2 1-.1.2-.2.5-.3.8-.1.4-.3.7-.4.9-.1.1-.2.3-.4.6s-.3.6-.6.9l-.6.9c-.2.2-.3.4-.4.4-.1 0-.1 0-.1-.1 0 0 0-.1-.1-.1s-.2.1-.3.2-.3.2-.4.3h.1v-.1l-.3-.1s-.2-.1-.3 0c-.1 0-.1 0-.1.1l-.1.1c-.1 0-.2 0-.2-.1l-.2-.2-.2-.2c-.1-.1-.2-.2-.3-.4-.1-.1-.2-.3-.3-.5s-.1-.3-.1-.4 0-.3.1-.5l.2-.4.2.2c0 .1.1.2.1.2 0 .1.1.1.1.1h.2c.1 0 .2-.1.3-.3l.4-.6.4-.7.3-.6c.2-.4.3-.8.5-1.3.1-.5.3-.9.4-1.2l-.1-.4c-.1 0-.2.1-.2.2-.1.1-.1.3-.3.3-.3.1-.4.3-.6.4l-.3.5h-.2c0 .1 0 .2-.1.4s-.2.4-.4.6l-.4.6c-.1.2-.2.4-.3.5.1.1.2.1.2 0l-.4.4c-.1.2-.2.2-.3.3h-.9c-.1 0-.2-.1-.4-.3l-.4-.6c-.1-.2-.3-.5-.5-.9 0-.1 0-.4.1-.7.1-.3.2-.7.3-1.1s.2-.7.3-1l.1-.5c.3-.9.6-1.9.9-2.9l.9-3.2c.3-1.1.6-2.1.9-3.1.3-1 .6-1.9.8-2.7.1-.3.2-.6.3-1s.2-.7.4-1c.1-.1.2-.1.4-.1h.3s.1 0 .2.1l.3.3c.1.1.2.3.4.5.4.3.4.4.4.4zm9.1 15.9c-.1.1-.1.2-.1.3v.5s0 .3-.1.5c0 .2-.1.3-.3.4h.1s.1 0 .1.1-.1.1-.1.2l-.2.2c-.1.1-.1.3-.1.5-.2.1-.5.3-.7.6l-.7.7v.2l-.2.2c-.2.1-.4.2-.6.2-.2.1-.4.1-.5.1-.5 0-.9-.1-1.2-.3-.3-.2-.6-.5-.9-.9-.2-.3-.4-.7-.6-1.1-.1-.4-.2-.8-.2-1v-.8s.1-.7.2-1c.1-.3.1-.5.2-.7.1-.2.1-.3.1-.4.3-1.2.6-2.1.9-2.9v-.4c.1 0 .1-.1.1-.2s.1-.2.2-.3c.1 0 .2 0 .3-.1l.3-.1c.3 0 .7.1 1.1.4.4.3.6.6.6 1 0 .1 0 .1-.1.2l-.1.3c-.1.3-.2.8-.3 1.5-.1.6-.2 1.1-.4 1.4-.1.1-.1.3-.1.5s-.1.4-.1.5c-.2.6-.3 1-.4 1.2-.1.3-.1.6 0 .9.6-.3 1.3-.7 1.9-1.1.9-.4 1.4-.9 1.9-1.3zm-1-9.7c-.1.2-.1.3-.1.5s.1.4.1.6 0 .3-.1.4-.3.2-.6.2c-.2 0-.4 0-.6-.1-.2-.1-.4-.2-.5-.2v-.1s0-.1-.1-.1c-.2-.1-.4-.3-.5-.6l-.3-.8c-.1-.1-.1-.3-.1-.4 0-.2 0-.3-.1-.5h.7c.2 0 .3 0 .5-.1l.4-.1.4-.1.3.3c.1.1.2.2.2.3.1.1.1.2.1.4.1.1.1.2.3.4zm12.7 2.4l-.1.1-.2.2h.2v.1l-.1.1s.1.1.3.1c-.1.2-.3.3-.5.5s-.2.4-.2.6c-.1.1-.2.3-.4.4-.1.2-.3.3-.4.4.1.1.2.1.2 0-.2.3-.4.7-.7 1.2-.3.4-.5.8-.7 1-.2.3-.3.6-.6.9l-.6 1.1c-.2.4-.4.7-.6 1l-.4.7c-.1.1-.2.2-.3.4l-.3.6-.3.6s-.2.4-.2.6l-.3.6s-.2.4-.2.7c0 0-.1 0-.1.1l-.2.1-.4.1c-.2 0-.5 0-.7-.2s-.5-.4-.7-.7c-.2-.3-.4-.5-.5-.8s-.2-.4-.2-.5v-.6c0-.3 0-.8-.1-1.2l-.1-1.5s-.1-1-.1-1.4c0-.5 0-1-.1-1.5 0-.5-.1-1.1-.2-1.7l-.1-.2c-.1-.1-.1-.2-.1-.3l-.1-.5h.8s.1 0 .2.1l.4.2.4.3.3.3c.1.2.2.4.3.7l.2.8c0 .4 0 .9.1 1.4s.2 1.1.4 1.9l1.5-2.2s1-1.3 1.5-1.9l.4-.4.6-.6c.2-.2.4-.4.6-.5.2-.2.4-.3.5-.4s.1-.1.1-.2.1-.1.1-.2l.6-.3.4-.2c.2-.1.3-.1.3-.1l.4.2zm-1 2.5l-.2.2-.1-.1.3-.1zm7.2 4.5c-.1.1-.1.2-.1.3v.5s0 .3-.1.5c0 .2-.1.3-.3.4h.1c.1 0 .1 0 .1.1s-.1.1-.1.2l-.2.2c-.1.1-.1.3-.1.5-.2.1-.5.3-.7.6l-.7.7v.2l-.2.2c-.2.1-.4.2-.6.2-.2.1-.4.1-.5.1-.5 0-.9-.1-1.2-.3-.3-.2-.6-.5-.9-.9-.2-.3-.4-.7-.6-1.1-.1-.4-.2-.8-.2-1v-.8s.1-.7.2-1c.1-.3.1-.5.2-.7.1-.2.1-.3.1-.4.3-1.2.6-2.1.9-2.9v-.4c.1 0 .1-.1.1-.2s.1-.2.2-.3c.1 0 .2 0 .3-.1l.3-.1c.3 0 .7.1 1.1.4.4.3.6.6.6 1 0 .1 0 .1-.1.2l-.1.3c-.1.3-.2.8-.3 1.5-.1.6-.2 1.1-.4 1.4-.1.1-.1.3-.1.5s-.1.4-.1.5c-.2.6-.3 1-.4 1.2-.1.3-.1.6 0 .9.6-.3 1.3-.7 1.9-1.1 1-.4 1.5-.9 1.9-1.3zm-.9-9.8c-.1.2-.1.3-.1.5s.1.4.1.6 0 .3-.1.4-.3.2-.6.2c-.2 0-.4 0-.6-.1-.2-.1-.4-.2-.5-.2v-.1s0-.1-.1-.1c-.2-.1-.4-.3-.5-.6l-.3-.8c-.1-.1-.1-.3-.1-.4 0-.2 0-.3-.1-.5h.7c.2 0 .3 0 .5-.1l.4-.1.4-.1.3.3c.1.1.2.2.2.3.1.1.1.2.1.4 0 .1.1.3.3.4zm-27-21.6s.2.1.6.2l.1.1-.1.3s0 .1.1.3l-.2 1 .1.1v.3l-.2.4.1.2c-.1.8-.4 2.2-.9 4.4-.1.6-.2 1.1-.4 1.5l.1.1c-.2.5-.3.8-.4 1v.1h.1v.2c-.1.1-.2.3-.2.6l.1.1-.6 2h-.2v.2c.1 0 .1 0 .2.1-.2.6-.3.9-.4 1.1l.1.2c-.2.6-.3 1-.5 1.4 0 .2.1.4.1.5h-.1v-.2h-.1c-.1 0-.1 0-.1.1s.1.2.2.2l-.4 1.1.1.3c0 .2-.1.3-.3.4 0 .2.1.3.2.3v.1h-.2c-.2 0-.3-.9-.3-2.6v-.3c0-.2 0-.5.1-.8l-.1-.1c.1-1.4.3-2.3.4-2.5 0 0 0-.1-.1-.2.5-2.8 1.1-5.4 1.7-7.8v-.1h-.1c-.4.9-.6 1.5-.8 1.7 0 .1-.5 1.1-1.5 3-.5.9-.8 1.5-.9 1.9-.1 0-.2 0-.3.1l.1.1v.1c-.5.5-.7.9-.7 1-.2.3-.4.6-.7 1.1-.1 0-.4.4-.9 1.2-.7.8-1.4 1.4-1.9 1.7-.3.1-.6.2-.9.2-.8-.3-1.2-.7-1.2-1.1-.3-.4-.4-.7-.4-1 0-1.7 1.3-4.3 3.7-7.8 1.1-1.5 2.3-2.7 3.7-3.7 1.1-.8 1.8-1.3 2.2-1.5.7 0 1-.2 1-.6.3-.4.6-.6 1.1-.5-.4-.1-.3-.2-.1-.2zm-9.5 13.6c.3 0 .9-.7 1.8-2.2l.7-.8c.1 0 .1-.2.2-.6h.1s0 .1.1.1c.2-.4.6-1 1.2-1.9.4-.8.7-1.3.8-1.3h.1l.1.1v-.1l-.1-.4c.4-.7.7-1.1.7-1.2.2 0 .3 0 .3-.1 0 0 0-.1-.1-.3.2-.5.4-.8.7-1 0-.2.1-.3.1-.3s0 .1.1.1l.1-.2c-.1-.1-.1-.2-.1-.2-1.5 1.3-2.6 2.4-3.1 3.3-1.4 1.8-2.5 3.8-3.3 6-.3.6-.4 1-.4 1zm5-5.3s0 .1-.1.2h.1c.1 0 .1 0 .1-.1v-.1h-.1zm1.4 7.2v.2h.2v-.2h-.2zm.7-12.4v.2h.1s0-.1.1-.2h-.2zm.1 9.2v.2h.1l-.1-.2zm12-12.5c.7.1 1 .2 1 .5s-.2.6-.5 1.1v.1h-.2c-.3 0-.8.6-1.4 1.7-.1 0-.5.4-1.3 1.3 0 .2-.2.4-.6.8 0 .2-.2.6-.6 1.4-.7 1.9-1.2 3.6-1.5 5.1-.2.4-.3 1.4-.3 2.9-.4 1.4-.8 2.1-1.4 2.1-.6-.4-.8-.8-.8-1.2-.6-.2-.8-.6-.8-1.1.3-.5.5-1.1.7-1.8.3-.4.4-.7.4-1 0-.1 0-.7-.1-1.8 0-.1.1-.2.1-.2-.1 0-.2-.3-.2-.8v-.1c0-.1 0-.1.1-.1-.1-.2-.2-1-.1-2.5v-.4c0-.1 0-.2-.1-.3l.1-.3v-1.4l.2-1.4-.1-.5c0-.2.2-.4.4-.6.4.3 1 .7 1.7 1.2l.2.5v.4c-.3.9-.5 1.3-.5 1.4 0 .4.1.6.1.6-.1.4-.2.7-.2 1.1v.2c1-1.7 1.5-2.7 1.8-2.9 1.3-2.5 2.7-3.7 3.9-4zm2 3.4l.2.1h.7l.1.1h.1c.6.2.9.7.8 1.6v.1c-.1.5-.3 1-.8 1.7l-1 2.9c-.3.8-.6 1.5-1 2.1l-.2.4v.1l-.3.6v.2c-.2.1-.3.2-.3.3v.1h.1v.1c0 .2-.1.3-.3.5v.1h.1v.1l-.2.2v.2l.2.1c.2 0 1.1-.5 2.5-1.6.5-.3.5-.3 1-.5h.1c-.2.4 0 .5-.3.6 0 0-.2.2-.5.6-.1 0-.2.1-.4.4-.1 0-.3.2-.4.6 0 0-.3.2-.7.6-.2 0-.3.1-.4.2v.2h-.1v-.1h-.1v.1c-.1.3-.1.5-.2.5h-.1v-.1l.1-.2v-.2c-.2 0-.3.1-.3.2 0 .2.1.3 0 .4l-.2.1v-.1l.1-.2h-.1c-.1 0-.1 0-.1.1v.2c-.2 0-.4-.2-.5-.4 0 .1-.1.1-.2.2-.5-.4-.8-.9-.9-1.4l.1-.5c.4-2.6.6-3.9.7-3.9v-.1c.2-1.1.5-2.2 1-3.2.2-.7.5-1.2.6-1.6.6-1.5 1-2.4 1.1-2.5zm-.6 4.7v.1-.1zm3.8-12.1h.1c.7.3 1.1.7 1 1.1-.1.5-.2.7-.4.8-.2 0-.6.4-1.1 1.2 0 0-.4.3-1 1-.2 0-.4.1-.4.4l-.2.2v-.1c.5-1.4.9-2.6 1.2-3.6v-.3l-.1-.2v-.2c.5-.1.7-.2.9-.3zm-2.5 18.4c0 .1-.1.2-.2.3v-.1c0-.1.1-.2.2-.2zm1.2-14.6l.1-.1c-.1 0-.1 0-.1.1zm8.2 1.7h.2v.1l-.1.1.1.2-.1.2c.1.1.1.2.1.3v.2c-.1.5-.3 1.4-.8 2.6-.1 1-.2 1.6-.5 1.7h-.1c-.2-.1-.2-.2-.2-.4s0-.6.1-1.2l-.1-.2h.1c0-.7-.1-1-.3-1-.9.2-1.7.7-2.6 1.6 0 0-.3.2-.7.6.2.1 1.1.7 2.9 1.8.7.6 1.1 1 1.1 1.3.2.1.2.2.2.4v.1c0 .4-.1.9-.4 1.7 0 .1-.1.4-.3.9 0 0-.2.3-.6.8-.9.8-1.7 1.4-2.2 1.6 0 .1 0 .1-.1.1h-.1c-.7.5-1.1.8-1.4.8l-.2.2h-.1l-.3.3s-.1 0-.1-.1l-.6.4c-.1.1-.3.2-.6.4h-.1c-.2-.2-.3-.4-.3-.8-.1 0-.1-.1-.1-.2v-.7c0-.4.4-1.2 1.3-2.4.8-.9 1.6-1.5 2.3-1.8.2-.1.4-.2.7-.3.3 0 .6-.1.9-.3v.1l-1.1.9c-.4.4-.8 1-1.3 1.9v.2c.9-.6 1.8-1.5 2.6-2.5.3-.4.4-.8.4-1.1 0-.3-.8-.8-2.3-1.4-.9-.4-1.4-.8-1.4-1-.1 0-.1 0-.1-.1 0-.4.1-.7.3-1.1l-.1-.1.1-.2c-.1-.2-.1-.4-.1-.4.1-.6.9-1.7 2.4-3.2.8-.5 1.4-.8 1.9-.8h.1c.5 0 .8.2 1 .6l.2.2c.1-.3.2-.6.2-.8.1 0 .2-.1.2-.2zm-4 2.4l.2-.1v-.1c-.1.1-.2.1-.2.2zm15-3s.2.1.6.2l.1.1-.1.3s0 .1.1.3l-.2 1 .1.1v.3l-.2.4.1.2c-.1.8-.4 2.2-.9 4.4-.1.6-.2 1.1-.4 1.5l.1.1c-.2.5-.3.8-.4 1v.1h.1v.2c-.1.1-.2.3-.2.6l.1.1-.6 2h-.2v.2c.1 0 .1 0 .2.1-.2.6-.3.9-.4 1.1l.1.2c-.2.6-.3 1-.5 1.4 0 .2.1.4.1.5h-.1v-.2h-.1c-.1 0-.1 0-.1.1s.1.2.2.2l-.4 1.1.1.3c0 .2-.1.3-.3.4 0 .2.1.3.2.3v.1h-.2c-.2 0-.3-.9-.3-2.6v-.3c0-.2 0-.5.1-.8l-.1-.1c.1-1.4.3-2.3.4-2.5 0 0 0-.1-.1-.2.5-2.8 1.1-5.4 1.7-7.8v-.1h-.1c-.4.9-.6 1.5-.8 1.7 0 .1-.5 1.1-1.5 3-.5.9-.8 1.5-.9 1.9-.1 0-.2 0-.3.1l.1.1v.1c-.5.5-.7.9-.7 1-.2.3-.4.6-.7 1.1-.1 0-.4.4-.9 1.2-.7.8-1.4 1.4-1.9 1.7-.3.1-.6.2-.9.2-.8-.3-1.2-.7-1.2-1.1-.3-.4-.4-.7-.4-1 0-1.7 1.3-4.3 3.7-7.8 1.1-1.5 2.3-2.7 3.7-3.7 1.1-.8 1.8-1.3 2.2-1.5.7 0 1-.2 1-.6.3-.4.6-.6 1.1-.5-.3-.1-.2-.2-.1-.2zm-9.5 13.6c.3 0 .9-.7 1.8-2.2l.7-.8c.1 0 .1-.2.2-.6h.1s0 .1.1.1c.2-.4.6-1 1.2-1.9.4-.8.7-1.3.8-1.3h.1l.1.1v-.1l-.1-.4c.4-.7.7-1.1.7-1.2.2 0 .3 0 .3-.1 0 0 0-.1-.1-.3.2-.5.4-.8.7-1 0-.2.1-.3.1-.3s0 .1.1.1l.1-.2c-.1-.1-.1-.2-.1-.2-1.5 1.3-2.6 2.4-3.1 3.3-1.4 1.8-2.5 3.8-3.3 6-.3.6-.4 1-.4 1zm5-5.3s0 .1-.1.2h.1c.1 0 .1 0 .1-.1v-.1h-.1zm1.4 7.2v.2h.2v-.2h-.2zm.8-12.4v.2h.1s0-.1.1-.2h-.2zm.1 9.1v.2h.1l-.1-.2zm-26 24.4c-1.8 2.1-1.9 2.1-4.1 3.9-1.1.9-2.3 1.8-3.6 2.6-.7.4-1.3.7-2.1 1l-.3.1s-.2.1-.3.1l-.6.2h-.4l-.3.1h-2l-1.4-.3-1.3-.6c-.4-.3-.7-.5-1.1-.9-.3-.3-.6-.6-.8-1l-.7-1s-.4-.7-.5-1.1c-.2-.4-.3-.7-.4-1.1-.5-1.4-.8-2.9-1.1-4.3-.2-1.4-.4-2.8-.5-4.3l-.2-4.2c0-1.4 0-2.8.1-4.2.1-2.8.3-5.6.6-8.3.3-2.8.6-5.5 1-8.3l.3-2.1.2-1 .2-1c.2-1.3.4-2.7.5-4v-3s-.1-.1-.1 0l-.1.1c-1.9 2.3-3.6 4.8-5.2 7.5s-2.9 5.5-4.2 8.3c-1.2 2.9-2.3 5.7-3.3 8.6l-1.5 4.2-.7 2.1-.4 1-.2.5-.1.3-.1.2-.1.2c-.2.5-.4.9-.7 1.3-.2.4-.5.8-.8 1.1l-.2.2-.1.1-.1.1-.5.3c-.3.2-.7.3-1.1.4-.4.1-.8 0-1.2-.1h-.1s-.1 0-.1-.1c0 0-.1 0-.1-.1l-.1-.1-.3-.1-.1-.1-.1-.1c-.3-.2-.6-.5-.8-.9l-.2-.3-.1-.1s-.1-.1-.1-.2c-.1-.2-.2-.4-.3-.7l-.1-.2c0-.1 0-.1-.1-.2 0-.1-.1-.2-.1-.4l-.1-.4s-.1-.3-.1-.4v-.4s0-.3-.1-.4v-.5c-.1-.6-.1-1.3-.1-1.9 0-1.3 0-2.6.1-4h-.1s.1-.7.1-1.6c.1-.8.1-1.8.2-2.5 0 0 .1 0 .1-.1 0 0 .1-.4.1-.9.1-.5.1-1.2.2-1.9h.1c.3-2.8.8-5.5 1.1-8.2h.1l.1-.6c0-.1 0-.2.1-.3 0-.1 0-.2.1-.3 0-.1 0-.2.1-.3v-1.2s0-.1.1-.1c0 0 0 .1-.1 0 0 0 0-.1-.1-.1v-.1h-.1s-.1 0-.1.1l-.2.2-.2.3-.1.2c-.1.1-.1.2-.2.4s-.3.5-.4.8c-.3.5-.6 1.1-.9 1.7-.6 1.2-1.2 2.5-1.7 3.6s-1 2.2-1.3 3c-.2.4-.3.7-.4.9 0 .1-.1.2-.1.2v.1c-.5 1.3-.9 2.2-1.3 3.1-.4.9-.7 1.7-1.2 2.8.1-.6.5-1.7-.4.2-.5 1.3-1.3 2.9-2 4.6-.8 1.7-1.5 3.5-2.2 5l-1.5 3.3c-.3.6-.4.6-.1-.4.2-.7.9-3 1.7-5.2.8-2.3 1.5-4.6 1.7-5.2.2-.6.7-2 1-3.1.3-1.1.6-2.1.5-2.2.3-.6.5-1.3.7-1.7.2-.5.3-.8.3-.8-.1 0-.8 1.5-1.6 3.4l-1.2 3s-.7 1.8-1 2.5c-.2.5-.3.6-.3.4s.2-1.1.5-1.9c0 0 .1-.3.2-.7.1-.5.3-1.1.6-2 .5-1.7 1.3-4 2.3-6.5.5-1.3 1.1-2.6 1.7-3.9s1.2-2.7 1.9-4.1l1-2.1c.1-.2.2-.4.3-.5l.1-.3.1-.2.1-.2c.4-.7.8-1.3 1.2-1.9s.8-1.2 1.3-1.6c.2-.2.4-.4.7-.6.2-.2.4-.3.6-.4.2-.1.4-.2.6-.2l.6-.1h.4c.1 0 .3 0 .4.1l.4.1.3.2.5.4.4.5c.2.4.4.9.6 1.5.1.6.2 1.3.2 2.1 0 .7 0 1.5-.1 2.3v1.2l-.1.3-.2 1.1c-.1.7-.2 1.5-.4 2.2-.5 2.9-.9 5.8-1.2 8.5-.1.7-.2 1.7-.3 2.7s-.2 2-.2 2.7c0 .9-.1 1.9 0 2.8 0 .5 0 .9.1 1.4v.4c0 .1 0 .2.1.3 0 0 0 .1.1.1h.2l.1-.1c.1-.1.1-.2.2-.2v-.1c.1-.2.2-.4.3-.7.2-.5.4-.9.5-1.4.3-.9.7-1.9 1-2.9l2.1-5.9c.7-2 1.5-4 2.4-5.9.9-2 1.8-3.9 2.8-5.8s2.1-3.8 3.4-5.6c.6-.9 1.2-1.8 1.9-2.7l1-1.3.5-.6.3-.3.3-.3.1-.1.1-.1c0-.1.1-.1.1-.1l.3-.3c.2-.2.4-.4.6-.5.1-.1.2-.2.4-.3.1-.1.3-.2.4-.2 0 0 .1 0 .1-.1 0 0 .1 0 .1-.1l.1-.1h.9c.3 0 .6 0 .8.1.3.1.6.2.8.4l.2.1.1.1.1.1.1.1.1.1.1.1v.2l.1.1s0 .1.1.1c.2.3.2.6.3.9v.4s0 .3.1.4c.1.5.1 1 .1 1.5v1.4c-.1.9-.2 1.8-.3 2.6l-.4 2.6c-.1.4-.2.9-.2 1.3l-.2 1.2c-.3 1.5-.5 2.9-.7 4.4v-.1c.1-.9.2-1.7.4-2.5-.2 1-.3 2.1-.4 3.1l.1-.6c-.2 1.2-.3 2.4-.4 3.6-.3 2.4-.4 4.4-.5 5.1-.3 2-.5 4.4-.6 7.1-.1 1.4-.1 2.8 0 4.3 0 1.5.2 3.1.4 4.8-.1 0 0 1.4.3 2.7.2 1 .5 2 .9 3 .2.5.4 1 .7 1.5l.1.1.1.1.1.2c.1.1.2.2.2.3l.5.6s.4.3.6.5l.3.2.2.1c.1 0 .1 0 .2.1.4.2.9.3 1.4.3h1.6c.5-.1.9-.3 1.4-.5l-.2.1-.1.1h-.1l-.2.1-.2.1h-.2l-.2.1-.2.1c-.1 0-.1 0-.2.1h-.9c-.3 0-.6 0-.9-.1-.3-.1-.3 0-.1 0h1.5-.2-1c-.3 0-.7-.1-1-.3-.3-.1-.6-.3-.9-.6-.3-.2-.6-.5-.8-.8-.5-.6-.9-1.3-1.2-2.1-.1-.2-.1-.4-.2-.5-.1-.2-.1-.4-.2-.5l-.2-.5c0-.2-.1-.3-.1-.4h-.1v.1c.3 1 .6 1.8 1 2.6s.8 1.5 1.4 2c.3.3.6.5.9.7.3.2.7.3 1.1.4.4.1.8.1 1.3.1.4 0 .9-.1 1.4-.3.5-.1.9-.3 1.3-.5.2-.1.4-.2.5-.2l.2-.1c.1 0 .2-.1.2-.1.1-.1.3-.2.4-.2l.2-.1.2-.1.3-.2.2-.1c.1-.1.3-.1.3-.2h.1l-.1.1s-.2.1-.3.2c-.6.4-1.1.8-1.8 1.1-.6.3-1.3.6-2 .8-.7.2-1.5.3-2.2.2-.4 0-.7-.1-1.1-.3-.3-.1-.7-.3-1-.6-.6-.5-1.1-1-1.5-1.7-.2-.3-.4-.7-.5-1-.2-.3-.3-.7-.4-1-.1-.3-.2-.7-.4-1.1l-.3-1.1c-.2-.6-.3-1.3-.4-1.9.1.6.1.8.2 1v.2l-.1-.5c-.1-.5-.2-.9-.2-1.4 0-.6-.1-.9-.1-1.4l-.5-4v2c0 .4.2.8.1 1.2-.3 1.6.7 4.7.8 6.3-.1-.1-1.1-3.5-1.3-4.2-.3-1.1-.6-4.8-.4-2.2l.1 2.9c.2 1 .4 2.1.7 3.1 0 .1 0 .1.1.2.4.9.6 1.6.7 1.8.3.5.7 1.2.8 1.5.7 1.1.4.8-.3-.3 0 0 0-.1-.1-.1 0 0 0 .1.1.1.3.5.6 1.1 1 1.5l.2.2.2.2.1.1.1.1.2.2.2.2.1.1.1.1.2.2.2.1c.3.2.6.4.9.5l.5.2c.1 0 .2 0 .2.1h.2c.1 0 .2.1.4.1h1.6c.2 0 .4 0 .5-.1.2 0 .3 0 .4-.1.2 0 .4-.1.5-.1s1.4-.4 2.7-1.2c1.7-1 3.6-2.5 4.9-3.7.9-1.6.9-1.7 2-2.6z"/></svg>