<?xml version="1.0" encoding="utf-8"?>
<!-- Generator: Adobe Illustrator 19.1.0, SVG Export Plug-In . SVG Version: 6.00 Build 0)  -->
<!DOCTYPE svg PUBLIC "-//W3C//DTD SVG 1.1//EN" "http://www.w3.org/Graphics/SVG/1.1/DTD/svg11.dtd">
<svg version="1.1" id="Layer_1" xmlns="http://www.w3.org/2000/svg" xmlns:xlink="http://www.w3.org/1999/xlink" x="0px" y="0px"
	 width="176.6px" height="176.6px" viewBox="-523 308.4 176.6 176.6" style="enable-background:new -523 308.4 176.6 176.6;"
	 xml:space="preserve">
<style type="text/css">
	.st0{fill:#126B75;}
	.st1{fill:#FFFFFF;}
</style>
<path class="st0" d="M-402.6,340.4c-1.2,0.4-2.3,1.2-3.2,2.1c-0.7,0.6-1.3,1.2-1.9,1.9l-1.5,1.8c-1,1.2-2,2.4-2.9,3.7
	c-3.8,5-7.2,10.2-10.3,15.6c-6.2,10.8-11.1,22.2-15.2,33.6c-2.1,5.7-4,11.4-5.9,17c-1,2.8-2,5.5-3.1,8c-0.3,0.6-0.6,1.2-0.9,1.7
	l-0.2,0.4l-0.1,0.1l-0.1,0.2c-0.2,0.2-0.5,0.4-0.7,0.2l-0.3-0.3l-0.1-0.2v-0.1l-0.1-0.2l-0.1-0.5c-0.3-1.3-0.5-2.8-0.6-4.3
	c-0.2-3-0.2-6.2,0-9.3c0.2-3.1,0.8-9.5,1.2-12.6c0.7-6.3,1.6-13.1,2.7-20l0.9-5.2c0.1-0.9,0.3-1.8,0.4-2.6c0.2-0.9,0.3-1.9,0.4-2.9
	s0.2-2,0.2-3v-3.2c-0.1-1.8-0.2-3.6-0.7-5.2s-1.2-2.7-2.1-3.5c-0.5-0.4-1-0.7-1.7-0.9c-0.7-0.2-1.4-0.3-2-0.2
	c-1.2,0.1-2.4,0.7-3.7,1.7c-1.2,1-2.3,2.5-3.4,3.9l-0.6,0.9l-0.4,0.6l-0.8,1.2c-2,3.3-3.6,6.5-5.2,9.8c-2.9,6.4-5.6,12.7-8.1,18.7
	s-4.4,11.4-5.6,15.2c-1.3,3.9-1.9,6.2-1.9,6.2c-1,3.1-1.9,6.2-0.5,3.3c1.2-3,3.3-8.3,5.1-12.8c0.9-2.2,1.8-4.3,2.5-5.8
	c0.6-1.5,1.1-2.3,1.2-2.3c0,0-0.2,0.8-0.7,1.9s-1.1,2.6-1.7,4.1c0.3,0.1-2.7,9.4-3.8,12.4c-0.5,1.6-2.4,6.9-4.2,12.2
	c-1.3,3.8-2.6,7.6-3.3,10l-37.4-37.1l88.3-88.3L-402.6,340.4L-402.6,340.4z M-402.7,445c0.4,2.1,0.9,4.2,1.5,6.3l-2.1,2.1
	c-1.2-3.3-1.8-6.6-2.3-9.7c-1.5-9.4-1.4-17.6-1.2-22.5c0.1-2.8,0.3-5.5,0.7-12.1c-0.1,1.9-0.2,3.7-0.2,5.6h0.3
	c0.5-13,2.3-29.1,4.4-41.9h0.2c0,0,0.3-1.6,0.5-3.2c0.3-1.6,0.5-3.2,0.5-3.2c0.9-3.1-0.4,4-1.7,14.1c-1.4,10-2.5,22.9-2.8,31h0.3
	l0.2-3.2l0.2-3.2h0.2c-0.7,9.7-0.9,18.5-0.4,27.4c0.3,4.4,0.7,8.8,1.6,13.3l0.2,1.1C-402.4,446.8-402.4,446.8-402.7,445L-402.7,445z
	 M-400.9,356.6c-0.3,3.1-0.8,6.2-1.3,9.4c-0.5,3.2-1.1,6.4-1.5,9.7c-0.9,6.4-1.7,12.9-2.3,19.4c-1.2,13-1.9,26-1,39.2
	c0.2,3.3,0.6,6.6,1.1,9.9c0.5,3.2,1.3,6.5,2.4,9.7l-31.1,31.1l-50.7-50.7c0.6-1.4,1.4-3.2,2.2-5.1c3-7.1,7.1-16.7,9.6-22.6
	s0.4,0.2,0.6,0.3c2.3-6,3.8-8.9,6.2-14.9c0,0,0.1-0.3,0.4-0.8c0.2-0.5,0.5-1.2,0.9-2.1c0.8-1.8,1.9-4.3,3.1-7
	c2.5-5.5,5.6-11.9,7.9-16c0,0,0.4-0.7,1.3-2.3l0.4-0.6c0.1-0.2,0.2-0.4,0.4-0.6c0.1-0.1,0.2-0.2,0.2-0.4l0.3-0.4
	c0.1-0.1,0.2-0.1,0.3-0.1s0.2,0.1,0.2,0.2c0.2,0.6,0.2,0.5,0.3,0.5c0.2-0.1,0.2-0.1,0.1-0.1c0,0.1,0,0.1,0.1,0.2v0.7
	c0,1,0,2.1-0.1,3.2s-0.2,2.2-0.4,3.2c-0.2,1.1-0.4,2.1-0.5,2.9h-0.2c-0.9,6.4-2,12.8-2.7,19.3h-0.2c-0.2,1.6-0.4,3.2-0.5,4.5
	c-0.2,1.2-0.2,2-0.3,2h-0.2c-0.2,1.6-0.4,4.1-0.5,6.1c-0.2,2-0.2,3.7-0.3,3.7h0.2c-0.2,4.5-0.3,8.6-0.1,12.6c0.1,2,0.3,4,0.8,6
	l0.2,0.8c0,0.1,0.1,0.2,0.1,0.4l0.2,0.5c0.3,0.8,0.6,1.5,1,2.2c0.8,1.4,2,2.4,3.3,3c0.7,0.2,1.4,0.4,2.1,0.5c0.7,0,1.4-0.1,2.1-0.3
	c1.3-0.4,2.5-1.3,3.5-2.5l0.7-0.9c0.2-0.3,0.5-0.7,0.6-0.9c0.3-0.4,0.5-0.8,0.7-1.2c0.4-0.8,0.8-1.6,1.1-2.3
	c1.4-3.2,2.5-6.4,3.7-9.6c1.1-3.2,2.2-6.5,3.4-9.9c2.3-6.7,4.8-13.5,7.7-20.2c5.8-13.5,13.2-26.6,22.2-37.5l0.7-0.8l0.6-0.6l0.3-0.3
	v-0.1c0-0.1,0-0.2-0.2-0.2c0.2-0.1,0.4-0.3,0.6-0.2c0.1,0.1,0.2,0.2,0.2,0.3v0.6c0.2,1.3,0.2,2.3,0.2,2.9v1.4
	C-400.7,352.8-400.6,353.5-400.9,356.6L-400.9,356.6z M-400.6,450.7l-0.1,0.1c-0.1-0.4-0.2-0.8-0.3-1.1h0.2
	C-400.8,450-400.7,450.4-400.6,450.7z M-346.4,396.6l-53.8,53.8c-0.4-1.3-0.7-2.6-1-3.9c-0.6-3.1-0.9-6.3-0.7-6.3
	c-1-7.9-1.1-15.1-0.9-21.5s0.7-12,1.3-16.8c0.2-1.6,0.7-6.4,1.3-12c0.3-2.7,0.7-5.6,1-8.5v-0.2c0.8-5.4,1.7-10.8,2.7-16.3
	c0.5-3,1-6.1,1.3-9.2l0.2-2.4l0.1-2.4v-3L-346.4,396.6L-346.4,396.6z"/>
<path class="st1" d="M-924.9,757.5c-0.2-0.8-0.4-1.6-0.5-2.3C-925.3,756-925.1,756.8-924.9,757.5z M-924,760.9c0-0.1,0-0.2-0.1-0.2
	c0.1,0.3,0.2,0.6,0.3,0.8C-923.8,761.3-923.9,761.1-924,760.9z"/>
</svg>
