<?xml version="1.0" encoding="utf-8"?>
<!-- Generator: Adobe Illustrator 19.1.0, SVG Export Plug-In . SVG Version: 6.00 Build 0)  -->
<!DOCTYPE svg PUBLIC "-//W3C//DTD SVG 1.1//EN" "http://www.w3.org/Graphics/SVG/1.1/DTD/svg11.dtd">
<svg version="1.1" id="Layer_1" xmlns="http://www.w3.org/2000/svg" xmlns:xlink="http://www.w3.org/1999/xlink" x="0px" y="0px"
	 width="120.3px" height="36.3px" viewBox="0 0 120.3 36.3" style="enable-background:new 0 0 120.3 36.3;" xml:space="preserve">
<style type="text/css">
	.st0{font-family:'gogozombie';}
	.st1{font-size:30.2194px;}
	.st2{stroke:#000000;stroke-width:0.3;stroke-miterlimit:10;}
	.st3{fill:none;}
</style>
<text transform="matrix(1 0 0 1 17.8848 25.6859)" class="st0 st1">MARISA </text>
<g>
	<path d="M26.2,5.2c0.2,0.5,0.2,0.9,0.2,1.4c0,0.5,0,0.9,0,1.4c0,0.5,0,1-0.1,1.6c0,0.5,0,1,0.1,1.6c0.1,0.5,0.3,1.1,0.5,1.6
		c0.2,0.5,0.4,1.1,0.4,1.7c0.1,0.6,0.1,1.2,0,1.8c-0.1,0.6-0.1,1.2,0,1.7c0,0.1,0,0.2,0.1,0.3c0.1,0.1,0.1,0.2,0.1,0.4
		c0.1,0.3,0.1,0.5,0.1,0.8c0,0.3-0.1,0.6-0.1,0.9v3.5c0,0.3,0,0.6,0,0.9c0,0.4-0.1,0.6-0.2,0.8c-0.1,0.1-0.3,0.1-0.5,0.1
		c-0.3,0-0.5,0-0.7-0.1c0-0.1-0.1-0.3-0.1-0.5c0-0.2,0-0.4,0-0.6c0-0.2,0-0.4,0-0.6c0-0.2,0-0.4,0-0.5c-0.1-0.7-0.2-1.4-0.3-2.1
		c-0.2-0.7-0.3-1.5-0.4-2.1c0-0.1,0-0.2-0.1-0.3c-0.1-0.1-0.1-0.2-0.1-0.4c0-1.2,0-2.5,0.1-3.9c0.1-1.4,0.1-2.8,0.1-4.1
		c-0.3,0.4-0.7,0.8-1,1.2c-0.3,0.4-0.6,0.9-0.9,1.4c-0.3,0-0.5-0.1-0.7-0.3c-0.2-0.2-0.4-0.3-0.5-0.4C22,12,21.9,12,21.8,12
		c-0.1,0-0.2,0-0.3-0.1c-0.2-0.1-0.5-0.2-0.7-0.4c-0.2-0.2-0.4-0.3-0.7-0.3c-0.1,0.1-0.2,0.2-0.2,0.4c0,0.2,0,0.3,0,0.5
		c0,0.1,0,0.2,0.1,0.3c0.1,0.1,0.1,0.2,0.1,0.3c0,0.2,0.1,0.4,0,0.6c0,0.2,0,0.4,0,0.6c0,0.2,0,0.4,0,0.7c0,0.2,0,0.5,0,0.7
		c0.1,0.3,0.2,0.7,0.2,1.2c0.1,0.5,0.1,0.9,0.1,1.2v2.8c0,0.5,0,1,0.1,1.5c0,0.5,0,0.9-0.1,1.3c0,0.2,0,0.4-0.1,0.5
		c-0.1,0.2-0.1,0.3-0.1,0.4c0,0.3,0,0.5,0.1,0.7c0,0.2,0,0.4-0.1,0.7c-0.2,0.1-0.4,0.1-0.7,0.1c-0.3,0-0.5,0-0.7-0.1
		c-0.1-0.2-0.1-0.4-0.1-0.6c0-0.2,0.1-0.4,0.1-0.6v-3.5c0-0.5,0-1.1,0.1-1.6c0.1-0.6,0-1.1-0.1-1.6c0-0.2,0-0.3-0.1-0.4
		c-0.1-0.1-0.1-0.3-0.1-0.4c-0.1-0.7-0.1-1.5-0.1-2.3c0-0.8,0.1-1.6,0.1-2.4c0-1,0-2,0-3c0-1-0.1-1.9-0.1-2.7c0,0.1,0.1,0.1,0.1,0.1
		c0,0,0,0,0.1-0.1c0,0,0-0.1,0.1-0.1c0-0.1,0.1-0.1,0.1-0.1c0.2-0.2,0.4-0.2,0.6-0.2c0.2,0.1,0.3,0.2,0.5,0.4
		c0.1,0.2,0.2,0.4,0.3,0.6c0.1,0.3,0.1,0.5,0.2,0.7v1.1c0,0.2,0.1,0.4,0.3,0.6c0.2,0.2,0.3,0.4,0.4,0.6c0.2,0.2,0.3,0.3,0.5,0.5
		c0.2,0.2,0.4,0.3,0.7,0.3c0.3-0.1,0.5-0.3,0.7-0.7c0.2-0.4,0.4-0.7,0.5-1.1c0.1-0.2,0.2-0.3,0.3-0.4c0.1-0.1,0.2-0.2,0.2-0.3V7.6
		c0.1-0.2,0.2-0.3,0.4-0.5c0.1-0.2,0.3-0.3,0.3-0.5c0.1-0.1,0.1-0.2,0.1-0.3c0-0.1,0-0.2,0.1-0.2c0-0.1,0-0.1,0.1-0.2
		c0,0,0.1,0,0.1,0c0.2-0.2,0.3-0.4,0.4-0.5C25.6,5.1,25.9,5.1,26.2,5.2z"/>
	<path d="M29.3,24.7v-0.2c0.2-0.6,0.4-1.3,0.5-1.8c0.2-0.6,0.3-1.2,0.4-2v-1.6c0-0.3,0-0.5,0.1-0.8c0.1-0.3,0.1-0.6,0.1-1
		c0-0.3,0-0.6-0.1-0.9c-0.1-0.3,0-0.6,0.1-0.9c0-0.2,0-0.3,0.1-0.4c0.1-0.1,0.1-0.2,0.1-0.3v-0.7c0.1-0.2,0.2-0.4,0.3-0.5
		c0.1-0.2,0.1-0.4,0.1-0.5v-0.9c0-0.4,0.1-0.7,0.2-1.1c0.1-0.4,0.2-0.7,0.2-1.1V8.9c0-0.2,0-0.4,0.1-0.7c0-0.2,0.1-0.4,0.2-0.7
		c0.1-0.2,0.1-0.4,0.1-0.7c0-0.2,0-0.5,0-0.7c0-0.1,0-0.2-0.1-0.3c-0.1-0.1-0.2-0.2-0.3-0.4C31.6,5.2,32,5,32.6,4.9
		c0.6-0.1,1.1-0.1,1.6,0c0.3,0.4,0.5,0.8,0.6,1.3c0.1,0.5,0.2,1,0.3,1.6c0.1,0.5,0.2,1,0.3,1.6c0.1,0.6,0.2,1.1,0.2,1.7v1.1
		c0,0.3,0.1,0.6,0.2,0.9c0.1,0.3,0.2,0.6,0.2,0.9v1.3c0,0.2,0,0.4,0.1,0.5c0.1,0.2,0.1,0.4,0.1,0.5V17c0,0.2,0.1,0.4,0.2,0.5
		c0.1,0.2,0.2,0.4,0.2,0.5c0.1,0.5,0.2,0.9,0.2,1.4c0,0.5,0.1,1,0.2,1.4c0.1,0.3,0.2,0.6,0.3,0.9c0.1,0.3,0.1,0.6,0.1,0.7v2
		c0,0.2,0.1,0.3,0.2,0.4c0.1,0.1,0.1,0.3,0,0.4c-0.3,0-0.6,0-0.7-0.2c-0.2-0.2-0.3-0.4-0.4-0.6c-0.1-0.3-0.2-0.5-0.2-0.8
		c0-0.3-0.1-0.6-0.1-0.9c-0.1-0.2-0.1-0.3-0.2-0.5c0-0.1-0.1-0.3-0.2-0.5c0-0.1,0-0.2,0.1-0.4c0.1-0.2,0.1-0.3,0.1-0.5
		c0-0.3-0.1-0.5-0.2-0.7c-0.1-0.2-0.2-0.4-0.2-0.6c-0.1-0.4-0.2-0.9-0.2-1.4c0-0.5-0.1-1-0.2-1.5c0-0.1-0.1-0.2-0.1-0.3
		c-0.1-0.1-0.1-0.3-0.1-0.4c0-0.1-0.1-0.3-0.1-0.3c-0.1-0.1-0.1-0.1-0.1-0.1c0,0-0.2-0.1-0.4-0.1c-0.2,0-0.4,0-0.6,0
		c-0.2,0-0.5,0-0.7,0.1c-0.2,0.1-0.4,0.1-0.5,0.2c-0.1,0-0.2,0.2-0.2,0.3c0,0.2-0.1,0.4-0.1,0.6c0,0.3,0,0.5,0,0.8
		c0,0.3,0,0.5-0.1,0.7c0,0.1,0,0.2-0.1,0.4c-0.1,0.1-0.1,0.3-0.1,0.3v0.7c0,0.5-0.1,1-0.3,1.5c-0.2,0.5-0.3,1.1-0.4,1.6
		c0,0.1-0.1,0.4-0.2,0.6c-0.1,0.3-0.2,0.6-0.2,0.8c-0.1,0.3-0.2,0.5-0.3,0.8c-0.1,0.2-0.2,0.4-0.4,0.4c-0.2,0-0.3-0.1-0.4-0.3
		C29.5,25.1,29.4,24.9,29.3,24.7z"/>
	<path d="M38.3,4.5c0.2-0.1,0.4-0.2,0.6-0.2c0.3,0,0.5,0,0.8,0c0.3,0,0.6,0,1,0c0.4,0,0.7,0.1,1,0.2c0.1,0,0.2,0,0.4,0.1
		c0.2,0.1,0.3,0.1,0.3,0.1c0.1,0.1,0.2,0.1,0.3,0.2c0.1,0,0.2,0,0.2,0c0.3,0.1,0.5,0.2,0.6,0.4c0.1,0.2,0.2,0.3,0.3,0.5
		c0.1,0.2,0.1,0.4,0.2,0.7c0,0.3,0.1,0.5,0.2,0.8c0,0.3,0.1,0.6,0.2,0.9c0.1,0.3,0.2,0.6,0.2,0.9v1.5c0,0.5,0.1,1,0.1,1.5
		c0,0.5,0,1-0.1,1.4c-0.1,0.4-0.2,0.8-0.4,1.1c-0.2,0.3-0.4,0.6-0.6,0.8c-0.2,0.1-0.4,0.2-0.5,0.3c-0.2,0.1-0.2,0.2-0.2,0.3
		c0,0.1,0,0.3,0,0.4c0.1,0.1,0.2,0.3,0.3,0.4c0.1,0.1,0.2,0.3,0.4,0.4c0.1,0.1,0.2,0.2,0.2,0.3c0.1,0.2,0.2,0.3,0.2,0.5
		c0,0.2,0.1,0.4,0.2,0.5c0.1,0.3,0.2,0.5,0.3,0.8c0.1,0.2,0.2,0.5,0.2,0.9c0.3,0.3,0.5,0.6,0.6,1.1c0.1,0.4,0.2,0.9,0.3,1.3
		c0.1,0.2,0.2,0.4,0.4,0.6c0.2,0.2,0.3,0.4,0.3,0.5v0.6c0,0.3,0,0.6,0.1,0.9c0.1,0.3,0,0.6-0.1,0.9c-0.2,0.2-0.4,0.2-0.7,0.1
		c-0.3-0.1-0.5-0.2-0.7-0.3c0.1-0.3,0.1-0.5,0.1-0.7c0-0.2-0.1-0.4-0.2-0.6c-0.1-0.2-0.2-0.3-0.3-0.5c-0.1-0.1-0.2-0.3-0.2-0.4v-0.5
		c0-0.1,0-0.2-0.1-0.4c-0.1-0.2-0.1-0.3-0.2-0.4v-0.5c-0.1-0.2-0.2-0.4-0.3-0.6c-0.1-0.2-0.3-0.3-0.4-0.5c-0.1-0.2-0.3-0.3-0.4-0.5
		c-0.1-0.2-0.3-0.4-0.3-0.6c-0.1-0.2-0.2-0.5-0.2-0.7c0-0.3-0.1-0.5-0.1-0.7c0-0.2-0.1-0.5-0.2-0.7c-0.1-0.2-0.2-0.4-0.4-0.6
		c-0.1,0.6-0.2,1.2-0.2,1.8c0,0.6,0.1,1.2,0.2,1.7c0.1,0.6,0.1,1.2,0.2,1.8c0,0.6,0,1.2,0,1.9c0,0.2,0,0.4-0.1,0.6
		c-0.1,0.3-0.1,0.5-0.1,0.6c-0.1,0.2-0.3,0.3-0.6,0.4c-0.3,0.1-0.5,0-0.6-0.2c-0.1-0.3-0.1-0.6-0.1-0.9c0-0.3,0.1-0.6,0.1-0.9
		c-0.1-0.1-0.1-0.2-0.1-0.3c0-0.1,0-0.2,0-0.3c-0.1-0.5-0.2-1.1-0.2-1.6c0-0.5,0-1,0-1.6c-0.1-0.2-0.2-0.4-0.2-0.5
		c-0.1-0.2-0.1-0.4-0.1-0.5v-1.3c0-0.1,0-0.2-0.1-0.3c-0.1-0.2-0.1-0.3-0.1-0.4c-0.1-0.5-0.1-0.9-0.1-1.4c0-0.4,0.1-0.9,0.1-1.4
		c0-0.1,0-0.2-0.1-0.4c-0.1-0.2-0.1-0.3-0.1-0.4c-0.1-0.2-0.1-0.3-0.1-0.5c0-0.1,0.1-0.3,0.1-0.5c0-0.1,0-0.2-0.1-0.4
		c-0.1-0.2-0.1-0.3-0.1-0.3c0-0.2-0.1-0.4,0-0.6c0-0.2,0-0.4,0.1-0.6c0-0.2,0.1-0.4,0.1-0.6c0-0.2,0-0.4-0.1-0.6
		c0-0.1,0-0.2-0.1-0.4C39.1,8.5,39,8.3,39,8.1V7.4C39,7.2,39,7,39,6.8c-0.1-0.2-0.1-0.4-0.1-0.5c0-0.3,0-0.6,0-0.8
		c0-0.3,0-0.6-0.2-1c0-0.1,0-0.1-0.1,0C38.5,4.5,38.4,4.6,38.3,4.5z"/>
	<path d="M49.3,5.1c0-0.1,0-0.2,0.1-0.2c0,0,0.1-0.1,0.1-0.1c0.5-0.2,0.8-0.1,1.1,0.1c0.2,0.3,0.4,0.6,0.4,1.1c0,0.3,0,0.6,0.1,0.9
		c0,0.3,0,0.6-0.1,0.9c0,0.1,0,0.2-0.1,0.3c-0.1,0.1-0.2,0.3-0.3,0.6c0,0.4,0,0.8,0.1,1.2c0.1,0.4,0.1,0.9,0.1,1.5v2.6
		c0,0.1,0,0.2,0.1,0.4c0.1,0.1,0.1,0.3,0.1,0.4c0.1,0.7,0.1,1.3,0,1.9c-0.1,0.6-0.1,1.1,0,1.6c0,0.1,0,0.2,0.1,0.4
		c0,0.1,0.1,0.3,0.1,0.4v2.1c0,0.1,0,0.2,0.1,0.3c0.1,0.1,0.1,0.2,0.1,0.4v0.7c0,0.2,0,0.4,0.1,0.5c0.1,0.2,0.1,0.3,0.1,0.5
		c0,0.2,0,0.4-0.1,0.7c-0.1,0.2-0.2,0.4-0.3,0.6c-0.1,0.2-0.3,0.3-0.4,0.3c-0.2,0.1-0.4,0-0.6-0.1c-0.2-0.1-0.3-0.3-0.4-0.5
		s-0.1-0.4-0.1-0.7c0-0.2,0-0.5,0-0.7c0-0.2,0-0.5,0-0.7c0-0.2,0-0.4-0.1-0.6c-0.1-0.3-0.1-0.5-0.1-0.8c-0.1-0.5-0.1-1.1-0.1-1.7
		c0-0.6,0.1-1.1,0.1-1.7c0-0.4,0-0.7-0.1-1c-0.1-0.3-0.1-0.5-0.1-0.8v-1.4c0-0.1,0-0.2-0.1-0.4c-0.1-0.2-0.1-0.3-0.1-0.5
		c0-0.4-0.1-0.8,0-1.3c0-0.5,0-1,0-1.5c0-0.5,0-1,0-1.5c0-0.5,0-1,0-1.4c0-0.3-0.1-0.6-0.1-0.9c-0.1-0.3-0.1-0.7-0.1-1
		c0-0.3,0-0.5,0.1-0.7C49,5.1,49.1,5,49.3,5.1z"/>
	<path d="M58.5,4.9c-0.1,0.3-0.1,0.5-0.1,0.8c0.1,0.3,0.1,0.5,0.1,0.6c-0.2,0.2-0.5,0.4-0.7,0.4c-0.3,0.1-0.5,0.1-0.8,0.1
		c-0.3,0-0.6,0-0.9,0c-0.3,0-0.6,0.1-0.9,0.1c-0.3,0.1-0.6,0.3-0.7,0.8c-0.1,0.5-0.2,0.9-0.1,1.5c0.1,0.5,0.2,1,0.3,1.5
		c0.2,0.5,0.4,0.8,0.7,0.9c0.2,0.1,0.5,0.2,0.7,0.2c0.3,0,0.5,0,0.8,0c0.3,0,0.6-0.1,0.9-0.1c0.3,0,0.6,0,0.9,0.1
		c0.3,0.2,0.5,0.4,0.7,0.8c0.2,0.3,0.3,0.7,0.4,1.2c0.1,0.5,0.1,0.9,0.1,1.5c0,0.5,0,1.1,0,1.6c0,0.7,0,1.4,0.1,2.1
		c0,0.7,0,1.4-0.1,1.9c0,0.2,0,0.3-0.1,0.4c-0.1,0.1-0.1,0.3-0.1,0.5c0,0.2,0,0.4,0.1,0.7c0,0.3,0,0.5-0.1,0.7c0,0.1,0,0.2-0.1,0.3
		c-0.1,0.1-0.2,0.3-0.3,0.4c-0.2,0.4-0.4,0.8-0.6,1c-0.3,0.2-0.7,0.4-1.3,0.4c-0.5,0-1.1,0-1.6,0c-0.6,0-1.1,0-1.5-0.2
		c0-0.3-0.1-0.5-0.2-0.7c-0.1-0.2-0.2-0.4-0.3-0.7c0.4-0.1,0.8-0.1,1.1,0c0.4,0.1,0.7,0.2,1,0.3c0.3,0.1,0.7,0.1,1,0.1
		c0.3,0,0.6-0.1,0.9-0.4c0.1-0.1,0.2-0.1,0.3-0.2c0.1-0.1,0.1-0.1,0.2-0.2c0.1-0.1,0.1-0.1,0.1-0.1v-1.4c0-0.2,0-0.4-0.1-0.6
		c-0.1-0.2,0-0.5,0.1-0.8c0-0.2,0-0.3,0.1-0.5c0.1-0.1,0.1-0.3,0.1-0.4v-3.3c-0.1-0.3-0.2-0.5-0.3-0.8c-0.1-0.2-0.2-0.4-0.2-0.6
		c-0.1-0.2-0.2-0.4-0.2-0.7c0-0.3-0.1-0.5-0.2-0.5c-0.2-0.1-0.4-0.1-0.7-0.1c-0.3,0-0.5-0.1-0.5-0.2c-0.1,0-0.3,0.1-0.4,0
		c-0.1,0-0.2,0-0.3-0.1c-0.1,0-0.2-0.1-0.4-0.1c-0.1,0-0.3-0.1-0.5-0.1c-0.2-0.1-0.4-0.1-0.6-0.1c-0.2,0-0.4,0-0.5,0
		c-0.3-0.2-0.4-0.5-0.5-1c0-0.5-0.1-1-0.1-1.5c0-0.2-0.1-0.4-0.1-0.6c0-0.2-0.1-0.4-0.1-0.6c0-0.2,0-0.4,0-0.6c0-0.2,0-0.5,0-0.8
		C53,7.6,53,7.3,53,7c-0.1-0.3,0-0.5,0.1-0.7c0.1-0.2,0.3-0.4,0.5-0.5c0.2-0.2,0.5-0.3,0.7-0.4c0.3-0.1,0.6-0.2,1-0.3
		C55.6,5,55.8,4.9,56,4.9c0.3-0.1,0.6-0.1,0.9-0.1c0.3,0,0.5-0.1,0.7-0.2c0.2,0,0.3,0,0.4,0.1C58.1,4.7,58.3,4.8,58.5,4.9z"/>
	<path d="M61.6,24.7v-0.2c0.2-0.6,0.4-1.3,0.5-1.8c0.2-0.6,0.3-1.2,0.4-2v-1.6c0-0.3,0-0.5,0.1-0.8c0.1-0.3,0.1-0.6,0.1-1
		c0-0.3,0-0.6-0.1-0.9c-0.1-0.3,0-0.6,0.1-0.9c0-0.2,0-0.3,0.1-0.4c0.1-0.1,0.1-0.2,0.1-0.3v-0.7c0.1-0.2,0.2-0.4,0.3-0.5
		c0.1-0.2,0.1-0.4,0.1-0.5v-0.9c0-0.4,0.1-0.7,0.2-1.1c0.1-0.4,0.2-0.7,0.2-1.1V8.9c0-0.2,0-0.4,0.1-0.7c0-0.2,0.1-0.4,0.2-0.7
		C63.9,7.3,64,7.1,64,6.8c0-0.2,0-0.5,0-0.7c0-0.1,0-0.2-0.1-0.3c-0.1-0.1-0.2-0.2-0.3-0.4c0.3-0.3,0.7-0.5,1.3-0.6
		c0.6-0.1,1.1-0.1,1.6,0c0.3,0.4,0.5,0.8,0.6,1.3c0.1,0.5,0.2,1,0.3,1.6c0.1,0.5,0.2,1,0.3,1.6c0.1,0.6,0.2,1.1,0.2,1.7v1.1
		c0,0.3,0.1,0.6,0.2,0.9c0.1,0.3,0.2,0.6,0.2,0.9v1.3c0,0.2,0,0.4,0.1,0.5c0.1,0.2,0.1,0.4,0.1,0.5V17c0,0.2,0.1,0.4,0.2,0.5
		c0.1,0.2,0.2,0.4,0.2,0.5c0.1,0.5,0.2,0.9,0.2,1.4c0,0.5,0.1,1,0.2,1.4c0.1,0.3,0.2,0.6,0.3,0.9c0.1,0.3,0.1,0.6,0.1,0.7v2
		c0,0.2,0.1,0.3,0.2,0.4c0.1,0.1,0.1,0.3,0,0.4c-0.3,0-0.6,0-0.7-0.2c-0.2-0.2-0.3-0.4-0.4-0.6c-0.1-0.3-0.2-0.5-0.2-0.8
		c0-0.3-0.1-0.6-0.1-0.9c-0.1-0.2-0.1-0.3-0.2-0.5c0-0.1-0.1-0.3-0.2-0.5c0-0.1,0-0.2,0.1-0.4c0.1-0.2,0.1-0.3,0.1-0.5
		c0-0.3-0.1-0.5-0.2-0.7c-0.1-0.2-0.2-0.4-0.2-0.6c-0.1-0.4-0.2-0.9-0.2-1.4c0-0.5-0.1-1-0.2-1.5c0-0.1-0.1-0.2-0.1-0.3
		c-0.1-0.1-0.1-0.3-0.1-0.4c0-0.1-0.1-0.3-0.1-0.3c-0.1-0.1-0.1-0.1-0.1-0.1c0,0-0.2-0.1-0.4-0.1c-0.2,0-0.4,0-0.6,0
		c-0.2,0-0.5,0-0.7,0.1c-0.2,0.1-0.4,0.1-0.5,0.2c-0.1,0-0.2,0.2-0.2,0.3c0,0.2-0.1,0.4-0.1,0.6c0,0.3,0,0.5,0,0.8
		c0,0.3,0,0.5-0.1,0.7c0,0.1,0,0.2-0.1,0.4c-0.1,0.1-0.1,0.3-0.1,0.3v0.7c0,0.5-0.1,1-0.3,1.5c-0.2,0.5-0.3,1.1-0.4,1.6
		c0,0.1-0.1,0.4-0.2,0.6c-0.1,0.3-0.2,0.6-0.2,0.8c-0.1,0.3-0.2,0.5-0.3,0.8c-0.1,0.2-0.2,0.4-0.4,0.4c-0.2,0-0.3-0.1-0.4-0.3
		C61.8,25.1,61.7,24.9,61.6,24.7z"/>
</g>
<g>
	<path d="M77.5,14.5c0.3,0.1,0.7,0.2,1,0.4c0.3,0.2,0.6,0.4,0.9,0.7c0.2,0.1,0.4,0.2,0.5,0.4c0.2,0.2,0.3,0.3,0.4,0.3
		c0.1,0.1,0.2,0.2,0.4,0.2s0.3,0.1,0.4,0.2c0.2,0.1,0.4,0.3,0.5,0.6c0.1,0.2,0.1,0.5,0.1,0.8s0,0.6-0.1,0.9c-0.1,0.3-0.1,0.6-0.2,1
		c-0.1,0.6-0.1,1.1-0.1,1.5c0,0.5-0.1,0.9-0.3,1.2c-0.1,0.2-0.2,0.4-0.4,0.5c-0.1,0.1-0.3,0.3-0.4,0.5c-0.4,0.5-0.8,0.9-1.3,1.2
		c-0.5,0.3-1.1,0.6-1.8,0.8c-0.3,0-0.6,0-0.9,0c-0.3,0-0.6-0.1-0.7-0.3c-0.1-0.4-0.1-0.7-0.1-1c0.1-0.3,0.1-0.6,0.1-1
		c-0.1-0.3-0.2-0.6-0.3-0.8c-0.1-0.3-0.1-0.5-0.1-0.8c-0.1-0.5-0.1-1.1,0-1.5c0.1-0.5,0.1-0.9,0-1.4c0-0.3,0-0.5-0.1-0.7
		c-0.1-0.2-0.2-0.4-0.3-0.6c0-0.3,0-0.7,0.1-1c0.1-0.3,0.1-0.6,0.1-1c0-0.4-0.1-0.8-0.2-1.2c-0.1-0.4-0.2-0.9-0.2-1.3
		c-0.1-0.6-0.2-1.3-0.2-1.8c0-0.6,0-1.2,0-1.8c0-0.4,0-0.8,0-1.2c0-0.4,0-0.8,0-1.2c0-0.4,0-0.8-0.1-1.1c-0.1-0.4-0.1-0.7-0.3-1
		c0.4-0.1,0.7-0.1,1.1-0.1c0.4,0.1,0.7,0.1,1.1,0.1c0.3,0,0.6,0,0.8-0.1c0.3-0.1,0.5,0,0.8,0.1c0.1,0,0.2,0,0.3,0.1
		c0.1,0.1,0.3,0.2,0.4,0.3c0.1,0.1,0.2,0.2,0.3,0.4c0.1,0.1,0.2,0.2,0.2,0.3c0.2,0.3,0.3,0.6,0.5,0.8c0.2,0.3,0.3,0.5,0.4,0.8
		c0,0.1,0,0.2,0.1,0.4c0.1,0.2,0.1,0.3,0.1,0.4c0,0.5,0,1-0.1,1.5c-0.1,0.5-0.1,1-0.1,1.2c0,0.2,0,0.3-0.1,0.4
		c-0.1,0.1-0.1,0.2-0.1,0.3v0.8c-0.1,0.2-0.2,0.3-0.4,0.5c-0.1,0.2-0.3,0.4-0.4,0.6C78.6,14,78.1,14.3,77.5,14.5z"/>
	<path d="M83.9,5.1c0-0.1,0-0.2,0.1-0.2c0,0,0-0.1,0.1-0.1c0.5-0.2,0.8-0.1,1.1,0.1c0.2,0.3,0.4,0.6,0.4,1.1c0,0.3,0,0.6,0.1,0.9
		c0,0.3,0,0.6-0.1,0.9c0,0.1,0,0.2-0.1,0.3c-0.1,0.1-0.2,0.3-0.3,0.6c0,0.4,0,0.8,0.1,1.2c0.1,0.4,0.1,0.9,0.1,1.5v2.6
		c0,0.1,0,0.2,0.1,0.4c0.1,0.1,0.1,0.3,0.1,0.4c0.1,0.7,0.1,1.3,0,1.9c-0.1,0.6-0.1,1.1,0,1.6c0,0.1,0,0.2,0.1,0.4
		c0,0.1,0.1,0.3,0.1,0.4v2.1c0,0.1,0,0.2,0.1,0.3c0.1,0.1,0.1,0.2,0.1,0.4v0.7c0,0.2,0,0.4,0.1,0.5c0.1,0.2,0.1,0.3,0.1,0.5
		c0,0.2,0,0.4-0.1,0.7c-0.1,0.2-0.2,0.4-0.3,0.6c-0.1,0.2-0.3,0.3-0.4,0.3c-0.2,0.1-0.4,0-0.6-0.1c-0.2-0.1-0.3-0.3-0.4-0.5
		c-0.1-0.2-0.1-0.4-0.1-0.7c0-0.2,0-0.5,0-0.7s0-0.5,0-0.7c0-0.2,0-0.4-0.1-0.6c-0.1-0.3-0.1-0.5-0.1-0.8C84,20.2,84,19.7,84,19.1
		c0-0.6,0.1-1.1,0.1-1.7c0-0.4,0-0.7-0.1-1c-0.1-0.3-0.1-0.5-0.1-0.8v-1.4c0-0.1,0-0.2-0.1-0.4c-0.1-0.2-0.1-0.3-0.1-0.5
		c0-0.4-0.1-0.8,0-1.3c0-0.5,0-1,0-1.5c0-0.5,0-1,0-1.5c0-0.5,0-1,0-1.4c0-0.3-0.1-0.6-0.1-0.9c-0.1-0.3-0.1-0.7-0.1-1
		c0-0.3,0-0.5,0.1-0.7C83.6,5.1,83.7,5,83.9,5.1z"/>
	<path d="M96.8,4.4c0.1,0.3,0.1,0.5,0.1,0.7c-0.1,0.2-0.1,0.5-0.1,0.9c-0.1,0.5-0.2,0.9-0.3,1.4c-0.1,0.5-0.2,0.9-0.2,1.3
		c-0.1,0.3-0.1,0.6-0.1,0.9c0,0.3,0,0.6-0.1,1c0,0.3,0,0.6-0.1,0.8c-0.1,0.3-0.1,0.5-0.1,0.7v1.3c0,0.2,0,0.4-0.1,0.6
		c-0.1,0.2-0.1,0.5-0.1,0.7v1.7c-0.1,0.5-0.2,1-0.3,1.5c-0.1,0.5-0.2,0.9-0.3,1.4c0,0.3,0,0.6-0.1,0.8S95,20.6,95,20.9
		c0,0.3,0,0.7,0.1,1.1c0.1,0.4,0,0.7-0.1,1.1c0,0.6-0.1,1-0.2,1.4c-0.2,0.4-0.4,0.8-0.7,1.1c0-0.3-0.1-0.5-0.2-0.6
		c-0.1-0.1-0.2-0.3-0.3-0.5c0-0.2,0-0.4,0-0.6c0-0.2-0.1-0.4-0.2-0.7c-0.2-0.8-0.4-1.7-0.6-2.6c-0.3-0.9-0.5-1.8-0.6-2.7
		c-0.2-0.7-0.3-1.4-0.5-2.2c-0.1-0.7-0.3-1.5-0.5-2.2c-0.1-0.3-0.2-0.7-0.3-1c-0.1-0.4-0.2-0.7-0.3-1c-0.2-0.4-0.3-0.7-0.4-1.1
		c-0.1-0.4-0.2-0.7-0.3-1c-0.1-0.4-0.2-0.7-0.4-1c-0.1-0.3-0.3-0.6-0.4-1C89,7.2,89,7,88.9,6.7c-0.1-0.3-0.2-0.5-0.3-0.8
		c-0.1-0.3-0.2-0.5-0.4-0.7c-0.2-0.2-0.3-0.4-0.3-0.7c0.5,0,1,0,1.5,0.1c0.5,0.1,1,0.1,1.5,0.2c0,0.4,0.1,0.7,0.2,1
		c0.1,0.3,0.2,0.6,0.3,1c0,0.3,0,0.6-0.1,0.8c-0.1,0.3,0,0.5,0.1,0.8c0,0.1,0,0.2,0.1,0.3c0.1,0.1,0.1,0.2,0.1,0.3
		c0,0.3,0,0.5,0,0.7c0,0.2,0.1,0.4,0.2,0.7c0,0.1,0.1,0.2,0.2,0.4C92,11,92,11.2,92,11.4c0.1,0.1,0.2,0.2,0.2,0.4c0,0.1,0,0.3,0,0.4
		c0.2,0.5,0.4,1.1,0.5,1.6c0.2,0.5,0.3,1,0.4,1.5c0.1,0.7,0.1,1.5,0.1,2.2c0,0.7,0.1,1.5,0.2,2.3c0.2-0.3,0.3-0.7,0.3-1
		c0-0.4,0.1-0.7,0-1.1c0-0.4,0-0.8,0-1.2c0-0.4,0-0.8,0-1.2c0-0.1,0-0.2,0.1-0.4c0.1-0.1,0.1-0.3,0.1-0.4c0.1-0.1,0.1-0.2,0.1-0.3
		c-0.1-0.1-0.1-0.2-0.1-0.3c0-0.3,0.1-0.5,0.2-0.7c0.1-0.2,0.2-0.4,0.2-0.5c0.1-0.2,0.1-0.4,0.1-0.7c0-0.2-0.1-0.5-0.1-0.6
		c0-0.1,0-0.2,0.1-0.4c0-0.2,0.1-0.3,0.1-0.5V9c0-0.5,0.1-1,0.2-1.5C94.9,6.9,95,6.4,95,5.9V4.6c0.1-0.1,0.2-0.1,0.4-0.2
		c0.2,0,0.4-0.1,0.5-0.1c0.2,0,0.4,0,0.5,0C96.6,4.3,96.7,4.4,96.8,4.4z"/>
	<path d="M99.3,5.1c0-0.1,0-0.2,0.1-0.2c0,0,0-0.1,0.1-0.1c0.5-0.2,0.8-0.1,1.1,0.1c0.2,0.3,0.4,0.6,0.4,1.1c0,0.3,0,0.6,0.1,0.9
		c0,0.3,0,0.6-0.1,0.9c0,0.1,0,0.2-0.1,0.3c-0.1,0.1-0.2,0.3-0.3,0.6c0,0.4,0,0.8,0.1,1.2c0.1,0.4,0.1,0.9,0.1,1.5v2.6
		c0,0.1,0,0.2,0.1,0.4c0.1,0.1,0.1,0.3,0.1,0.4c0.1,0.7,0.1,1.3,0,1.9c-0.1,0.6-0.1,1.1,0,1.6c0,0.1,0,0.2,0.1,0.4
		c0,0.1,0.1,0.3,0.1,0.4v2.1c0,0.1,0,0.2,0.1,0.3c0.1,0.1,0.1,0.2,0.1,0.4v0.7c0,0.2,0,0.4,0.1,0.5c0.1,0.2,0.1,0.3,0.1,0.5
		c0,0.2,0,0.4-0.1,0.7c-0.1,0.2-0.2,0.4-0.3,0.6c-0.1,0.2-0.3,0.3-0.4,0.3c-0.2,0.1-0.4,0-0.6-0.1c-0.2-0.1-0.3-0.3-0.4-0.5
		c-0.1-0.2-0.1-0.4-0.1-0.7c0-0.2,0-0.5,0-0.7s0-0.5,0-0.7c0-0.2,0-0.4-0.1-0.6c-0.1-0.3-0.1-0.5-0.1-0.8c-0.1-0.5-0.1-1.1-0.1-1.7
		c0-0.6,0.1-1.1,0.1-1.7c0-0.4,0-0.7-0.1-1s-0.1-0.5-0.1-0.8v-1.4c0-0.1,0-0.2-0.1-0.4c-0.1-0.2-0.1-0.3-0.1-0.5
		c0-0.4-0.1-0.8,0-1.3c0-0.5,0-1,0-1.5c0-0.5,0-1,0-1.5c0-0.5,0-1,0-1.4c0-0.3-0.1-0.6-0.1-0.9c-0.1-0.3-0.1-0.7-0.1-1
		c0-0.3,0-0.5,0.1-0.7C99,5.1,99.2,5,99.3,5.1z"/>
</g>
<g>
	<path class="st2" d="M34.7,29.3l-0.3,0c-0.1-0.3-0.2-0.6-0.4-0.8c-0.2-0.2-0.4-0.3-0.7-0.3c-0.4,0-0.8,0.2-1,0.7s-0.4,1-0.4,1.6
		c0,1.2,0.2,2,0.6,2.5c0.4,0.5,1.1,0.8,1.9,0.8v-2.5h-0.9v-0.3h1.2v3.1c-0.9,0-1.5-0.1-1.9-0.4c-0.2-0.1-0.3-0.2-0.5-0.4
		c-0.2-0.2-0.3-0.4-0.4-0.7c-0.2-0.6-0.3-1.3-0.3-2.2c0-0.4,0.1-0.8,0.2-1.2c0.1-0.3,0.3-0.6,0.4-0.8c0.4-0.4,0.7-0.6,1.1-0.6
		s0.7,0.1,1,0.4C34.6,28.7,34.7,29,34.7,29.3z"/>
	<path class="st2" d="M39.1,34.2h-0.4L37,31.5c-0.2,0-0.5,0.1-0.7,0.1v2.6h-0.3v-6.3c2,0,3,0.6,3,1.8c0,1-0.5,1.5-1.6,1.8L39.1,34.2
		z M36.2,31.2L36.2,31.2c1.6,0,2.3-0.5,2.3-1.5c0-0.3-0.1-0.5-0.2-0.7s-0.3-0.3-0.4-0.4c-0.4-0.2-1-0.4-1.7-0.4V31.2z"/>
	<path class="st2" d="M43.1,28.4v5.8h-0.3v-3h-2.5v3h-0.3v-4.1c0-0.6,0.2-1.2,0.6-1.6c0.4-0.4,0.9-0.6,1.5-0.6
		C42.5,27.9,42.9,28.1,43.1,28.4z M42.8,30.9v-2.4c-0.2-0.2-0.4-0.3-0.7-0.3c-0.5,0-1,0.2-1.3,0.6c-0.3,0.4-0.5,0.8-0.5,1.3v0.8
		H42.8z"/>
	<path class="st2" d="M44.8,31.5v2.7h-0.3v-6.3c1,0,1.8,0.2,2.4,0.5s0.8,0.8,0.8,1.3c0,0.7-0.3,1.1-0.8,1.4
		c-0.2,0.1-0.3,0.2-0.5,0.2c-0.1,0-0.3,0.1-0.6,0.1C45.5,31.5,45.2,31.5,44.8,31.5z M44.8,31.2L44.8,31.2c1.7,0,2.5-0.5,2.5-1.5
		c0-0.4-0.2-0.7-0.5-1c-0.2-0.2-0.4-0.3-0.8-0.4c-0.3-0.1-0.8-0.1-1.3-0.2V31.2z"/>
	<path class="st2" d="M51.7,34.2h-0.3v-3h-2.5v3h-0.3v-6.3h0.3v3h2.5v-3h0.3V34.2z"/>
	<path class="st2" d="M53.4,34.2h-0.3v-6.3h0.3V34.2z"/>
	<path class="st2" d="M57.8,29.3l-0.3,0c-0.1-0.3-0.2-0.6-0.4-0.8c-0.2-0.2-0.4-0.3-0.7-0.3c-0.4,0-0.8,0.2-1,0.7s-0.4,1-0.4,1.6
		c0,1.6,0.4,2.7,1.3,3.1c0.4,0.2,0.9,0.3,1.6,0.3v0.3c-0.9,0-1.5-0.1-1.9-0.4c-0.2-0.1-0.3-0.2-0.5-0.4c-0.2-0.2-0.3-0.4-0.4-0.7
		c-0.2-0.6-0.3-1.3-0.3-2.2c0-0.4,0.1-0.8,0.2-1.2c0.1-0.3,0.3-0.6,0.4-0.8c0.4-0.4,0.7-0.6,1.1-0.6s0.7,0.1,1,0.4
		C57.6,28.7,57.8,29,57.8,29.3z"/>
	<path class="st2" d="M63.7,31.2c0,0.4-0.1,0.8-0.2,1.2s-0.3,0.7-0.4,0.9c-0.2,0.2-0.4,0.4-0.7,0.5c-0.5,0.3-1.1,0.4-1.9,0.4v-6.3
		c0.8,0,1.5,0.1,1.9,0.4c0.4,0.2,0.7,0.5,0.9,1C63.6,29.7,63.7,30.4,63.7,31.2z M63.4,31.1c0-1.9-0.8-2.8-2.5-2.8v5.6
		c1,0,1.6-0.3,2-0.8C63.2,32.6,63.4,31.9,63.4,31.1z"/>
	<path class="st2" d="M64.8,34.2v-6.3H68v0.3h-2.9v2.3H68v0.3h-2.9v3H68v0.3H64.8z"/>
	<path class="st2" d="M71.2,33.2c0.3-0.2,0.4-0.5,0.4-0.9s-0.1-0.6-0.3-0.8c-0.2-0.2-0.4-0.3-0.7-0.4c-0.3-0.1-0.6-0.2-0.8-0.3
		c-0.3-0.1-0.5-0.3-0.7-0.5c-0.2-0.2-0.3-0.5-0.3-0.8c0-0.6,0.2-1,0.5-1.3c0.3-0.3,0.7-0.4,1.1-0.4s0.9,0,1.4,0.1v0.3
		c-0.5-0.1-0.9-0.1-1.3-0.1c-0.4,0-0.7,0.1-1,0.3s-0.4,0.5-0.4,1c0,0.4,0.2,0.6,0.6,0.8c0.2,0.1,0.4,0.2,0.6,0.2
		c0.2,0.1,0.4,0.2,0.6,0.2s0.4,0.2,0.6,0.3c0.2,0.1,0.3,0.3,0.4,0.5s0.2,0.5,0.2,0.8s-0.1,0.5-0.2,0.8c-0.1,0.2-0.3,0.4-0.5,0.5
		c-0.2,0.1-0.4,0.2-0.7,0.3c-0.4,0.1-0.9,0.2-1.4,0.2h-0.2v-0.3C69.9,33.9,70.7,33.7,71.2,33.2z"/>
	<path class="st2" d="M73.2,34.2h-0.3v-6.3h0.3V34.2z"/>
	<path class="st2" d="M77.6,29.3l-0.3,0c-0.1-0.3-0.2-0.6-0.4-0.8c-0.2-0.2-0.4-0.3-0.7-0.3c-0.4,0-0.8,0.2-1,0.7s-0.4,1-0.4,1.6
		c0,1.2,0.2,2,0.6,2.5c0.4,0.5,1.1,0.8,1.9,0.8v-2.5h-0.9v-0.3h1.2v3.1c-0.9,0-1.5-0.1-1.9-0.4c-0.2-0.1-0.3-0.2-0.5-0.4
		c-0.2-0.2-0.3-0.4-0.4-0.7c-0.2-0.6-0.3-1.3-0.3-2.2c0-0.4,0.1-0.8,0.2-1.2c0.1-0.3,0.3-0.6,0.4-0.8c0.4-0.4,0.7-0.6,1.1-0.6
		s0.7,0.1,1,0.4C77.4,28.7,77.6,29,77.6,29.3z"/>
	<path class="st2" d="M79.1,28.5v5.7h-0.3v-6.3h0.5l2.4,5.5v-5.5H82v6.3h-0.3L79.1,28.5z"/>
	<path class="st2" d="M83.3,34.2v-6.3h3.2v0.3h-2.9v2.3h2.9v0.3h-2.9v3h2.9v0.3H83.3z"/>
	<path class="st2" d="M90.8,34.2h-0.4l-1.7-2.7c-0.2,0-0.5,0.1-0.7,0.1v2.6h-0.3v-6.3c2,0,3,0.6,3,1.8c0,1-0.5,1.5-1.6,1.8
		L90.8,34.2z M88,31.2L88,31.2c1.6,0,2.3-0.5,2.3-1.5c0-0.3-0.1-0.5-0.2-0.7s-0.3-0.3-0.4-0.4c-0.4-0.2-1-0.4-1.7-0.4V31.2z"/>
</g>
<g>
	<path d="M19.8,31C19.8,31,19.8,31,19.8,31C19.8,31,19.8,31,19.8,31z"/>
	<path d="M20.7,31.2L20.7,31.2C20.7,31.2,20.7,31.2,20.7,31.2z"/>
	<path d="M19.2,30.9C19.2,30.9,19.2,30.9,19.2,30.9C19.2,30.9,19.2,30.9,19.2,30.9L19.2,30.9z"/>
	<path d="M22.7,31.4L22.7,31.4C22.7,31.4,22.7,31.4,22.7,31.4z"/>
	<path d="M21.5,31.3C21.5,31.2,21.6,31.2,21.5,31.3C21.6,31.2,21.5,31.2,21.5,31.3z"/>
	<path d="M18.9,30.3L18.9,30.3C19,30.3,19,30.3,18.9,30.3z"/>
	<path d="M18.4,30.4C18.4,30.4,18.4,30.4,18.4,30.4C18.4,30.4,18.4,30.4,18.4,30.4z"/>
	<path d="M18.6,30.6C18.6,30.6,18.6,30.6,18.6,30.6C18.6,30.6,18.6,30.6,18.6,30.6z"/>
	<path d="M18.6,30.6C18.6,30.6,18.6,30.6,18.6,30.6C18.6,30.6,18.6,30.6,18.6,30.6z"/>
	<path d="M30,31.2C30,31.2,30,31.2,30,31.2L30,31.2z"/>
	<path d="M24.5,31.4L24.5,31.4C24.5,31.4,24.5,31.4,24.5,31.4z"/>
	<path d="M30,30.8L30,30.8C30,30.8,30,30.8,30,30.8z"/>
	<path d="M19.2,30.1C19.3,30.1,19.3,30.1,19.2,30.1C19.3,30.1,19.3,30.1,19.2,30.1z"/>
	<path d="M24.9,29.8L24.9,29.8C24.9,29.8,24.9,29.8,24.9,29.8z"/>
	<path d="M30,30.8L30,30.8C30,30.8,30,30.8,30,30.8C30,30.8,30,30.8,30,30.8z"/>
	<polygon points="26.4,31.5 26.4,31.5 26.4,31.5 	"/>
	<path d="M26.5,31.5C26.5,31.5,26.5,31.5,26.5,31.5C26.5,31.5,26.5,31.5,26.5,31.5z"/>
	<path d="M30,31.1L30,31.1C30,31.1,30,31.1,30,31.1z"/>
	<path d="M27.6,31.5C27.6,31.5,27.6,31.5,27.6,31.5C27.6,31.5,27.6,31.5,27.6,31.5z"/>
	<path d="M21.5,31.2C21.5,31.2,21.5,31.2,21.5,31.2C21.5,31.2,21.5,31.2,21.5,31.2z"/>
	<polygon points="22.2,30.1 22.2,30.1 22.2,30.1 	"/>
	<path d="M22.2,30.1C22.2,30.1,22.2,30.1,22.2,30.1C22.2,30.1,22.2,30.1,22.2,30.1z"/>
	<path d="M22.3,30.1C22.3,30.1,22.3,30.1,22.3,30.1C22.3,30.1,22.3,30.1,22.3,30.1z"/>
	<polygon points="21.5,30 21.5,30 21.5,30 	"/>
	<path d="M21.7,30C21.7,30,21.7,30,21.7,30C21.7,30,21.7,30,21.7,30z"/>
	<polygon points="22.7,30 22.7,30 22.7,30 	"/>
	<path d="M24.2,29.7c-0.1,0-0.3,0.1-0.5,0.1c0,0.1-0.1,0.1-0.1,0.1l0-0.1l0,0c0,0,0,0,0-0.1l0,0.1c0,0-0.1,0,0-0.1l-0.2,0
		c0,0,0,0.1-0.1,0.1c0,0,0,0,0-0.1c-0.1-0.1-0.1,0.2-0.2,0.2l0,0c0,0-0.1,0-0.1,0c0,0.1,0-0.1,0.1,0c0,0.1,0,0.1,0,0.1
		c0,0,0,0-0.1,0c0-0.1-0.1,0-0.1-0.1c0,0,0,0.1-0.1,0.1c0-0.1,0-0.1,0-0.1l0,0.1c0,0,0,0,0-0.1c0,0,0,0.1-0.1,0l0-0.1c0,0,0,0-0.1,0
		c0,0,0,0,0,0c0-0.1,0,0-0.1,0c0,0,0,0,0,0.1c0,0,0,0.1-0.1,0l0-0.1c0,0,0,0.1-0.1,0.1c0,0,0,0,0,0c0,0.1-0.1,0-0.1,0l0,0
		c0,0,0,0.1,0,0.1c0,0,0,0.1,0,0.1c0-0.1-0.1,0.1-0.1,0.1c0,0,0-0.1,0,0c0-0.1,0-0.2,0.1-0.2c0,0,0,0,0,0l0,0.1c0,0,0,0,0,0
		c0,0.1,0,0.1,0,0.1c0,0,0-0.1,0-0.1c0,0,0,0.1-0.1,0.1c0,0,0,0,0,0c0,0-0.1,0-0.1-0.1c0,0,0-0.1,0,0l0,0c0-0.1,0,0,0-0.1
		c0,0.1,0,0-0.1,0l0,0.1c-0.1,0.2,0-0.1-0.1-0.1c0,0,0,0,0,0.1c0,0,0-0.1-0.1,0c0,0,0-0.1,0-0.1c0,0-0.1,0-0.1,0c0,0.1,0-0.1,0.1,0
		l0,0.1c0,0-0.1,0-0.1,0c0,0,0,0,0,0c-0.1,0-0.1,0.1-0.1,0.1c0-0.1,0-0.1,0-0.1c0-0.1,0,0-0.1,0c0-0.1,0,0,0-0.1l-0.1,0c0,0,0,0,0,0
		c0,0.1,0,0-0.1,0c-0.1,0-0.1,0.1-0.1,0.2c0,0,0-0.1,0-0.1c0,0,0,0,0,0c0,0-0.1-0.1,0-0.1c0,0,0,0.1,0,0.1l-0.1,0c0,0.1,0,0.1,0,0.1
		c0,0,0,0-0.1,0c0,0,0-0.1,0-0.1c0,0,0,0-0.1,0c0,0-0.1,0,0,0.1l0,0c0,0,0,0,0,0c0-0.1,0,0,0,0c0,0,0,0,0-0.1c0,0,0,0,0,0
		c0,0,0,0.1,0,0.1l-0.1,0c0,0,0-0.2,0-0.2c0,0,0,0.1,0,0.1c0-0.1,0-0.1,0-0.2c0-0.1-0.1-0.1-0.1,0c0,0.1,0,0,0,0.1
		c-0.1,0-0.1,0.2-0.2,0.2l0,0c0,0,0,0-0.1,0.1c0-0.1,0-0.2-0.1-0.2c0,0,0,0.1,0,0.1l0,0c0,0,0,0,0,0c0,0-0.1-0.1-0.1,0l0-0.1l0,0.1
		c0,0,0,0.1-0.1,0.1c0,0-0.1,0-0.1,0c0,0,0,0.1,0,0.1c0-0.1-0.1-0.1-0.1-0.1c0,0,0,0,0,0l0-0.1c0,0.1-0.1,0.1-0.1,0.1
		c0-0.2,0,0-0.1-0.1c0,0.1-0.1,0-0.1,0.1c0,0,0-0.1,0-0.1l0,0c0-0.1-0.1-0.1-0.1-0.1l0,0.1l0,0c0,0,0,0,0,0.1l0,0c0,0.1,0,0-0.1,0.1
		c0,0,0,0,0-0.1c0,0,0-0.1,0-0.1c0,0-0.1,0.2,0,0.2c0,0,0,0.1,0,0.1l0-0.1l0,0.1c0,0,0,0-0.1-0.1c0,0,0-0.2,0-0.2c0,0,0-0.1,0.1-0.1
		c0,0,0,0,0-0.1c0,0,0,0.1-0.1,0.1c0-0.1,0-0.1,0-0.1l0,0.1c0,0,0,0,0,0c0,0,0,0,0,0.1c0,0,0,0.1-0.1,0.1c0,0.1-0.1,0.1,0,0.2
		c0,0,0,0,0,0c0-0.1,0-0.1,0-0.2c0,0,0,0.1,0,0.1c0,0,0,0,0-0.1l0,0l0,0c0,0,0,0.1,0,0.1c0,0,0,0,0,0c0-0.1,0-0.1,0-0.1
		c0,0-0.1,0-0.1,0.1l0,0c0,0,0.1,0.1,0,0.1l0,0l0,0.1l0,0c0,0,0,0,0,0c0,0,0,0,0-0.1c0,0,0,0,0,0.1c0,0,0,0,0-0.1c0,0-0.1,0-0.1,0
		c0,0,0,0,0,0.1c0-0.1-0.1-0.1-0.2,0c0,0.1,0,0,0,0.1c0,0-0.1-0.1,0-0.1l0,0c0-0.1,0.1-0.1,0-0.1c0,0-0.1,0.1-0.1,0.1
		c0-0.1,0,0,0-0.1c0,0,0,0,0,0l0,0c-0.1,0,0,0.1-0.1,0.2c-0.1,0,0-0.1,0-0.1c0,0,0,0,0,0c0-0.1,0.1,0.1,0,0.1c0-0.1-0.1,0-0.1,0
		c0.1,0.1,0.1,0,0.1,0.1c0,0,0-0.1,0-0.1c0,0,0,0.1,0,0.1c0-0.1,0,0,0,0c0,0,0,0.1,0,0.1l0-0.1c0,0,0,0.1,0,0.1c0,0.1,0,0.1,0,0.1
		c0.1,0.1,0.1-0.1,0.1-0.1c0,0,0,0,0,0c0,0,0,0,0,0c0,0,0,0.1,0,0.1l0,0c0,0,0,0,0,0c0,0,0,0,0,0c0,0,0,0.1,0,0.1l0-0.1
		c0,0,0,0.1,0,0.1l0.1,0l0,0.1c0,0,0,0,0,0c0,0,0.1-0.1,0.1,0c0.1-0.1,0.1,0,0.1-0.1c-0.1,0.1,0.1,0.1,0,0.1c0,0,0-0.1,0.1-0.1
		c0,0,0,0.1,0,0.2l0,0l0,0l0,0c0,0,0,0.1,0,0.1l0-0.1l0,0c0,0,0,0,0-0.1l0,0l0,0c0,0,0,0,0,0.1c0,0,0,0,0.1,0l0-0.1
		c0.1,0,0,0.1,0,0.1l0-0.1c0.1,0.1,0.1-0.1,0.1,0c0,0,0,0.1,0,0.1c0,0,0.1,0,0.1-0.1c0,0.1,0,0.1,0.1,0.1c0,0,0,0,0-0.1
		c0,0,0.1,0,0.1,0c0,0,0,0,0,0l0,0l0-0.1c0.1,0.1,0.1-0.1,0.1,0l0,0l0,0c0,0,0,0,0,0.1l0.1,0l0,0c0,0,0-0.1,0.1,0c0,0.1,0,0,0,0.1
		l0,0c0,0,0,0,0-0.1c0,0,0,0.1,0.1,0l0,0c0,0,0-0.1,0-0.1c0,0,0,0,0,0c0,0,0.1,0,0.1,0c0,0,0,0.1,0,0.1c0.1-0.1,0,0,0.1,0l0,0l0,0
		l0,0.1l0,0c0,0,0,0,0.1,0l0,0c0.1,0,0.1,0.1,0.1,0c0,0,0,0,0,0c0.1-0.1,0,0.1,0.1,0c0,0,0,0,0,0.1l0,0l0,0.1l0-0.1l0,0.1l0,0
		c0,0.1,0.1,0,0.1,0.1l0-0.1c0.1-0.2,0.2,0.1,0.3,0l0,0.1l0-0.1c0,0.1,0,0.1,0,0.1c0,0,0-0.1,0.1-0.1c0,0,0,0,0,0.1
		c0.1,0,0.1-0.1,0.2,0c0,0,0,0,0,0c0,0,0.1,0,0.1,0c0,0,0,0,0,0c0,0,0,0,0,0l0,0.1c0,0,0.1,0,0.1,0c0,0,0-0.1,0-0.1
		c0,0.1,0.1,0,0.1,0c0,0,0,0,0,0c0,0,0,0,0.1-0.1l0,0l0.1-0.1c0,0.1,0.1,0,0.1,0.1c0,0,0,0,0-0.1c0,0,0,0,0,0l0,0l0,0l0,0.1
		c0,0,0-0.1,0-0.1c0,0,0.1,0,0.1,0.1l0,0c0.1,0,0.1,0.2,0.2,0.1c0,0,0,0,0,0l0,0l0,0l0.1-0.1l0,0c0,0,0.1,0,0.2,0l0,0
		c0.1-0.1,0.1,0,0.1,0c0,0,0,0,0,0l0,0l0,0c0-0.1,0.1,0.1,0.1,0c0,0,0-0.1,0.1-0.1c0,0,0,0,0,0.1c0,0,0-0.1,0.1,0l0,0c0,0,0,0,0.1,0
		l0,0c0-0.1,0.1,0.1,0.1,0c0,0,0.1,0,0.1,0.1c0.1,0,0.1-0.1,0.2-0.1c0,0.1,0,0,0,0.1l0-0.1c0.1,0,0.2,0.1,0.3,0.1l0,0.1l0-0.1
		c0.1,0,0.2,0.1,0.3,0.1c0,0,0.1-0.1,0.1-0.1l0,0c0.1,0,0.2-0.1,0.2,0c0,0,0,0,0,0.1c0-0.1,0,0,0.1,0l0,0c0-0.1,0.1,0,0.1,0l0-0.1
		c0,0,0,0,0,0l0,0l0,0.1c0,0,0.1,0,0.1-0.1c0,0,0,0,0,0.1l0.1,0l0,0c0-0.1,0-0.1,0.1-0.1c0,0,0,0.1,0,0.1c0,0,0-0.1,0-0.1
		c0,0,0.1-0.1,0.1,0l0,0c0,0,0,0.1,0.1,0.1c0,0,0,0,0-0.1c0,0,0,0.1,0,0.1c0,0,0.1,0,0.1,0c0-0.1,0.1,0.1,0.1-0.1l0,0.1
		c0,0,0-0.1,0-0.1c0,0,0,0.1,0,0.1l0-0.1c0.1,0.1,0.3,0,0.5,0.2c0.1,0,0.2-0.1,0.2-0.1l0,0l0.1,0L26,31.4c0,0,0,0,0,0
		c0.1,0.1,0.2,0.1,0.3,0.1c0.1-0.1,0,0.1,0.1,0c0,0,0,0,0,0c0.1,0,0.1-0.1,0.2-0.2c0,0.1,0,0,0,0.1l0-0.1c0,0,0.1,0,0,0.1l0-0.1
		l0,0.1c0,0,0.1,0,0.2,0.1c0.1-0.1,0.3-0.1,0.4,0c0,0,0.1-0.1,0.1-0.1l0,0.1c0,0,0.1-0.1,0.1-0.1c0,0,0,0,0,0c0,0,0.1,0,0.1,0
		c0,0,0.1,0,0.1,0.1c0-0.1,0.1,0,0.1,0s1.7,0.3,2.2-0.4c0-0.1,0.1-0.1,0-0.2c0,0,0,0.1,0.1,0c0,0,0-0.2,0-0.2l0,0c0,0,0,0,0,0l0,0.1
		c0,0,0,0,0-0.1c0,0,0,0.2-0.1,0.1l0,0c0,0,0-0.1,0-0.1l0,0l0-0.1c0,0,0.1-0.1,0,0c0,0,0,0,0,0c0,0,0-0.1,0-0.1l0,0c0-0.1,0,0,0,0
		l0,0.1c0-0.1-0.1,0.1-0.1-0.1c0,0,0,0,0-0.1l-0.1,0c0,0,0,0,0,0c0,0,0,0,0,0c0,0-0.1,0-0.1-0.1c-0.1-0.1,0,0.1-0.1,0.1
		c0-0.1,0,0,0-0.1l-0.1,0c0,0,0-0.1,0-0.1c-0.2-0.1-0.2-0.3-0.4-0.3c0-0.1,0,0,0-0.1C29,30.2,29,29.9,28.9,30l0,0.1
		c-0.1-0.2-0.3-0.1-0.4-0.1l0,0c0,0,0,0.1-0.1,0.1c0,0,0-0.1,0-0.1c0,0,0,0,0,0.1c-0.1-0.1-0.4-0.1-0.5-0.2c-0.3,0-0.5-0.1-0.8,0
		c0,0,0,0.1,0,0.1c-0.1-0.2-0.1,0-0.2-0.1c-0.1,0.1-0.3-0.1-0.4,0l0-0.1c0,0,0,0,0,0l0,0c-0.1,0-0.1,0-0.1,0l0,0.1c0,0,0-0.1,0,0
		l0,0l0,0.1c0-0.1-0.1,0-0.1-0.1c0,0-0.1,0.1-0.2,0c0-0.1-0.1-0.1-0.1-0.1c-0.1,0-0.2,0-0.3,0l0,0.1l0,0c0,0,0,0,0,0
		c0-0.1-0.1,0-0.1,0c0,0.1,0,0,0,0c0,0,0,0.1,0,0.1l0,0l0,0c0-0.1,0-0.1,0-0.1c-0.1,0-0.2,0.1-0.3,0.1c0-0.1-0.1,0-0.1-0.1
		c-0.1,0,0,0.1,0,0.2c0,0,0,0,0,0c0,0,0-0.1,0-0.1l0,0c0,0,0,0,0,0c-0.1,0.1-0.1-0.1-0.2,0c0,0,0,0,0,0.1c-0.1,0.1-0.1-0.1-0.1,0
		l0-0.1c0,0,0,0.1-0.1,0c0-0.1,0-0.1,0-0.1c0,0-0.1,0-0.1,0.1c0,0,0,0-0.1-0.1c0,0,0,0,0,0.1C24.4,29.8,24.3,29.8,24.2,29.7
		C24.3,29.7,24.3,29.7,24.2,29.7C24.2,29.8,24.2,29.6,24.2,29.7z"/>
	<path d="M21.5,30L21.5,30C21.5,30,21.5,30,21.5,30L21.5,30z"/>
	<path d="M22.4,30C22.4,30,22.4,30,22.4,30C22.4,30,22.4,30,22.4,30z"/>
	<path d="M22.7,29.9C22.7,29.9,22.7,30,22.7,29.9C22.7,30,22.7,29.9,22.7,29.9z"/>
	<path d="M20.9,30.2C20.9,30.2,20.9,30.2,20.9,30.2C20.9,30.2,20.9,30.2,20.9,30.2z"/>
	<path d="M19.4,30.1C19.4,30.1,19.4,30.1,19.4,30.1C19.4,30.1,19.4,30.1,19.4,30.1z"/>
	<path d="M19.5,30.2C19.5,30.2,19.5,30.2,19.5,30.2C19.5,30.2,19.5,30.2,19.5,30.2z"/>
	<path d="M21.3,30.2C21.3,30.2,21.3,30.2,21.3,30.2C21.3,30.1,21.3,30.1,21.3,30.2z"/>
	<path d="M19.5,30.2L19.5,30.2C19.6,30.2,19.6,30.2,19.5,30.2L19.5,30.2z"/>
	<path d="M19.4,30.1C19.4,30.1,19.4,30.1,19.4,30.1C19.4,30.1,19.4,30.1,19.4,30.1z"/>
	<path d="M20.4,30.3C20.4,30.3,20.4,30.3,20.4,30.3C20.4,30.2,20.4,30.3,20.4,30.3z"/>
	<polygon points="19.6,30.1 19.6,30.1 19.6,30.1 	"/>
	<path d="M19.3,30.1C19.3,30.1,19.3,30.1,19.3,30.1C19.3,30.1,19.3,30.1,19.3,30.1C19.3,30.1,19.3,30.1,19.3,30.1z"/>
	<path d="M20.1,30.2C20,30.2,20,30.2,20.1,30.2C20.1,30.2,20.1,30.2,20.1,30.2z"/>
</g>
<g>
	<path d="M102.4,30.4C102.4,30.4,102.4,30.4,102.4,30.4C102.4,30.4,102.4,30.4,102.4,30.4z"/>
	<path d="M101.4,30.2L101.4,30.2C101.4,30.2,101.4,30.2,101.4,30.2z"/>
	<path d="M102.9,30.5C102.9,30.5,102.9,30.5,102.9,30.5C102.9,30.5,102.9,30.5,102.9,30.5L102.9,30.5z"/>
	<path d="M99.4,30L99.4,30C99.4,30,99.4,30,99.4,30z"/>
	<path d="M100.6,30.1C100.6,30.1,100.6,30.1,100.6,30.1C100.6,30.1,100.6,30.1,100.6,30.1z"/>
	<path d="M103.2,31.1L103.2,31.1C103.2,31.1,103.2,31.1,103.2,31.1z"/>
	<path d="M103.8,30.9C103.8,30.9,103.8,30.9,103.8,30.9C103.8,30.9,103.8,30.9,103.8,30.9z"/>
	<path d="M103.6,30.8C103.5,30.8,103.5,30.8,103.6,30.8C103.5,30.8,103.6,30.8,103.6,30.8z"/>
	<path d="M103.5,30.8C103.5,30.8,103.5,30.8,103.5,30.8C103.5,30.8,103.5,30.8,103.5,30.8z"/>
	<path d="M92.2,30.2C92.2,30.2,92.2,30.2,92.2,30.2L92.2,30.2z"/>
	<path d="M97.6,29.9L97.6,29.9C97.6,29.9,97.6,29.9,97.6,29.9z"/>
	<path d="M92.2,30.6L92.2,30.6C92.2,30.6,92.2,30.6,92.2,30.6z"/>
	<path d="M102.9,31.2C102.9,31.3,102.9,31.2,102.9,31.2C102.9,31.3,102.9,31.3,102.9,31.2z"/>
	<path d="M97.2,31.6L97.2,31.6C97.2,31.6,97.2,31.6,97.2,31.6z"/>
	<path d="M92.2,30.6L92.2,30.6C92.2,30.6,92.2,30.6,92.2,30.6C92.2,30.6,92.2,30.6,92.2,30.6z"/>
	<polygon points="95.8,29.9 95.8,29.9 95.8,29.9 	"/>
	<path d="M95.7,29.9C95.7,29.9,95.7,29.8,95.7,29.9C95.7,29.8,95.7,29.8,95.7,29.9z"/>
	<path d="M92.2,30.3L92.2,30.3C92.1,30.3,92.1,30.3,92.2,30.3z"/>
	<path d="M94.6,29.9C94.6,29.9,94.6,29.9,94.6,29.9C94.6,29.9,94.6,29.9,94.6,29.9z"/>
	<path d="M100.7,30.1C100.7,30.2,100.7,30.2,100.7,30.1C100.7,30.1,100.7,30.1,100.7,30.1z"/>
	<polygon points="99.9,31.3 99.9,31.3 99.9,31.3 	"/>
	<path d="M100,31.2C100,31.2,100,31.3,100,31.2C100,31.3,100,31.3,100,31.2z"/>
	<path d="M99.9,31.3C99.9,31.3,99.9,31.3,99.9,31.3C99.9,31.3,99.9,31.3,99.9,31.3z"/>
	<polygon points="100.7,31.4 100.7,31.4 100.7,31.4 	"/>
	<path d="M100.5,31.4C100.5,31.4,100.5,31.4,100.5,31.4C100.5,31.4,100.5,31.4,100.5,31.4z"/>
	<polygon points="99.5,31.4 99.5,31.4 99.5,31.4 	"/>
	<path d="M98,31.7c0.1,0,0.3-0.1,0.5-0.1c0-0.1,0.1-0.1,0.1-0.1l0,0.1l0,0c0,0,0,0,0,0.1l0-0.1c0,0,0.1,0,0,0.1l0.2,0
		c0,0,0-0.1,0.1-0.1c0,0,0,0,0,0.1c0.1,0.1,0.1-0.2,0.2-0.2l0,0c0,0,0.1,0,0.1,0c0-0.1,0,0.1-0.1,0c0-0.1,0-0.1,0-0.1c0,0,0,0,0.1,0
		c0,0.1,0.1,0,0.1,0.1c0,0,0-0.1,0.1-0.1c0,0.1,0,0.1,0,0.1l0-0.1c0,0,0,0,0,0.1c0,0,0-0.1,0.1,0l0,0.1c0,0,0,0,0.1,0c0,0,0,0,0,0
		c0,0.1,0,0,0.1,0c0,0,0,0,0-0.1c0,0,0-0.1,0.1,0l0,0.1c0,0,0-0.1,0.1-0.1c0,0,0,0,0,0c0-0.1,0.1,0,0.1,0l0,0c0,0,0-0.1,0-0.1
		c0,0,0-0.1,0-0.1c0,0.1,0.1-0.1,0.1-0.1c0,0,0,0.1,0,0c0,0.1,0,0.2-0.1,0.2c0,0,0,0,0,0l0-0.1c0,0,0,0,0,0c0-0.1,0-0.1,0-0.1
		c0,0,0,0.1,0,0.1c0,0,0-0.1,0.1-0.1c0,0,0,0,0,0c0,0,0.1,0,0.1,0.1c0,0,0,0.1,0,0l0,0c0,0.1,0,0,0,0.1c0-0.1,0,0,0.1,0l0-0.1
		c0.1-0.2,0,0.1,0.1,0.1c0,0,0,0,0-0.1c0,0,0,0.1,0.1,0c0,0,0,0.1,0,0.1c0,0,0.1,0,0.1,0c0-0.1,0,0.1-0.1,0l0-0.1c0,0,0.1,0,0.1,0
		c0,0,0,0,0,0c0.1,0,0.1-0.1,0.1-0.1c0,0.1,0,0.1,0,0.1c0,0.1,0,0,0.1,0c0,0.1,0,0,0,0.1l0.1,0c0,0,0,0,0,0c0-0.1,0,0,0.1,0
		c0.1,0,0.1-0.1,0.1-0.2c0,0,0,0.1,0,0.1c0,0,0,0,0,0c0,0,0.1,0.1,0,0.1c0,0,0-0.1,0-0.1l0.1,0c0-0.1,0-0.1,0-0.1c0,0,0,0,0.1,0
		c0,0,0,0.1,0,0.1c0,0,0,0,0.1,0c0,0,0.1,0,0-0.1l0,0c0,0,0,0,0,0c0,0.1,0,0,0,0c0,0,0,0,0,0.1c0,0,0,0,0,0c0,0,0-0.1,0-0.1l0.1,0
		c0,0,0,0.2,0,0.2c0,0,0-0.1,0-0.1c0,0.1,0,0.1,0,0.2c0,0.1,0.1,0.1,0.1,0c0-0.1,0,0,0-0.1c0.1,0,0.1-0.2,0.2-0.2l0,0
		c0,0,0,0,0.1-0.1c0,0.1,0,0.2,0.1,0.2c0,0,0-0.1,0-0.1l0,0c0,0,0,0,0,0c0,0,0.1,0.1,0.1,0l0,0.1l0-0.1c0,0,0-0.1,0.1-0.1
		c0,0,0.1,0,0.1,0c0,0,0-0.1,0-0.1c0,0.1,0.1,0.1,0.1,0.1c0,0,0,0,0,0l0,0.1c0-0.1,0.1-0.1,0.1-0.1c0,0.2,0,0,0.1,0.1
		c0-0.1,0.1,0,0.1-0.1c0,0,0,0.1,0,0.1l0,0c0,0.1,0.1,0.1,0.1,0.1l0-0.1l0,0c0,0,0,0,0-0.1l0,0c0-0.1,0,0,0.1-0.1c0,0,0,0,0,0.1
		c0,0,0,0.1,0,0.1c0,0,0.1-0.2,0-0.2c0,0,0-0.1,0-0.1l0,0.1l0-0.1c0,0,0,0,0.1,0.1c0,0,0,0.2,0,0.2c0,0,0,0.1-0.1,0.1c0,0,0,0,0,0.1
		c0,0,0-0.1,0.1-0.1c0,0.1,0,0.1,0,0.1l0-0.1c0,0,0,0,0,0c0,0,0,0,0-0.1c0,0,0-0.1,0.1-0.1c0-0.1,0.1-0.1,0-0.2c0,0,0,0,0,0
		c0,0.1,0,0.1,0,0.2c0,0,0-0.1,0-0.1c0,0,0,0,0,0.1l0,0l0,0c0,0,0-0.1,0-0.1c0,0,0,0,0,0c0,0.1,0,0.1,0,0.1c0,0,0.1,0,0.1-0.1l0,0
		c0,0-0.1-0.1,0-0.1l0,0l0-0.1l0,0c0,0,0,0,0,0c0,0,0,0,0,0.1c0,0,0,0,0-0.1c0,0,0,0,0,0.1c0,0,0.1,0,0.1,0c0,0,0,0,0-0.1
		c0,0.1,0.1,0.1,0.2,0c0-0.1,0,0,0-0.1c0,0,0.1,0.1,0,0.1l0,0c0,0.1-0.1,0.1,0,0.1c0,0,0.1-0.1,0.1-0.1c0,0.1,0,0,0,0.1c0,0,0,0,0,0
		l0,0c0.1,0,0-0.1,0.1-0.2c0.1,0,0,0.1,0,0.1c0,0,0,0,0,0c0,0.1-0.1-0.1,0-0.1c0,0.1,0.1,0,0.1,0c-0.1-0.1-0.1,0-0.1-0.1
		c0,0,0,0.1,0,0.1c0,0,0-0.1,0-0.1c0,0.1,0,0,0,0c0,0,0-0.1,0-0.1l0,0.1c0,0,0-0.1,0-0.1c0-0.1,0-0.1,0-0.1
		c-0.1-0.1-0.1,0.1-0.1,0.1c0,0,0,0,0,0c0,0,0,0,0,0c0,0,0-0.1,0-0.1l0,0c0,0,0,0,0,0c0,0,0,0,0,0c0,0,0-0.1,0-0.1l0,0.1
		c0,0,0-0.1,0-0.1l-0.1,0l0-0.1c0,0,0,0,0,0c0,0-0.1,0.1-0.1,0c-0.1,0.1-0.1,0-0.1,0.1c0.1-0.1-0.1-0.1,0-0.1c0,0,0,0.1-0.1,0.1
		c0,0,0-0.1,0-0.2l0,0l0,0l0,0c0,0,0-0.1,0-0.1l0,0.1l0,0c0,0,0,0,0,0.1l0,0l0,0c0,0,0,0,0-0.1c0,0,0,0-0.1,0l0,0.1
		c-0.1,0,0-0.1,0-0.1l0,0.1c-0.1-0.1-0.1,0.1-0.1,0c0,0,0-0.1,0-0.1c0,0-0.1,0-0.1,0.1c0-0.1,0-0.1-0.1-0.1c0,0,0,0,0,0.1
		c0,0-0.1,0-0.1,0c0,0,0,0,0,0l0,0l0,0.1c-0.1-0.1-0.1,0.1-0.1,0l0,0l0,0c0,0,0,0,0-0.1l-0.1,0l0,0c0,0,0,0.1-0.1,0c0-0.1,0,0,0-0.1
		l0,0c0,0,0,0,0,0.1c0,0,0-0.1-0.1,0l0,0c0,0,0,0.1,0,0.1c0,0,0,0,0,0c0,0-0.1,0-0.1,0c0,0,0-0.1,0-0.1c-0.1,0.1,0,0-0.1,0l0,0l0,0
		l0-0.1l0,0c0,0,0,0-0.1,0l0,0c-0.1,0-0.1-0.1-0.1,0c0,0,0,0,0,0c-0.1,0.1,0-0.1-0.1,0c0,0,0,0,0-0.1l0,0l0-0.1l0,0.1l0-0.1l0,0
		c0-0.1-0.1,0-0.1-0.1l0,0.1c-0.1,0.2-0.2-0.1-0.3,0l0-0.1l0,0.1c0-0.1,0-0.1,0-0.1c0,0,0,0.1-0.1,0.1c0,0,0,0,0-0.1
		c-0.1,0-0.1,0.1-0.2,0c0,0,0,0,0,0c0,0-0.1,0-0.1,0c0,0,0,0,0,0c0,0,0,0,0,0l0-0.1c0,0-0.1,0-0.1,0c0,0,0,0.1,0,0.1
		c0-0.1-0.1,0-0.1,0c0,0,0,0,0,0c0,0,0,0-0.1,0.1l0,0l-0.1,0.1c0-0.1-0.1,0-0.1-0.1c0,0,0,0,0,0.1c0,0,0,0,0,0l0,0l0,0l0-0.1
		c0,0,0,0.1,0,0.1c0,0-0.1,0-0.1-0.1l0,0c-0.1,0-0.1-0.2-0.2-0.1c0,0,0,0,0,0l0,0l0,0L99.7,30l0,0c0,0-0.1,0-0.2,0l0,0
		c-0.1,0.1-0.1,0-0.1,0c0,0,0,0,0,0l0,0l0,0c0,0.1-0.1-0.1-0.1,0c0,0,0,0.1-0.1,0.1c0,0,0,0,0-0.1c0,0,0,0.1-0.1,0l0,0
		c0,0,0,0-0.1,0l0,0c0,0.1-0.1-0.1-0.1,0c0,0-0.1,0-0.1-0.1c-0.1,0-0.1,0.1-0.2,0.1c0-0.1,0,0,0-0.1l0,0.1c-0.1,0-0.2-0.1-0.3-0.1
		l0-0.1l0,0.1c-0.1,0-0.2-0.1-0.3-0.1c0,0-0.1,0.1-0.1,0.1l0,0c-0.1,0-0.2,0.1-0.2,0c0,0,0,0,0-0.1c0,0.1,0,0-0.1,0l0,0
		c0,0.1-0.1,0-0.1,0l0,0.1c0,0,0,0,0,0l0,0l0-0.1c0,0-0.1,0-0.1,0.1c0,0,0,0,0-0.1l-0.1,0l0,0c0,0.1,0,0.1-0.1,0.1c0,0,0-0.1,0-0.1
		c0,0,0,0.1,0,0.1c0,0-0.1,0.1-0.1,0l0,0c0,0,0-0.1-0.1-0.1c0,0,0,0,0,0.1c0,0,0-0.1,0-0.1c0,0-0.1,0-0.1,0c0,0.1-0.1-0.1-0.1,0.1
		l0-0.1c0,0,0,0.1,0,0.1c0,0,0-0.1,0-0.1l0,0.1c-0.1-0.1-0.3,0-0.5-0.2c-0.1,0-0.2,0.1-0.2,0.1l0,0l-0.1,0l0.1,0.1c0,0,0,0,0,0
		c-0.1-0.1-0.2-0.1-0.3-0.1c-0.1,0.1,0-0.1-0.1,0c0,0,0,0,0,0c-0.1,0-0.1,0.1-0.2,0.2c0-0.1,0,0,0-0.1l0,0.1c0,0-0.1,0,0-0.1l0,0.1
		l0-0.1c0,0-0.1,0-0.2-0.1c-0.1,0.1-0.3,0.1-0.4,0c0,0-0.1,0.1-0.1,0.1l0-0.1c0,0-0.1,0.1-0.1,0.1c0,0,0,0,0,0c0,0-0.1,0-0.1,0
		c0,0-0.1,0-0.1-0.1c0,0.1-0.1,0-0.1,0s-1.7-0.3-2.2,0.4c0,0.1-0.1,0.1,0,0.2c0,0,0-0.1-0.1,0c0,0,0,0.2,0,0.2l0,0c0,0,0,0,0,0
		l0-0.1c0,0,0,0,0,0.1c0,0,0-0.2,0.1-0.1l0,0c0,0,0,0.1,0,0.1l0,0l0,0.1c0,0-0.1,0.1,0,0c0,0,0,0,0,0c0,0,0,0.1,0,0.1l0,0
		c0,0.1,0,0,0,0l0-0.1c0,0.1,0.1-0.1,0.1,0.1c0,0,0,0,0,0.1l0.1,0c0,0,0,0,0,0c0,0,0,0,0,0c0,0,0.1,0,0.1,0.1c0.1,0.1,0-0.1,0.1-0.1
		c0,0.1,0,0,0,0.1l0.1,0c0,0,0,0.1,0,0.1c0.2,0.1,0.2,0.3,0.4,0.3c0,0.1,0,0,0,0.1c0.1-0.1,0.1,0.1,0.2,0.1l0-0.1
		c0.1,0.2,0.3,0.1,0.4,0.1l0,0c0,0,0-0.1,0.1-0.1c0,0,0,0.1,0,0.1c0,0,0,0,0-0.1c0.1,0.1,0.4,0.1,0.5,0.2c0.3,0,0.5,0.1,0.8,0
		c0,0,0-0.1,0-0.1c0.1,0.2,0.1,0,0.2,0.1c0.1-0.1,0.3,0.1,0.4,0l0,0.1c0,0,0,0,0,0l0,0c0.1,0,0.1,0,0.1,0l0-0.1c0,0,0,0.1,0,0l0,0
		l0-0.1c0,0.1,0.1,0,0.1,0.1c0,0,0.1-0.1,0.2,0c0,0.1,0.1,0.1,0.1,0.1c0.1,0,0.2,0,0.3,0l0-0.1l0,0c0,0,0,0,0,0c0,0.1,0.1,0,0.1,0
		c0-0.1,0,0,0,0c0,0,0-0.1,0-0.1l0,0l0,0c0,0.1,0,0.1,0,0.1c0.1,0,0.2-0.1,0.3-0.1c0,0.1,0.1,0,0.1,0.1c0.1,0,0-0.1,0-0.2
		c0,0,0,0,0,0c0,0,0,0.1,0,0.1l0,0c0,0,0,0,0,0c0.1-0.1,0.1,0.1,0.2,0c0,0,0,0,0-0.1c0.1-0.1,0.1,0.1,0.1,0l0,0.1c0,0,0-0.1,0.1,0
		c0,0.1,0,0.1,0,0.1c0,0,0.1,0,0.1-0.1c0,0,0,0,0.1,0.1c0,0,0,0,0-0.1C97.8,31.6,97.8,31.6,98,31.7C97.9,31.6,97.9,31.7,98,31.7
		C97.9,31.6,97.9,31.7,98,31.7z"/>
	<path d="M100.7,31.4L100.7,31.4C100.7,31.4,100.7,31.4,100.7,31.4L100.7,31.4z"/>
	<path d="M99.7,31.3C99.7,31.3,99.7,31.3,99.7,31.3C99.7,31.3,99.7,31.3,99.7,31.3z"/>
	<path d="M99.5,31.5C99.5,31.4,99.5,31.4,99.5,31.5C99.5,31.4,99.5,31.4,99.5,31.5z"/>
	<path d="M101.2,31.2C101.2,31.2,101.2,31.2,101.2,31.2C101.2,31.2,101.2,31.2,101.2,31.2z"/>
	<path d="M102.7,31.2C102.7,31.2,102.7,31.2,102.7,31.2C102.7,31.2,102.7,31.2,102.7,31.2z"/>
	<path d="M102.7,31.1C102.7,31.1,102.6,31.1,102.7,31.1C102.6,31.2,102.7,31.1,102.7,31.1z"/>
	<path d="M100.9,31.2C100.9,31.2,100.8,31.2,100.9,31.2C100.8,31.2,100.9,31.2,100.9,31.2z"/>
	<path d="M102.6,31.2L102.6,31.2C102.6,31.2,102.6,31.2,102.6,31.2L102.6,31.2z"/>
	<path d="M102.8,31.3C102.8,31.3,102.7,31.3,102.8,31.3C102.8,31.3,102.8,31.3,102.8,31.3z"/>
	<path d="M101.8,31.1C101.8,31.1,101.8,31.1,101.8,31.1C101.8,31.1,101.8,31.1,101.8,31.1z"/>
	<polygon points="102.5,31.3 102.5,31.3 102.5,31.3 	"/>
	<path d="M102.9,31.3C102.9,31.3,102.9,31.3,102.9,31.3C102.9,31.3,102.9,31.3,102.9,31.3C102.9,31.3,102.9,31.3,102.9,31.3z"/>
	<path d="M102.1,31.2C102.1,31.2,102.1,31.2,102.1,31.2C102.1,31.2,102.1,31.2,102.1,31.2z"/>
</g>
<g>
	<path d="M5.6,11.8c0,0-0.1,0.1-0.1,0.1C5.6,11.8,5.6,11.8,5.6,11.8C5.6,11.8,5.6,11.8,5.6,11.8z"/>
	<path d="M0.5,17.1c0-0.1-0.3,0.1-0.4,0.2c0.2,0,0.4,0,0.7-0.2l-0.4,0.4c0,0.4,0.5-0.4,0.3,0c-0.3,0.2-0.5,0.4-0.4,0.2
		c0.1,0,0.2-0.1,0.3-0.2c-0.1-0.1-0.4,0-0.6,0.1l0.7-0.6L0.5,17.1z"/>
	<path d="M16.1,4.9c0,0.2,0,0.4,0,0.6c0,0.2,0,0.4-0.1,0.6V6.1c0-0.1,0-0.1,0-0.2c0-0.1,0-0.1,0-0.2c0-0.1,0-0.1,0-0.2
		C16.1,5.4,16.1,5.2,16.1,4.9z"/>
	<path class="st3" d="M14.3,5.5c0,0,0.3-0.1,0.3-0.1"/>
	<line class="st3" x1="14.7" y1="8.4" x2="15" y2="8"/>
	<path d="M6.2,26.2C6,26,5.8,25.8,5.6,25.6C5.8,25.8,6,26,6.2,26.2z"/>
	<path d="M12.2,26.5L12.2,26.5C12.2,26.5,12.2,26.5,12.2,26.5C12.2,26.5,12.2,26.5,12.2,26.5z"/>
	<path d="M7.5,13.4C7.5,13.4,7.5,13.4,7.5,13.4C7.5,13.4,7.5,13.4,7.5,13.4L7.5,13.4z M9.7,27.1C9.7,27.2,9.7,27.2,9.7,27.1
		C9.7,27.2,9.7,27.2,9.7,27.1C9.7,27.2,9.7,27.2,9.7,27.1z M11.4,26.2C11.4,26.2,11.4,26.2,11.4,26.2L11.4,26.2
		C11.4,26.2,11.4,26.2,11.4,26.2z"/>
	<path d="M16.1,22.6c0.2-0.6,0.2-1.3,0.1-1.6c-0.1-0.5-0.2-0.9-0.2-1.4c0.1-1.2,0.2-2.4,0.1-3.5c0,0,0,0,0,0c0-0.7,0.1-1.4,0.1-2.1
		c0-0.7,0-1.4,0-2c0-0.1,0-0.2,0-0.2c0-0.1,0-0.2,0-0.4c0-0.3,0-0.5,0-0.8c0-0.5,0-1,0-1.4C16.1,8.2,16,7.4,16,6.5
		c0-0.1,0-0.2,0-0.3c0,0,0,0,0,0V6.1c0-0.1,0-0.1,0-0.2c0-0.1,0-0.1,0-0.2c0-0.1,0-0.1,0-0.2L16,5.7c0-0.3,0-0.5,0-0.7v0
		C16.1,4,16.2,3,16.2,2.1c-0.2,0.1-0.4,0.2-0.4,0.2c-0.5,0.7-0.1,0.5,0.3,0c0,0-1.3,1.3-1.9,1.9c0.1-0.1,0.2-0.2,0.2-0.3
		c0.2-0.3,0.4-0.5,0.6-0.6c0.2-0.4,0.2-0.4,0-0.3c-0.3,0.4-0.8,0.8-1.2,1.2c0-0.2,0-0.3,0-0.4c-0.1,0.2-0.3,0.4-0.4,0.6
		c-0.2,0.1,0-0.2-0.1-0.2c-0.4,0.5-0.8,0.9-1.1,1.2c-0.1,0-0.2,0.1-0.6,0.5l0,0.1c-0.3,0.2-0.5,0.5-0.8,0.7c-0.4,0.4-0.9,0.7-1.3,1
		C9.5,7.8,9.4,7.9,9.3,7.9C9.2,8,9,8.1,9,8.1C8.8,8.2,8.7,8.3,8.5,8.3c-0.2,0.8-1.1,1.2-1.6,1.9c-0.4,0.5-0.8,1-1.2,1.5
		c0,0-0.1,0.1-0.1,0.1c-0.2,0.2-0.4,0.4-0.7,0.6c-1.1,0.8-1.8,1.6-2.3,2.5c0,0.1-0.1,0.1-0.1,0.2c-0.1,0.2-0.3,0.5-0.4,0.7v0
		c0,0-0.1,0-0.1,0c0,0,0,0,0,0v0c-0.2,0.4-0.4,0.8-0.6,1.2L1,17.3c0.1,0.1,0.2,0,0.3-0.1C1.2,17.5,1,17.8,0.9,18
		c0.2,0.1,0.4,0.2,0.7,0.3l-0.4,0.4L2.5,20c-0.4-0.2-0.8-0.4-1.2-0.6C1,19.9,0.6,20.6,1.8,22c0.2,0.2,0.4,0.4,0.6,0.6
		C2.5,23,2.8,23.3,3,23.7c0.6,0.3,1.3,0.8,2,1.4c0,0.1,0.1,0.1,0.1,0.2c0.1,0.1,0.3,0.2,0.5,0.3c0,0,0,0,0,0C5.8,25.8,6,26,6.2,26.2
		c0.8,1,1.7,1.9,2.5,2.8c0.2,0.2,0.4,0.4,0.7,0.7c0.4,0.4,0.8,0.8,1.2,1.1c0.8,0.7,1.5,1.5,2.3,2.2c1.2,1.2,2.5,2.4,3.6,3.3
		c-0.1-1.7-0.2-3.3-0.3-4.8c0,0,0-0.1,0-0.1c0.1-0.1,0.2-0.2,0.3-0.5c0.1-0.3,0.2-0.7,0.2-1.3c0-0.8,0-1.7,0.1-2.6
		c0-0.3,0-0.6,0-0.9c0-0.3,0-0.5,0-0.8C16.6,24.2,16.4,23.2,16.1,22.6z"/>
	<path d="M1.9,15.9c-0.1,0-0.2,0.1-0.2,0C1.8,15.9,1.9,15.9,1.9,15.9z"/>
	<path d="M16.1,5.9c0,0.1,0,0.2,0,0.2V6.1C16,6.1,16.1,6,16.1,5.9z"/>
	<path d="M16.1,5.6c0,0.1,0,0.1,0,0.2C16.1,5.7,16.1,5.6,16.1,5.6L16.1,5.6z"/>
</g>
<g>
	<path d="M104.8,32.2C104.8,32.2,104.8,32.2,104.8,32.2C104.8,32.2,104.8,32.2,104.8,32.2z"/>
	<polygon points="106.7,8.2 106.7,8.2 106.7,8.2 	"/>
	<path d="M107.6,8.6C107.6,8.6,107.6,8.6,107.6,8.6C107.6,8.6,107.6,8.6,107.6,8.6C107.6,8.6,107.6,8.6,107.6,8.6z"/>
	<path d="M108.6,7.3c0-0.1-0.1-0.1-0.1-0.2L108.6,7.3C108.6,7.2,108.6,7.3,108.6,7.3z"/>
	<polygon points="113,13.5 112.9,13.5 113,13.5 	"/>
	<polygon points="113,13.5 112.9,13.5 113,13.5 	"/>
	<path d="M104.8,32.2C104.8,32.2,104.8,32.2,104.8,32.2C104.8,32.2,104.8,32.2,104.8,32.2z M106.7,8.2L106.7,8.2
		C106.7,8.2,106.7,8.2,106.7,8.2C106.7,8.2,106.7,8.2,106.7,8.2z M106.8,8.1C106.8,8.1,106.7,8.1,106.8,8.1
		C106.8,8.1,106.8,8.1,106.8,8.1L106.8,8.1z M108.6,7.2l-0.1-0.1C108.5,7.2,108.5,7.2,108.6,7.2C108.6,7.3,108.6,7.2,108.6,7.2z"/>
	<path d="M104.8,32.2C104.8,32.2,104.8,32.2,104.8,32.2C104.8,32.2,104.8,32.2,104.8,32.2z M106.7,8.2L106.7,8.2
		C106.7,8.2,106.7,8.2,106.7,8.2C106.7,8.2,106.7,8.2,106.7,8.2z M106.8,8.1C106.8,8.1,106.7,8.1,106.8,8.1
		C106.8,8.1,106.8,8.1,106.8,8.1L106.8,8.1z M108.6,7.2l-0.1-0.1C108.5,7.2,108.5,7.2,108.6,7.2C108.6,7.3,108.6,7.2,108.6,7.2z
		 M113,13.5C112.9,13.5,112.9,13.5,113,13.5L113,13.5C113,13.5,113,13.5,113,13.5z M114.6,13.4C114.6,13.4,114.6,13.4,114.6,13.4
		L114.6,13.4L114.6,13.4z"/>
	<polygon points="106.7,8.2 106.7,8.2 106.7,8.2 	"/>
	<path d="M106.8,8.1C106.8,8.1,106.8,8.1,106.8,8.1C106.7,8.1,106.8,8.1,106.8,8.1L106.8,8.1z"/>
	<path d="M114.6,13.4L114.6,13.4C114.6,13.4,114.6,13.4,114.6,13.4L114.6,13.4z"/>
	<line class="st3" x1="106.5" y1="5.7" x2="106" y2="5.1"/>
	<path d="M109.1,6.7c0,0-0.1-0.3-0.2-0.5c-0.1-0.2,0-0.2,0.5,0.4c-0.4-0.4-0.9-0.9-0.5-0.8c-0.3-0.3-0.3-0.3-0.4-0.2
		c0,0.1,0,0.2-0.2,0.1c0.2,0.1,0.3,0.3,0.4,0.4C108.9,6.3,109,6.5,109.1,6.7z"/>
	<path d="M107.7,5.1c-0.3-0.3-0.7-0.8-0.8-0.9c0.2,0.2,0.3,0.4,0.4,0.5C107.5,4.9,107.6,5,107.7,5.1z"/>
	<path d="M107.4,4.1l0.5,0.7c0,0-0.1-0.1-0.1-0.3c-0.1-0.1-0.1-0.3-0.1-0.3L107.4,4.1z"/>
	<path d="M105.5,2.1l1.2,1.2l-1.2-1.3c-0.6-0.4-0.2,0.1,0.3,0.7C105.6,2.4,105.5,2.2,105.5,2.1z"/>
	<path d="M106.8,4l0.3,0.2c0-0.1-0.5-0.6-1-1.1C106.5,3.5,106.8,3.8,106.8,4z"/>
	<path d="M106.2,3.1c-0.1-0.2-0.3-0.3-0.4-0.5C105.9,2.7,106,2.9,106.2,3.1z"/>
	<path d="M104.4,0.6l-0.2-0.2l0.1,0.4C104.6,1.2,104.4,0.7,104.4,0.6z"/>
	<path d="M103.3,0.5c-0.1,0.1-0.1,0.5,0,1c0,0.4,0.1,0.9,0.1,1.1c0.2-0.4,0.1-1.1,0.2-1.8C103.5,1.4,103.4,0.7,103.3,0.5z"/>
	<path d="M103,2.5l0-1.8c-0.1,0-0.1,0.2-0.1,0.6C103,1.7,103,2.1,103,2.5z"/>
	<path d="M103.1,5.6c0,0.2,0.1,0.1,0.1,0.5c0.1-0.2,0.1-0.8,0.1-1.2c0,0,0,0.2-0.1,0.4C103.2,5.4,103.1,5.6,103.1,5.6z"/>
	<path d="M108.6,7.3c0-0.1-0.1-0.1-0.1-0.2L108.6,7.3C108.6,7.2,108.6,7.3,108.6,7.3z"/>
	<path d="M104.8,32.2C104.8,32.2,104.8,32.2,104.8,32.2C104.8,32.2,104.8,32.2,104.8,32.2z"/>
	<path d="M120,18.7l-5.5-5.5c-0.1-0.3-0.5-0.6-0.6-1l-0.2,0.2l-1-1c-0.3-0.5-0.8-1.1-1.3-1.8c-0.4-0.5-0.9-1-1.3-1.5
		c-0.5-0.5-1-1-1.5-1.5c-0.2-0.2-0.3-0.2-0.4-0.3c-0.1,0-0.3-0.1-0.4-0.2c-0.1-0.2-0.3-0.4-0.4-0.7c-0.3-0.3-0.8-0.7-0.9-1
		c-0.4-0.6-1-1.3-1.6-1.9c0,0.8,0,1.8,0,2.7c0,0.9,0,1.8-0.1,2.5c0,0.3,0,0.7-0.1,1.1c0,0.3,0,0.7,0,1c0,0.6,0,1.2-0.1,1.9
		c-0.2,1.1-0.1,2.9-0.1,4.5c0,0.2,0.1,0.4,0.1,0.6c0,0.6-0.1,1.5-0.1,1.7c0.2,2.2,0,4.3,0.2,6.1c0,0.8,0.1,1.7,0.1,2.5
		c0,0.9,0,1.8,0,2.7c0,1,0,2,0.1,2.9c0,0.2,0,0.4,0,0.6c-0.1,0.2-0.1,0.4-0.1,0.4c0.1,0.2,0.1,0.5,0.2,0.4c0,0.1,0,0.3,0,0.4
		c0,0.3,0,0.6,0,0.8c0.2-0.2,0.3-0.4,0.5-0.7c0.2-0.1,0,0.2,0.1,0.1c0.4-0.5,0.9-1,1.3-1.4c0.1,0,0.3-0.2,0.7-0.6l0-0.1
		c0.3-0.3,0.7-0.6,1-0.9c0.3-0.2,0.5-0.4,0.8-0.7c0.1-0.1,0.3-0.2,0.4-0.3c0.1-0.1,0.2-0.2,0.3-0.2c0.4-0.3,0.8-0.5,1.1-0.6
		c0.3-0.9,1.3-1.5,2-2.3c0.8-0.9,1.6-2.1,2.4-2.6c1.2-0.9,2.1-1.9,2.7-2.9c0.1-0.1,0.1-0.2,0.2-0.2c0.7-1.1,1.3-2.2,1.9-3.2
		C120.2,18.8,120.1,18.7,120,18.7z M104.8,32.2C104.8,32.2,104.8,32.2,104.8,32.2C104.8,32.2,104.8,32.2,104.8,32.2z M106.7,8.2
		L106.7,8.2C106.7,8.2,106.7,8.2,106.7,8.2C106.7,8.2,106.7,8.2,106.7,8.2z M106.7,8.1C106.7,8.1,106.8,8.1,106.7,8.1L106.7,8.1
		C106.8,8.1,106.8,8.1,106.7,8.1z M108.4,7.1l0.1,0.1c0,0,0,0,0,0.1C108.5,7.2,108.5,7.2,108.4,7.1z"/>
	<path d="M106.8,8.1C106.8,8.1,106.8,8.1,106.8,8.1C106.7,8.1,106.8,8.1,106.8,8.1L106.8,8.1z"/>
	<path d="M118.4,22c0,0,0,0.1-0.1,0.1c0,0-0.1,0.1-0.1,0.1C118.3,22.2,118.4,22.1,118.4,22z"/>
</g>
</svg>
